<svg width="28" height="23" viewBox="0 0 28 23" fill="none" xmlns="http://www.w3.org/2000/svg">
<path d="M0 4.5H15.3125M22.1181 4.5H27.2222M11.9097 18.5H27.2222M0 18.5H5.10417" stroke="white" stroke-width="3.11111"/>
<path d="M8.50703 22C10.3863 22 11.9098 20.433 11.9098 18.5C11.9098 16.567 10.3863 15 8.50703 15C6.62772 15 5.10425 16.567 5.10425 18.5C5.10425 20.433 6.62772 22 8.50703 22Z" stroke="white" stroke-width="2"/>
<path d="M18.7153 8C20.5946 8 22.1181 6.433 22.1181 4.5C22.1181 2.567 20.5946 1 18.7153 1C16.836 1 15.3125 2.567 15.3125 4.5C15.3125 6.433 16.836 8 18.7153 8Z" stroke="white" stroke-width="2"/>
</svg>
