<svg width="443" height="323" viewBox="0 0 443 323" fill="none" xmlns="http://www.w3.org/2000/svg">
<g clip-path="url(#clip0_12_1300)">
<path d="M410.449 120.15C407.18 119.407 404.505 119.036 401.979 118.293C393.954 115.841 387.712 111.234 384.74 103.06C381.619 94.2923 384.889 84.4098 392.914 78.3168C399.824 73.0412 407.849 70.9607 416.319 70.6635C424.716 70.292 433.112 70.5149 441.509 70.5149C441.806 70.5149 442.029 70.6635 442.623 70.8121C442.252 71.3322 442.029 71.8524 441.732 71.9267C438.611 72.5954 437.793 75.1217 437.199 77.7224C436.902 78.837 436.828 80.0258 436.828 81.1404C436.828 107.593 436.828 134.045 436.828 160.498C436.828 162.652 437.422 164.956 438.165 166.962C438.611 168.151 440.097 168.968 441.137 169.934C441.509 170.306 441.88 170.529 442.252 170.826C441.806 171.049 441.286 171.42 440.84 171.42C434.673 171.42 428.505 171.42 422.338 171.42C421.744 171.42 421.224 171.049 420.629 170.603C425.459 169.043 426.499 165.179 426.574 161.092C426.722 147.94 426.574 134.862 426.574 121.711C426.574 121.19 426.499 120.745 426.425 120.076C423.676 120.225 421.298 121.265 419.143 122.825C414.833 125.872 411.787 129.958 409.186 134.417C405.174 141.253 401.533 148.237 397.446 154.999C395.217 158.566 392.542 161.984 389.57 165.03C385.335 169.414 379.91 171.495 373.669 171.42C371.514 171.42 369.285 171.42 367.13 171.42C366.684 171.42 366.238 170.974 365.792 170.677C366.164 170.454 366.536 170.008 366.907 169.934C373.743 169.043 378.573 165.03 382.511 159.754C384.889 156.634 386.746 153.216 388.678 149.798C391.799 144.299 394.771 138.726 397.892 133.302C400.864 128.101 403.688 122.677 410.227 120.002L410.449 120.15ZM426.648 75.7162C424.716 75.7162 422.933 75.6419 421.149 75.7162C413.793 76.0877 406.586 77.0537 400.27 81.3633C394.548 85.3014 392.319 90.8743 393.657 97.636C395.514 106.775 401.682 111.977 410.375 113.834C414.908 114.8 419.737 114.429 424.419 114.8C426.351 114.949 426.871 114.28 426.871 112.348C426.796 100.905 426.871 89.4625 426.871 78.0196C426.871 77.3509 426.871 76.6078 426.722 75.7162H426.648Z" fill="white"/>
<path d="M70.8019 141.847C72.8081 136.943 74.5914 132.708 76.2261 128.398C76.4491 127.878 75.9289 127.061 75.6317 126.466C72.7338 121.859 69.7617 117.327 66.8638 112.72C65.6749 110.936 65.6006 109.005 66.7895 107.221C67.904 105.512 69.613 104.769 71.4707 105.289C72.6595 105.661 74.0713 106.478 74.7401 107.518C78.5296 113.091 82.1705 118.738 85.6628 124.534C86.4058 125.797 86.4801 127.804 86.1086 129.29C84.7711 134.491 83.1365 139.618 81.5761 144.745C81.2045 145.934 81.2788 146.751 82.4677 147.197C85.6628 148.386 88.7836 149.575 92.053 150.615C93.6134 151.135 94.7279 150.466 95.471 148.832C96.8828 145.488 98.4432 142.219 100.152 139.024C100.747 137.983 101.787 136.943 102.827 136.423C107.434 134.417 112.189 132.559 116.871 130.627C119.174 129.661 121.255 130.404 121.998 132.336C122.741 134.268 121.849 136.051 119.397 137.092C115.533 138.726 111.595 140.212 107.731 141.847C106.914 142.219 105.948 143.036 105.651 143.779C104.388 148.014 103.199 152.25 102.381 156.559C101.787 159.754 102.53 162.875 104.239 165.773C106.022 168.745 107.731 171.717 109.589 174.913C113.676 171.792 117.614 168.82 121.552 165.847C122.295 165.327 123.261 164.436 124.004 164.584C125.267 164.807 126.827 165.402 127.571 166.368C128.611 167.779 128.091 169.488 126.679 170.603C123.558 173.055 120.363 175.433 117.168 177.885C115.236 179.371 113.23 180.857 111.298 182.343C108.771 184.201 106.988 183.903 105.353 181.303C103.05 177.736 100.747 174.244 98.6661 170.603C97.6258 168.745 96.214 168.002 94.2078 167.705C86.926 166.813 80.09 164.659 73.4026 161.761C67.6811 159.309 63.5944 155.37 61.7368 149.129C60.2507 144.225 58.0959 139.544 56.0896 134.788C55.7181 133.971 54.9008 133.153 54.0834 132.708C49.2536 130.107 44.2752 127.655 39.3711 125.129C37.3649 124.088 36.1761 122.602 36.2504 120.299C36.399 117.029 39.817 114.8 42.8635 116.286C49.2536 119.407 55.5695 122.677 61.8111 126.02C62.7027 126.54 63.4458 127.655 63.9659 128.621C66.195 132.708 68.4242 136.943 70.9505 141.698L70.8019 141.847Z" fill="white"/>
<path d="M303.301 85.8962C302.93 86.9365 302.633 87.6795 302.335 88.3483C293.642 112.2 284.948 135.977 276.255 159.829C275.809 161.018 275.437 162.133 274.843 163.247C271.573 170.009 266.892 172.461 259.462 171.421C259.09 171.421 258.719 170.975 258.347 170.678C258.644 170.38 258.867 170.009 259.165 169.86C265.555 167.928 268.898 163.321 271.053 157.303C280.193 132.114 289.406 106.924 298.62 81.7352C299.14 80.3234 299.586 78.8373 299.809 77.3512C300.181 75.0478 299.289 73.2645 297.208 72.0756C296.688 71.7784 296.317 71.3326 295.871 70.8867C295.945 70.6638 296.02 70.5152 296.168 70.2923C300.032 70.2923 303.97 70.2923 307.834 70.3666C308.354 70.3666 308.948 71.4812 309.246 72.2242C315.562 89.3142 321.729 106.404 328.045 123.42C332.8 136.498 337.63 149.501 342.385 162.578C343.649 166.071 345.729 168.597 349.444 169.637C349.816 169.712 350.187 170.157 350.485 170.455C350.039 170.678 349.593 171.198 349.147 171.198C342.757 171.198 336.367 171.198 329.977 171.198C329.531 171.198 329.085 170.9 328.713 170.678C329.011 170.306 329.308 169.786 329.679 169.563C332.354 168.151 332.949 166.888 331.909 164.139C322.62 138.504 313.332 112.943 304.044 87.308C303.896 86.8622 303.599 86.4164 303.227 85.6733L303.301 85.8962Z" fill="white"/>
<path d="M218.816 120.745C218.816 159.755 218.816 198.764 218.816 237.774C218.816 240.375 218.147 241.49 216.289 241.564C214.58 241.638 213.466 240.895 213.243 239.186C213.094 238.443 213.243 237.626 213.243 236.808C213.243 159.457 213.243 82.0322 213.243 4.68132C213.243 3.86397 213.169 3.04662 213.243 2.30358C213.54 0.743182 214.58 -0.0741662 216.215 0.000138231C217.701 0.000138231 218.667 0.891791 218.816 2.37788C218.89 3.19523 218.816 3.93827 218.816 4.75562C218.816 43.3939 218.816 82.0322 218.816 120.745Z" fill="white"/>
<path d="M342.012 306.357C342.012 315.72 334.581 322.927 324.996 322.927C315.931 322.927 308.946 315.868 308.946 306.729C308.946 297.292 316.451 289.713 325.665 289.787C335.176 289.936 342.086 296.846 342.012 306.357ZM324.996 291.422C323.733 291.719 322.395 291.868 321.207 292.314C312.736 295.435 309.541 306.729 314.891 314.754C318.16 319.658 322.841 321.961 327.745 320.995C335.473 319.509 340.303 311.41 338.371 303.311C336.662 296.401 331.238 291.571 325.07 291.422H324.996Z" fill="white"/>
<path d="M106.766 304.574C107.287 304.797 107.658 304.945 108.03 305.094C111.819 306.654 113.602 309.478 113.454 313.862C113.38 317.577 111.299 320.772 107.584 321.515C103.274 322.407 98.7416 322.407 94.5806 322.778C95.0264 320.921 95.6208 319.509 95.6208 318.023C95.6951 310.221 95.6951 302.344 95.6208 294.543C95.6208 293.131 95.0264 291.793 94.5806 290.159C97.7014 290.307 101.194 290.307 104.686 290.679C107.881 291.05 110.333 292.685 111.15 295.954C111.968 299.298 110.407 301.824 107.732 303.756C107.435 303.979 107.212 304.202 106.766 304.499V304.574ZM99.1131 320.698C102.977 320.846 106.841 321.144 109.367 317.503C110.928 315.273 110.482 311.261 108.55 308.735C106.692 306.208 102.828 305.094 99.1131 306.134V320.698ZM99.1131 292.091V304.128C102.308 304.276 105.429 304.499 107.361 301.527C108.698 299.447 108.624 297.069 107.361 294.914C105.503 291.868 102.457 291.719 99.1874 292.016L99.1131 292.091Z" fill="white"/>
<path d="M377.827 304.648C382.434 306.134 384.738 309.032 384.589 313.788C384.441 318.543 381.32 321.59 375.673 322.407C374.781 322.556 373.964 322.481 373.072 322.556C370.471 322.556 367.945 322.556 365.716 322.556C366.087 320.995 366.682 319.509 366.682 318.097C366.756 310.444 366.756 302.716 366.682 295.063C366.682 293.577 366.087 292.016 365.716 290.307C368.762 290.456 372.18 290.456 375.598 290.828C378.868 291.199 381.468 292.834 382.211 296.177C383.029 299.67 381.32 302.196 378.496 304.128C378.348 304.277 378.199 304.425 377.679 304.797L377.827 304.648ZM370.174 320.772C374.261 320.847 378.199 321.218 380.577 317.28C381.988 314.977 381.394 310.964 379.462 308.512C377.53 306.06 373.518 305.094 370.174 306.209V320.772ZM370.248 304.128C373.369 304.202 376.564 304.574 378.496 301.527C379.908 299.373 379.759 296.921 378.422 294.766C376.49 291.794 373.518 291.719 370.248 292.091V304.128Z" fill="white"/>
<path d="M242.744 290.382C242.446 291.868 241.852 293.279 241.852 294.766C241.778 302.642 241.778 310.592 241.852 318.469C241.852 319.732 242.446 320.995 242.744 322.333H237.542C237.84 320.921 238.434 319.36 238.508 317.8C238.657 314.01 238.508 310.295 238.508 306.431C236.428 306.208 235.313 307.397 234.496 308.66C232.861 311.038 231.449 313.639 229.963 316.017C229.072 317.428 228.106 318.766 227.065 320.029C225.133 322.258 222.533 322.63 219.041 322.258C224.613 320.698 226.099 316.091 228.403 312.227C229.666 310.072 231.152 308.066 232.49 305.911C231.821 305.688 230.706 305.391 229.592 304.945C226.917 303.831 225.133 301.899 224.911 298.927C224.688 295.88 226.099 293.502 228.774 292.165C230.632 291.273 232.713 290.605 234.719 290.382C237.468 290.084 240.292 290.307 242.744 290.307V290.382ZM238.434 291.57C235.833 292.165 233.381 292.388 231.226 293.279C227.66 294.766 226.917 298.629 229.295 301.676C231.152 304.054 234.942 305.02 238.434 303.979V291.57Z" fill="white"/>
<path d="M267.931 290.382H273.504C270.978 294.32 272.687 298.629 272.39 302.791C276.328 298.778 281.009 295.509 284.278 290.382H287.622C283.609 295.063 279.3 299.967 274.99 304.945C274.693 304.722 274.396 304.574 274.099 304.351C274.842 304.5 275.585 304.574 276.328 304.722C279.003 305.465 280.86 307.174 282.049 309.627C283.164 311.856 284.204 314.011 285.318 316.24C286.582 318.766 288.068 321.144 291.189 322.184C287.027 322.853 284.798 321.887 282.941 318.469C281.455 315.794 280.117 313.045 278.78 310.37C277.442 307.769 275.436 306.283 272.538 306.06C271.349 309.775 272.018 320.624 273.727 322.333H267.931C268.228 320.921 268.823 319.435 268.823 317.949C268.897 310.072 268.897 302.122 268.823 294.246C268.823 292.982 268.228 291.719 267.857 290.382H267.931Z" fill="white"/>
<path d="M112.266 165.327C107.882 165.327 104.241 161.761 104.167 157.302C104.167 152.844 107.585 149.203 112.043 149.203C116.576 149.203 120.291 152.77 120.291 157.302C120.291 161.686 116.576 165.327 112.192 165.327H112.266Z" fill="white"/>
<path d="M56.7588 303.682C59.4338 303.979 61.8115 304.054 64.1149 304.574C69.0933 305.688 71.4711 308.809 71.3968 313.416C71.3225 317.651 68.4246 320.921 63.8177 321.961C63.0747 322.11 62.2573 322.333 61.44 322.333C58.3192 322.333 55.1984 322.333 52.5234 322.333C52.8207 320.772 53.4151 319.212 53.4151 317.651C53.4894 309.998 53.4894 302.27 53.4151 294.617C53.4151 293.205 52.8207 291.868 52.5234 290.382H57.9477C55.5699 294.617 57.3532 299.224 56.7588 303.608V303.682ZM56.8331 321.069C59.2851 320.624 61.5143 320.401 63.5948 319.806C65.9725 319.063 67.4586 317.354 67.8302 314.828C68.7961 308.883 63.0747 304.202 56.7588 305.986V321.069H56.8331Z" fill="white"/>
<path d="M141.69 303.682C144.291 303.979 146.743 304.053 149.046 304.574C153.95 305.688 156.551 308.957 156.402 313.416C156.328 317.651 153.281 321.292 148.6 322.035C144.811 322.629 140.947 322.555 137.455 322.704C137.752 320.698 138.272 318.914 138.346 317.131C138.421 309.626 138.421 302.047 138.346 294.542C138.346 293.205 137.752 291.867 137.455 290.53H142.879C140.501 294.765 142.284 299.372 141.616 303.756L141.69 303.682ZM141.839 320.698C143.027 320.698 143.993 320.772 144.885 320.698C148.303 320.252 151.498 319.434 152.687 315.571C154.47 309.478 148.675 304.202 141.839 305.911V320.698Z" fill="white"/>
<path d="M13.0694 290.382C15.0509 290.134 16.4131 291.05 17.1562 293.131C20.277 301.602 23.3234 310.147 26.5185 318.617C27.0387 319.955 28.0046 321.144 28.6734 322.333H23.1005C23.1748 321.515 23.6207 320.549 23.3234 319.806C20.5742 311.93 17.6763 304.128 14.8527 296.326C14.8527 296.103 14.6298 295.955 14.3326 295.509C13.218 298.481 12.1778 301.304 11.1375 304.128C9.3542 309.032 7.6452 313.936 5.78759 318.84C4.67302 321.887 3.40985 322.63 0.289062 322.333C3.48415 321.144 4.15289 318.246 5.11885 315.571C7.6452 308.661 10.2459 301.75 12.6979 294.766C13.1437 293.503 12.9208 292.091 13.0694 290.53V290.382Z" fill="white"/>
<path d="M432.589 322.407H427.239C427.239 321.292 427.462 320.178 427.239 319.286C426.199 316.091 424.862 312.896 423.747 309.701C423.375 308.586 422.781 308.066 421.518 308.141C419.289 308.289 416.539 307.472 414.905 308.512C413.419 309.478 413.121 312.302 412.378 314.308C411.784 315.794 411.115 317.28 410.744 318.766C410.521 319.881 410.744 321.07 410.744 322.333H406.88C407.697 320.772 408.663 319.361 409.258 317.726C412.527 309.255 415.648 300.784 418.843 292.314C419.066 291.645 419.363 290.976 419.809 290.01C420.255 290.976 420.552 291.645 420.775 292.239C423.97 300.859 427.165 309.478 430.36 318.097C430.955 319.583 431.846 320.921 432.664 322.333L432.589 322.407ZM418.843 296.4C417.505 300.116 416.391 303.237 415.202 306.432H422.558C421.369 303.162 420.18 300.041 418.843 296.4Z" fill="white"/>
<path d="M165.689 322.407H160.562C160.859 320.698 161.379 318.989 161.379 317.28C161.454 309.701 161.454 302.048 161.379 294.469C161.379 293.131 160.859 291.794 160.562 290.456H165.615C165.392 292.017 164.872 293.651 164.872 295.286C164.797 302.939 164.797 310.667 164.872 318.32C164.872 319.658 165.392 320.995 165.763 322.407H165.689Z" fill="white"/>
<path d="M89.5253 85.45C89.5253 93.4749 89.5253 101.574 89.5253 109.599C89.5253 110.193 89.5253 110.788 89.5253 111.308C89.451 111.679 89.0795 111.902 88.7823 112.2C88.4851 111.902 88.0393 111.679 87.965 111.382C87.8163 110.862 87.8906 110.268 87.8906 109.673C87.8906 93.4006 87.8906 77.2022 87.8906 60.9295C87.8906 60.9295 87.8906 60.7809 87.8906 60.7066C88.1879 59.9636 88.4851 59.1462 88.7823 58.4032C89.0795 59.1462 89.5253 59.8893 89.5253 60.6323C89.5253 68.8801 89.5253 77.1279 89.5253 85.45Z" fill="white"/>
<path d="M53.5648 93.4006C53.5648 98.8249 53.5648 104.249 53.5648 109.673C53.5648 110.416 53.0447 111.085 52.7474 111.754C52.4502 111.085 52.0044 110.416 52.0044 109.748C52.0044 98.7506 52.0044 87.7535 52.0044 76.7565C52.0044 76.6079 52.0044 76.4592 52.0044 76.3106C52.2273 75.7905 52.5245 75.2704 52.7474 74.7502C53.0447 75.2704 53.6391 75.8648 53.6391 76.3849C53.6391 82.0321 53.6391 87.6792 53.6391 93.3263L53.5648 93.4006Z" fill="white"/>
<path d="M111.372 107.519C111.372 102.243 111.372 96.9675 111.372 91.6919C111.372 91.0231 111.892 90.3544 112.189 89.7599C112.487 90.3544 113.007 91.0231 113.007 91.6176C113.007 102.243 113.007 112.869 113.007 123.568C113.007 124.237 112.487 124.906 112.264 125.575C111.967 124.906 111.446 124.312 111.446 123.643C111.446 118.293 111.446 112.943 111.446 107.593L111.372 107.519Z" fill="white"/>
<path d="M94.5803 70.9606C95.9921 73.1897 95.9921 102.243 94.7289 104.323C94.4317 103.357 93.9858 102.689 93.9858 102.094C93.9858 92.5089 93.9858 82.9979 93.9858 73.4126C93.9858 72.7439 94.2831 72.1494 94.5803 70.9606Z" fill="white"/>
</g>
<defs>
<clipPath id="clip0_12_1300">
<rect width="442.334" height="322.927" fill="white" transform="translate(0.361328)"/>
</clipPath>
</defs>
</svg>
