<svg width="147" height="87" viewBox="0 0 147 87" fill="none" xmlns="http://www.w3.org/2000/svg">
<path d="M134.765 43.2724C133.588 43.0048 132.625 42.871 131.715 42.6034C128.825 41.7204 126.577 40.0612 125.506 37.1177C124.382 33.96 125.56 30.4009 128.45 28.2066C130.939 26.3066 133.829 25.5574 136.879 25.4503C139.903 25.3165 142.927 25.3968 145.951 25.3968C146.058 25.3968 146.138 25.4503 146.352 25.5038C146.219 25.6912 146.138 25.8785 146.031 25.9052C144.907 26.1461 144.613 27.0559 144.399 27.9925C144.292 28.3939 144.265 28.8221 144.265 29.2235C144.265 38.75 144.265 48.2765 144.265 57.8031C144.265 58.5791 144.479 59.4087 144.747 60.1312C144.907 60.5593 145.443 60.8537 145.817 61.2016C145.951 61.3354 146.085 61.4157 146.219 61.5227C146.058 61.603 145.871 61.7368 145.71 61.7368C143.489 61.7368 141.268 61.7368 139.047 61.7368C138.833 61.7368 138.646 61.603 138.431 61.4424C140.171 60.8805 140.545 59.489 140.572 58.0172C140.626 53.2806 140.572 48.5709 140.572 43.8344C140.572 43.6471 140.545 43.4865 140.519 43.2457C139.529 43.2992 138.672 43.6738 137.896 44.2358C136.344 45.333 135.247 46.8047 134.31 48.4103C132.865 50.8723 131.554 53.3877 130.082 55.8228C129.28 57.1073 128.316 58.3383 127.246 59.4354C125.72 61.0143 123.767 61.7635 121.519 61.7368C120.743 61.7368 119.94 61.7368 119.164 61.7368C119.004 61.7368 118.843 61.5762 118.683 61.4692C118.816 61.3889 118.95 61.2283 119.084 61.2016C121.546 60.8805 123.285 59.4354 124.704 57.5355C125.56 56.4116 126.229 55.1806 126.925 53.9496C128.049 51.9694 129.119 49.9624 130.243 48.0089C131.313 46.1358 132.33 44.1823 134.685 43.2189L134.765 43.2724ZM140.599 27.27C139.903 27.27 139.261 27.2432 138.619 27.27C135.97 27.4038 133.374 27.7517 131.099 29.3038C129.039 30.722 128.236 32.729 128.718 35.1642C129.387 38.4557 131.608 40.3288 134.739 40.9978C136.371 41.3457 138.11 41.2119 139.796 41.3457C140.492 41.3992 140.679 41.1584 140.679 40.4626C140.653 36.3416 140.679 32.2206 140.679 28.0996C140.679 27.8587 140.679 27.5911 140.626 27.27H140.599Z" fill="white"/>
<path d="M12.4445 51.086C13.1671 49.3199 13.8093 47.7946 14.398 46.2425C14.4783 46.0552 14.291 45.7608 14.1839 45.5467C13.1403 43.8876 12.0699 42.2553 11.0263 40.5961C10.5981 39.9539 10.5714 39.2581 10.9995 38.6159C11.4009 38.0004 12.0164 37.7328 12.6854 37.9201C13.1135 38.0539 13.622 38.3483 13.8628 38.7229C15.2276 40.7299 16.5388 42.7637 17.7965 44.851C18.0641 45.3059 18.0909 46.0284 17.9571 46.5636C17.4754 48.4368 16.8867 50.2832 16.3247 52.1297C16.1909 52.5578 16.2177 52.8522 16.6459 53.0127C17.7965 53.4409 18.9205 53.8691 20.0979 54.2437C20.6598 54.431 21.0612 54.1902 21.3288 53.6015C21.8373 52.3973 22.3992 51.2198 23.0147 50.0691C23.2288 49.6945 23.6034 49.3199 23.9781 49.1326C25.6372 48.41 27.3498 47.741 29.0357 47.0453C29.8653 46.6974 30.6145 46.965 30.8821 47.6608C31.1497 48.3565 30.8286 48.9988 29.9455 49.3734C28.554 49.9621 27.1357 50.4973 25.7442 51.086C25.4499 51.2198 25.102 51.5142 24.995 51.7818C24.54 53.3071 24.1119 54.8324 23.8175 56.3845C23.6034 57.5352 23.871 58.6591 24.4865 59.7027C25.1287 60.7731 25.7442 61.8435 26.4132 62.9942C27.885 61.8703 29.3033 60.7999 30.7216 59.7295C30.9892 59.5422 31.3371 59.221 31.6047 59.2746C32.0596 59.3548 32.6215 59.5689 32.8891 59.9168C33.2638 60.4252 33.0765 61.0407 32.568 61.4421C31.4441 62.3252 30.2934 63.1815 29.1427 64.0646C28.447 64.5998 27.7245 65.135 27.0287 65.6702C26.1189 66.3392 25.4766 66.2321 24.8879 65.2956C24.0584 64.0111 23.2288 62.7534 22.4795 61.4421C22.1049 60.7731 21.5964 60.5055 20.8739 60.3985C18.2515 60.0774 15.7895 59.3013 13.3811 58.2577C11.3206 57.3746 9.84884 55.9563 9.17984 53.7085C8.64464 51.9423 7.8686 50.2565 7.14608 48.5438C7.01228 48.2495 6.71793 47.9551 6.42357 47.7946C4.68417 46.858 2.89126 45.9749 1.1251 45.065C0.402584 44.6904 -0.0255752 44.1552 0.0011847 43.3257C0.0547045 42.1482 1.28566 41.3454 2.38282 41.8806C4.68417 43.0045 6.95877 44.182 9.2066 45.3862C9.52772 45.5735 9.79532 45.9749 9.98264 46.3228C10.7854 47.7946 11.5882 49.3199 12.4981 51.0325L12.4445 51.086Z" fill="white"/>
<path d="M96.1771 30.9362C96.0433 31.3109 95.9362 31.5785 95.8292 31.8193C92.6983 40.4092 89.5674 48.9724 86.4364 57.5624C86.2759 57.9905 86.1421 58.3919 85.928 58.7933C84.7506 61.2285 83.0647 62.1115 80.3887 61.7369C80.2549 61.7369 80.1211 61.5763 79.9873 61.4693C80.0943 61.3623 80.1746 61.2285 80.2817 61.1749C82.583 60.4792 83.7872 58.8201 84.5632 56.6525C87.8547 47.5809 91.1729 38.5093 94.4912 29.4377C94.6785 28.9292 94.8391 28.394 94.9193 27.8588C95.0531 27.0293 94.732 26.387 93.9827 25.9589C93.7954 25.8518 93.6616 25.6913 93.5011 25.5307C93.5278 25.4504 93.5546 25.3969 93.6081 25.3167C94.9996 25.3167 96.4179 25.3167 97.8094 25.3434C97.9967 25.3434 98.2108 25.7448 98.3178 26.0124C100.592 32.1672 102.814 38.322 105.088 44.45C106.801 49.1597 108.54 53.8427 110.253 58.5525C110.708 59.8102 111.457 60.72 112.795 61.0947C112.929 61.1214 113.063 61.282 113.17 61.389C113.009 61.4693 112.848 61.6566 112.688 61.6566C110.387 61.6566 108.085 61.6566 105.784 61.6566C105.623 61.6566 105.463 61.5496 105.329 61.4693C105.436 61.3355 105.543 61.1482 105.677 61.0679C106.64 60.5595 106.854 60.1046 106.48 59.1144C103.135 49.8823 99.7896 40.6768 96.4447 31.4447C96.3911 31.2841 96.2841 31.1236 96.1503 30.856L96.1771 30.9362Z" fill="white"/>
<path d="M65.7505 43.4866C65.7505 57.5355 65.7505 71.5845 65.7505 85.6334C65.7505 86.57 65.5097 86.9714 64.8407 86.9982C64.2252 87.0249 63.8238 86.7573 63.7435 86.1419C63.69 85.8743 63.7435 85.5799 63.7435 85.2856C63.7435 57.4285 63.7435 29.5446 63.7435 1.68755C63.7435 1.39319 63.7168 1.09883 63.7435 0.831234C63.8506 0.269276 64.2252 -0.0250835 64.8139 0.00167639C65.3491 0.00167639 65.697 0.322795 65.7505 0.857994C65.7773 1.15235 65.7505 1.41995 65.7505 1.71431C65.7505 15.6295 65.7505 29.5446 65.7505 43.4866Z" fill="white"/>
<path d="M27.3778 59.5421C25.7989 59.5421 24.4877 58.2577 24.4609 56.6521C24.4609 55.0465 25.6919 53.7352 27.2975 53.7352C28.9298 53.7352 30.2678 55.0197 30.2678 56.6521C30.2678 58.2309 28.9298 59.5421 27.351 59.5421H27.3778Z" fill="white"/>
<path d="M19.1877 30.7753C19.1877 33.6653 19.1877 36.5822 19.1877 39.4723C19.1877 39.6863 19.1877 39.9004 19.1877 40.0877C19.1609 40.2215 19.0271 40.3018 18.9201 40.4089C18.8131 40.3018 18.6525 40.2215 18.6257 40.1145C18.5722 39.9272 18.599 39.7131 18.599 39.499C18.599 33.6386 18.599 27.8049 18.599 21.9445C18.599 21.9445 18.599 21.891 18.599 21.8642C18.706 21.5966 18.8131 21.3023 18.9201 21.0347C19.0271 21.3023 19.1877 21.5699 19.1877 21.8375C19.1877 24.8078 19.1877 27.7782 19.1877 30.7753Z" fill="white"/>
<path d="M6.23725 33.6389C6.23725 35.5923 6.23725 37.5458 6.23725 39.4993C6.23725 39.7669 6.04993 40.0077 5.94289 40.2486C5.83585 40.0077 5.67529 39.7669 5.67529 39.526C5.67529 35.5656 5.67529 31.6051 5.67529 27.6446C5.67529 27.5911 5.67529 27.5376 5.67529 27.4841C5.75557 27.2968 5.86261 27.1094 5.94289 26.9221C6.04993 27.1094 6.26401 27.3235 6.26401 27.5108C6.26401 29.5446 6.26401 31.5783 6.26401 33.6121L6.23725 33.6389Z" fill="white"/>
<path d="M27.0557 38.7233C27.0557 36.8233 27.0557 34.9233 27.0557 33.0234C27.0557 32.7826 27.243 32.5417 27.35 32.3276C27.4571 32.5417 27.6444 32.7826 27.6444 32.9966C27.6444 36.8233 27.6444 40.65 27.6444 44.5034C27.6444 44.7442 27.4571 44.9851 27.3768 45.2259C27.2697 44.9851 27.0824 44.771 27.0824 44.5302C27.0824 42.6034 27.0824 40.6767 27.0824 38.75L27.0557 38.7233Z" fill="white"/>
<path d="M21.0085 25.5571C21.517 26.3599 21.517 36.8231 21.062 37.5723C20.955 37.2245 20.7944 36.9836 20.7944 36.7695C20.7944 33.3175 20.7944 29.8922 20.7944 26.4402C20.7944 26.1994 20.9015 25.9853 21.0085 25.5571Z" fill="white"/>
</svg>
