<?xml version="1.0" standalone="no"?>
  <!DOCTYPE svg PUBLIC "-//W3C//DTD SVG 1.1//EN" "http://www.w3.org/Graphics/SVG/1.1/DTD/svg11.dtd" >
  <svg>
  <metadata>
  Created by font-carrier
  </metadata>
  <defs>
  <font id="Involve-Regular" horiz-adv-x="1381" vert-adv-y="1381" >
    <font-face
      
      font-family="Involve"
      
      font-weight="400"
      
      font-stretch="normal"
      
      units-per-em="1000"
      
      ascent="800"
      
      descent="-200"
      
    />
      <missing-glyph />

      

      
      <glyph glyph-name="uni41" unicode="&#x41;" d="M11 0L89 0L197 249L541 249L648 0L729 0L411 739L328 739ZM225 316L370 655L512 316Z"  horiz-adv-x="740" vert-adv-y="1000"  />

      
      <glyph glyph-name="unic6" unicode="&#xc6;" d="M11 0L99 0L272 250L543 250L543 0L936 0L936 67L617 67L617 340L925 340L925 407L617 407L617 672L936 672L936 739L522 739ZM319 317L543 644L543 317Z"  horiz-adv-x="992" vert-adv-y="1000"  />

      
      <glyph glyph-name="unic1" unicode="&#xc1;" d="M11 0L89 0L197 249L541 249L648 0L729 0L411 739L328 739ZM225 316L370 655L512 316ZM324 792L517 906L483 964L290 848Z"  horiz-adv-x="740" vert-adv-y="1000"  />

      
      <glyph glyph-name="unic2" unicode="&#xc2;" d="M11 0L89 0L197 249L541 249L648 0L729 0L411 739L328 739ZM225 316L370 655L512 316ZM193 805L284 805L372 879L458 805L547 805L404 931L338 931Z"  horiz-adv-x="740" vert-adv-y="1000"  />

      
      <glyph glyph-name="unic4" unicode="&#xc4;" d="M11 0L89 0L197 249L541 249L648 0L729 0L411 739L328 739ZM225 316L370 655L512 316ZM260 805L334 805L334 931L260 931ZM407 805L481 805L481 931L407 931Z"  horiz-adv-x="740" vert-adv-y="1000"  />

      
      <glyph glyph-name="unic0" unicode="&#xc0;" d="M11 0L89 0L197 249L541 249L648 0L729 0L411 739L328 739ZM225 316L370 655L512 316ZM222 900L419 792L452 848L254 958Z"  horiz-adv-x="740" vert-adv-y="1000"  />

      
      <glyph glyph-name="unic5" unicode="&#xc5;" d="M11 0L89 0L197 249L541 249L648 0L729 0L411 739L328 739ZM225 316L370 655L512 316ZM278 883C278 833 319 792 370 792C421 792 462 833 462 884C462 934 421 976 371 976C319 976 278 935 278 883ZM319 883C319 912 342 935 369 935C398 935 421 912 421 883C421 856 398 833 370 833C342 833 319 855 319 883Z"  horiz-adv-x="740" vert-adv-y="1000"  />

      
      <glyph glyph-name="unic3" unicode="&#xc3;" d="M11 0L89 0L197 249L541 249L648 0L729 0L411 739L328 739ZM225 316L370 655L512 316ZM261 815C278 835 301 847 321 847C332 847 347 843 361 837C400 820 414 815 427 815C460 815 502 838 518 864L485 910C464 888 447 879 428 879C419 879 397 885 380 893C347 907 338 910 321 910C285 910 251 892 228 861Z"  horiz-adv-x="740" vert-adv-y="1000"  />

      
      <glyph glyph-name="uni42" unicode="&#x42;" d="M76 0L259 0C456 0 544 66 544 212C544 303 506 358 420 394C476 426 502 473 502 547C502 677 420 739 249 739L76 739ZM150 67L150 354L289 354C402 354 469 300 469 208C469 109 404 67 251 67ZM150 421L150 672L239 672C376 672 427 638 427 546C427 460 384 421 291 421Z"  horiz-adv-x="574" vert-adv-y="1000"  />

      
      <glyph glyph-name="uni43" unicode="&#x43;" d="M688 194C615 98 535 55 431 55C259 55 119 196 119 370C119 548 253 684 430 684C542 684 626 639 684 547L767 547C710 674 580 752 427 752C207 752 44 588 44 367C44 151 211-13 432-13C582-13 696 57 770 194Z"  horiz-adv-x="813" vert-adv-y="1000"  />

      
      <glyph glyph-name="unic7" unicode="&#xc7;" d="M331-166C345-214 377-240 424-240C478-240 516-201 516-145C516-95 485-61 439-61C428-61 420-63 405-68L429-13C583-13 699 58 770 194L688 194C615 98 535 55 431 55C259 55 119 196 119 370C119 548 253 684 430 684C542 684 626 639 684 547L767 547C710 674 580 752 427 752C207 752 44 588 44 367C44 166 177 20 390-12L348-103L378-121C393-105 405-99 422-99C449-99 468-119 468-147C468-175 451-193 423-193C400-193 386-183 378-159Z"  horiz-adv-x="813" vert-adv-y="1000"  />

      
      <glyph glyph-name="uni44" unicode="&#x44;" d="M76 0L275 0C382 0 458 16 522 51C638 115 700 226 700 367C700 503 645 609 540 676C468 722 389 739 250 739L76 739ZM150 67L150 672L253 672C360 672 429 659 484 628C573 578 625 483 625 370C625 276 589 193 525 138C465 87 388 67 253 67Z"  horiz-adv-x="744" vert-adv-y="1000"  />

      
      <glyph glyph-name="uni45" unicode="&#x45;" d="M76 0L480 0L480 67L150 67L150 340L469 340L469 407L150 407L150 672L480 672L480 739L76 739Z"  horiz-adv-x="536" vert-adv-y="1000"  />

      
      <glyph glyph-name="unic9" unicode="&#xc9;" d="M76 0L480 0L480 67L150 67L150 340L469 340L469 407L150 407L150 672L480 672L480 739L76 739ZM232 792L425 906L391 964L198 848Z"  horiz-adv-x="536" vert-adv-y="1000"  />

      
      <glyph glyph-name="unica" unicode="&#xca;" d="M76 0L480 0L480 67L150 67L150 340L469 340L469 407L150 407L150 672L480 672L480 739L76 739ZM101 805L192 805L280 879L366 805L455 805L312 931L246 931Z"  horiz-adv-x="536" vert-adv-y="1000"  />

      
      <glyph glyph-name="unicb" unicode="&#xcb;" d="M76 0L480 0L480 67L150 67L150 340L469 340L469 407L150 407L150 672L480 672L480 739L76 739ZM168 805L242 805L242 931L168 931ZM315 805L389 805L389 931L315 931Z"  horiz-adv-x="536" vert-adv-y="1000"  />

      
      <glyph glyph-name="unic8" unicode="&#xc8;" d="M76 0L480 0L480 67L150 67L150 340L469 340L469 407L150 407L150 672L480 672L480 739L76 739ZM130 900L327 792L360 848L162 958Z"  horiz-adv-x="536" vert-adv-y="1000"  />

      
      <glyph glyph-name="unid0" unicode="&#xd0;" d="M122 0L321 0C589 0 746 136 746 367C746 608 588 739 296 739L122 739L122 414L26 414L26 347L122 347ZM196 67L196 347L401 347L401 414L196 414L196 672L299 672C542 672 671 568 671 370C671 171 544 67 299 67Z"  horiz-adv-x="790" vert-adv-y="1000"  />

      
      <glyph glyph-name="uni20AC" unicode="&#x20AC;" d="M46 263L172 263C218 97 367-13 547-13C640-13 719 14 783 67L783 169C722 96 636 55 546 55C415 55 297 138 252 263L669 263L699 330L236 330C235 350 234 360 234 370C234 384 234 390 235 397L728 397L758 464L247 464C286 597 404 684 545 684C656 684 738 641 796 551L830 628C761 707 657 752 542 752C359 752 211 638 170 464L76 464L46 397L160 397C159 387 159 377 159 367C159 354 159 342 161 330L76 330Z"  horiz-adv-x="870" vert-adv-y="1000"  />

      
      <glyph glyph-name="uni46" unicode="&#x46;" d="M76 0L150 0L150 338L440 338L440 405L150 405L150 672L451 672L451 739L76 739Z"  horiz-adv-x="485" vert-adv-y="1000"  />

      
      <glyph glyph-name="uni47" unicode="&#x47;" d="M329 274L742 274C712 149 584 55 443 55C262 55 119 193 119 369C119 547 259 684 442 684C556 684 652 632 703 542L786 542C737 668 597 752 436 752C216 752 44 585 44 371C44 154 219-13 446-13C652-13 819 141 831 341L329 341Z"  horiz-adv-x="872" vert-adv-y="1000"  />

      
      <glyph glyph-name="uni48" unicode="&#x48;" d="M76 0L150 0L150 347L533 347L533 0L607 0L607 739L533 739L533 414L150 414L150 739L76 739Z"  horiz-adv-x="683" vert-adv-y="1000"  />

      
      <glyph glyph-name="uni49" unicode="&#x49;" d="M76 0L150 0L150 739L76 739Z"  horiz-adv-x="226" vert-adv-y="1000"  />

      
      <glyph glyph-name="unicd" unicode="&#xcd;" d="M76 0L150 0L150 739L76 739ZM33 792L226 906L192 964L-1 848Z"  horiz-adv-x="226" vert-adv-y="1000"  />

      
      <glyph glyph-name="unice" unicode="&#xce;" d="M76 0L150 0L150 739L76 739ZM-64 805L27 805L115 879L201 805L290 805L147 931L81 931Z"  horiz-adv-x="226" vert-adv-y="1000"  />

      
      <glyph glyph-name="unicf" unicode="&#xcf;" d="M77 0L151 0L151 739L77 739ZM3 805L77 805L77 931L3 931ZM150 805L224 805L224 931L150 931Z"  horiz-adv-x="226" vert-adv-y="1000"  />

      
      <glyph glyph-name="unicc" unicode="&#xcc;" d="M76 0L150 0L150 739L76 739ZM-2 900L195 792L228 848L30 958Z"  horiz-adv-x="226" vert-adv-y="1000"  />

      
      <glyph glyph-name="uni4a" unicode="&#x4a;" d="M11 175C17 57 91-14 209-14C337-14 406 72 406 231L406 739L332 739L332 231C332 114 290 54 210 54C137 54 89 100 84 175Z"  horiz-adv-x="482" vert-adv-y="1000"  />

      
      <glyph glyph-name="uni4b" unicode="&#x4b;" d="M76 0L150 0L150 202L246 320L492 0L585 0L293 379L585 739L492 739L150 314L150 739L76 739Z"  horiz-adv-x="591" vert-adv-y="1000"  />

      
      <glyph glyph-name="uni4c" unicode="&#x4c;" d="M76 0L456 0L456 67L150 67L150 739L76 739Z"  horiz-adv-x="462" vert-adv-y="1000"  />

      
      <glyph glyph-name="uni013F" unicode="&#x013F;" d="M309 313L383 313L383 439L309 439ZM76 0L456 0L456 67L150 67L150 739L76 739Z"  horiz-adv-x="462" vert-adv-y="1000"  />

      
      <glyph glyph-name="uni0141" unicode="&#x0141;" d="M122 0L502 0L502 67L196 67L196 353L356 485L356 569L196 436L196 739L122 739L122 387L26 307L26 224L122 303Z"  horiz-adv-x="517" vert-adv-y="1000"  />

      
      <glyph glyph-name="uni4d" unicode="&#x4d;" d="M76 0L150 0L150 658L427 0L491 0L769 658L769 0L843 0L843 739L728 739L460 110L191 739L76 739Z"  horiz-adv-x="919" vert-adv-y="1000"  />

      
      <glyph glyph-name="uni4e" unicode="&#x4e;" d="M76 0L150 0L150 650L590 0L664 0L664 739L590 739L590 126L176 739L76 739Z"  horiz-adv-x="740" vert-adv-y="1000"  />

      
      <glyph glyph-name="unid1" unicode="&#xd1;" d="M76 0L150 0L150 650L590 0L664 0L664 739L590 739L590 126L176 739L76 739ZM265 815C285 836 305 847 325 847C334 847 349 843 365 837C403 822 421 815 438 815C469 815 505 836 522 864L489 910C468 888 451 879 432 879C422 879 402 885 384 893C359 904 339 910 325 910C289 910 255 892 232 861Z"  horiz-adv-x="740" vert-adv-y="1000"  />

      
      <glyph glyph-name="uni4f" unicode="&#x4f;" d="M44 369C44 160 221-13 435-13C649-13 825 159 825 369C825 577 650 752 440 752C220 752 44 582 44 369ZM119 369C119 539 262 684 431 684C608 684 750 543 750 368C750 197 607 55 435 55C262 55 119 197 119 369Z"  horiz-adv-x="869" vert-adv-y="1000"  />

      
      <glyph glyph-name="uni0152" unicode="&#x0152;" d="M445-13C580-13 684 44 745 151L745 0L1138 0L1138 67L819 67L819 340L1127 340L1127 407L819 407L819 672L1138 672L1138 739L745 739L745 592C683 695 571 752 432 752C210 752 44 589 44 371C44 150 214-13 445-13ZM438 55C257 55 119 192 119 371C119 550 251 684 427 684C615 684 746 555 746 371C746 188 616 55 438 55Z"  horiz-adv-x="1194" vert-adv-y="1000"  />

      
      <glyph glyph-name="unid3" unicode="&#xd3;" d="M388 792L581 906L547 964L354 848ZM44 369C44 160 221-13 435-13C649-13 825 159 825 369C825 577 650 752 440 752C220 752 44 582 44 369ZM119 369C119 539 262 684 431 684C608 684 750 543 750 368C750 197 607 55 435 55C262 55 119 197 119 369Z"  horiz-adv-x="869" vert-adv-y="1000"  />

      
      <glyph glyph-name="unid4" unicode="&#xd4;" d="M257 805L348 805L436 879L522 805L611 805L468 931L402 931ZM44 369C44 160 221-13 435-13C649-13 825 159 825 369C825 577 650 752 440 752C220 752 44 582 44 369ZM119 369C119 539 262 684 431 684C608 684 750 543 750 368C750 197 607 55 435 55C262 55 119 197 119 369Z"  horiz-adv-x="869" vert-adv-y="1000"  />

      
      <glyph glyph-name="unid6" unicode="&#xd6;" d="M324 805L398 805L398 931L324 931ZM471 805L545 805L545 931L471 931ZM44 369C44 160 221-13 435-13C649-13 825 159 825 369C825 577 650 752 440 752C220 752 44 582 44 369ZM119 369C119 539 262 684 431 684C608 684 750 543 750 368C750 197 607 55 435 55C262 55 119 197 119 369Z"  horiz-adv-x="869" vert-adv-y="1000"  />

      
      <glyph glyph-name="unid2" unicode="&#xd2;" d="M286 900L483 792L516 848L318 958ZM44 369C44 160 221-13 435-13C649-13 825 159 825 369C825 577 650 752 440 752C220 752 44 582 44 369ZM119 369C119 539 262 684 431 684C608 684 750 543 750 368C750 197 607 55 435 55C262 55 119 197 119 369Z"  horiz-adv-x="869" vert-adv-y="1000"  />

      
      <glyph glyph-name="unid8" unicode="&#xd8;" d="M44 370C44 255 91 153 176 82L83-42L139-83L233 42C293 6 364-13 438-13C653-13 824 157 824 372C824 487 780 582 692 656L784 779L730 821L636 696C587 731 508 752 431 752C214 752 44 584 44 370ZM119 366C119 545 255 684 430 684C491 684 549 669 595 641L219 138C152 201 119 276 119 366ZM274 97L650 600C718 534 749 461 749 369C749 193 611 55 436 55C377 55 331 67 274 97Z"  horiz-adv-x="868" vert-adv-y="1000"  />

      
      <glyph glyph-name="unid5" unicode="&#xd5;" d="M333 815C359 837 377 847 393 847C404 847 419 843 433 837C472 820 486 815 499 815C532 815 574 838 590 864L557 910C536 888 519 879 500 879C491 879 469 885 452 893C419 907 410 910 393 910C357 910 323 892 300 861ZM44 369C44 160 221-13 435-13C649-13 825 159 825 369C825 577 650 752 440 752C220 752 44 582 44 369ZM119 369C119 539 262 684 431 684C608 684 750 543 750 368C750 197 607 55 435 55C262 55 119 197 119 369Z"  horiz-adv-x="869" vert-adv-y="1000"  />

      
      <glyph glyph-name="uni50" unicode="&#x50;" d="M76 0L150 0L150 299L292 299C391 299 445 312 491 345C539 380 565 440 565 515C565 599 533 666 477 700C431 728 375 739 280 739L76 739ZM150 366L150 672L255 672C373 672 490 669 490 516C490 384 396 366 287 366Z"  horiz-adv-x="592" vert-adv-y="1000"  />

      
      <glyph glyph-name="uni51" unicode="&#x51;" d="M44 369C44 156 221-13 443-13C525-13 602 9 665 51C712 7 751-9 804-9C812-9 819-9 827-8L827 56C822 55 818 55 812 55C781 55 753 66 716 93C796 161 839 258 839 371C839 590 671 752 444 752C215 752 44 588 44 369ZM161 216C200 232 229 237 277 237C404 237 499 197 605 100C556 69 506 55 443 55C326 55 213 119 161 216ZM130 279C121 319 119 337 119 363C119 545 259 684 442 684C624 684 764 548 764 371C764 283 731 208 663 142C519 265 427 305 288 305C230 305 186 298 130 279Z"  horiz-adv-x="871" vert-adv-y="1000"  />

      
      <glyph glyph-name="uni52" unicode="&#x52;" d="M76 0L150 0L150 672L254 672C427 672 502 621 502 503C502 392 415 335 246 335L225 335L474 0L566 0L359 276C501 291 577 370 577 502C577 662 474 739 259 739L76 739Z"  horiz-adv-x="607" vert-adv-y="1000"  />

      
      <glyph glyph-name="uni53" unicode="&#x53;" d="M22 207C29 74 120-13 253-13C381-13 476 80 476 206C476 319 419 377 265 423C160 454 121 490 121 555C121 630 175 684 249 684C324 684 376 632 381 552L458 552C455 672 372 752 251 752C132 752 46 669 46 553C46 449 97 397 236 356C358 320 401 280 401 202C401 117 340 55 255 55C168 55 111 111 101 207Z"  horiz-adv-x="498" vert-adv-y="1000"  />

      
      <glyph glyph-name="uni0160" unicode="&#x0160;" d="M82 931L225 805L291 805L436 931L345 931L257 857L171 931ZM22 207C29 74 120-13 253-13C381-13 476 80 476 206C476 319 419 377 265 423C160 454 121 490 121 555C121 630 175 684 249 684C324 684 376 632 381 552L458 552C455 672 372 752 251 752C132 752 46 669 46 553C46 449 97 397 236 356C358 320 401 280 401 202C401 117 340 55 255 55C168 55 111 111 101 207Z"  horiz-adv-x="498" vert-adv-y="1000"  />

      
      <glyph glyph-name="uni54" unicode="&#x54;" d="M176 0L250 0L250 672L419 672L419 739L7 739L7 672L176 672Z"  horiz-adv-x="426" vert-adv-y="1000"  />

      
      <glyph glyph-name="unide" unicode="&#xde;" d="M76 0L150 0L150 166L292 166C391 166 445 179 491 212C539 247 565 307 565 382C565 466 533 533 477 567C431 595 375 606 280 606L143 606L143 739L76 739ZM150 233L150 539L255 539C373 539 490 536 490 383C490 251 396 233 287 233Z"  horiz-adv-x="592" vert-adv-y="1000"  />

      
      <glyph glyph-name="uni55" unicode="&#x55;" d="M76 739L76 278C76 91 166-13 327-13C489-13 579 91 579 278L579 739L505 739L505 278C505 132 444 55 327 55C211 55 150 132 150 278L150 739Z"  horiz-adv-x="655" vert-adv-y="1000"  />

      
      <glyph glyph-name="unida" unicode="&#xda;" d="M281 792L474 906L440 964L247 848ZM76 739L76 278C76 91 166-13 327-13C489-13 579 91 579 278L579 739L505 739L505 278C505 132 444 55 327 55C211 55 150 132 150 278L150 739Z"  horiz-adv-x="655" vert-adv-y="1000"  />

      
      <glyph glyph-name="unidb" unicode="&#xdb;" d="M150 805L241 805L329 879L415 805L504 805L361 931L295 931ZM76 739L76 278C76 91 166-13 327-13C489-13 579 91 579 278L579 739L505 739L505 278C505 132 444 55 327 55C211 55 150 132 150 278L150 739Z"  horiz-adv-x="655" vert-adv-y="1000"  />

      
      <glyph glyph-name="unidc" unicode="&#xdc;" d="M217 805L291 805L291 931L217 931ZM364 805L438 805L438 931L364 931ZM76 739L76 278C76 91 166-13 327-13C489-13 579 91 579 278L579 739L505 739L505 278C505 132 444 55 327 55C211 55 150 132 150 278L150 739Z"  horiz-adv-x="655" vert-adv-y="1000"  />

      
      <glyph glyph-name="unid9" unicode="&#xd9;" d="M179 900L376 792L409 848L211 958ZM76 739L76 278C76 91 166-13 327-13C489-13 579 91 579 278L579 739L505 739L505 278C505 132 444 55 327 55C211 55 150 132 150 278L150 739Z"  horiz-adv-x="655" vert-adv-y="1000"  />

      
      <glyph glyph-name="uni56" unicode="&#x56;" d="M314 0L386 0L692 739L612 739L351 92L91 739L10 739Z"  horiz-adv-x="702" vert-adv-y="1000"  />

      
      <glyph glyph-name="uni57" unicode="&#x57;" d="M221 0L317 0L479 606L643 0L738 0L950 739L874 739L692 96L515 739L445 739L268 96L86 739L10 739Z"  horiz-adv-x="960" vert-adv-y="1000"  />

      
      <glyph glyph-name="uni58" unicode="&#x58;" d="M8 0L95 0L305 316L514 0L601 0L349 378L586 739L500 739L305 443L109 739L22 739L259 378Z"  horiz-adv-x="609" vert-adv-y="1000"  />

      
      <glyph glyph-name="uni59" unicode="&#x59;" d="M258 0L332 0L332 247L590 739L509 739L294 325L84 739L2 739L258 247Z"  horiz-adv-x="592" vert-adv-y="1000"  />

      
      <glyph glyph-name="unidd" unicode="&#xdd;" d="M258 0L332 0L332 247L590 739L509 739L294 325L84 739L2 739L258 247ZM250 792L443 906L409 964L216 848Z"  horiz-adv-x="592" vert-adv-y="1000"  />

      
      <glyph glyph-name="uni0178" unicode="&#x0178;" d="M258 0L332 0L332 247L590 739L509 739L294 325L84 739L2 739L258 247ZM186 805L260 805L260 931L186 931ZM333 805L407 805L407 931L333 931Z"  horiz-adv-x="592" vert-adv-y="1000"  />

      
      <glyph glyph-name="uni5a" unicode="&#x5a;" d="M17 0L474 0L474 67L101 67L463 672L463 739L28 739L28 672L380 672L17 67Z"  horiz-adv-x="480" vert-adv-y="1000"  />

      
      <glyph glyph-name="uni017D" unicode="&#x017D;" d="M17 0L474 0L474 67L101 67L463 672L463 739L28 739L28 672L380 672L17 67ZM72 931L215 805L281 805L426 931L335 931L247 857L161 931Z"  horiz-adv-x="480" vert-adv-y="1000"  />

      
      <glyph glyph-name="uni61" unicode="&#x61;" d="M42 272C42 108 167-13 336-13C429-13 488 18 546 96L546 0L620 0L620 547L546 547L546 450C491 527 426 560 330 560C166 560 42 436 42 272ZM117 275C117 395 212 492 329 492C453 492 546 399 546 275C546 151 454 55 335 55C214 55 117 152 117 275Z"  horiz-adv-x="683" vert-adv-y="1000"  />

      
      <glyph glyph-name="unie1" unicode="&#xe1;" d="M305 610L498 724L464 782L271 666ZM42 272C42 108 167-13 336-13C429-13 488 18 546 96L546 0L620 0L620 547L546 547L546 450C491 527 426 560 330 560C166 560 42 436 42 272ZM117 275C117 395 212 492 329 492C453 492 546 399 546 275C546 151 454 55 335 55C214 55 117 152 117 275Z"  horiz-adv-x="683" vert-adv-y="1000"  />

      
      <glyph glyph-name="unie2" unicode="&#xe2;" d="M174 623L265 623L353 697L439 623L528 623L385 749L319 749ZM42 272C42 108 167-13 336-13C429-13 488 18 546 96L546 0L620 0L620 547L546 547L546 450C491 527 426 560 330 560C166 560 42 436 42 272ZM117 275C117 395 212 492 329 492C453 492 546 399 546 275C546 151 454 55 335 55C214 55 117 152 117 275Z"  horiz-adv-x="683" vert-adv-y="1000"  />

      
      <glyph glyph-name="unib4" unicode="&#xb4;" d="M108 610L301 724L267 782L74 666Z"  horiz-adv-x="375" vert-adv-y="1000"  />

      
      <glyph glyph-name="uni0301" unicode="&#x0301;" d="M-374 610L-181 724L-215 782L-408 666Z"   vert-adv-y="1000"  />

      
      <glyph glyph-name="unie4" unicode="&#xe4;" d="M241 623L315 623L315 749L241 749ZM388 623L462 623L462 749L388 749ZM42 272C42 108 167-13 336-13C429-13 488 18 546 96L546 0L620 0L620 547L546 547L546 450C491 527 426 560 330 560C166 560 42 436 42 272ZM117 275C117 395 212 492 329 492C453 492 546 399 546 275C546 151 454 55 335 55C214 55 117 152 117 275Z"  horiz-adv-x="683" vert-adv-y="1000"  />

      
      <glyph glyph-name="unie6" unicode="&#xe6;" d="M548 0L619 0L619 92C679 22 752-13 839-13C960-13 1067 64 1105 178L1028 178C997 103 923 55 839 55C726 55 633 137 623 247L1116 247C1118 261 1119 274 1119 288C1119 444 998 560 834 560C745 560 678 526 619 452L619 547L548 547L548 452C494 526 426 560 330 560C166 560 42 436 42 272C42 110 167-13 331-13C422-13 486 18 548 92ZM333 55C212 55 118 151 118 274C118 397 210 492 331 492C458 492 550 402 550 277C550 151 456 55 333 55ZM626 314C642 420 728 492 836 492C943 492 1026 422 1046 314Z"  horiz-adv-x="1157" vert-adv-y="1000"  />

      
      <glyph glyph-name="uni0410" unicode="&#x0410;" d="M11 0L89 0L197 249L541 249L648 0L729 0L411 739L328 739ZM225 316L370 655L512 316Z"  horiz-adv-x="740" vert-adv-y="1000"  />

      
      <glyph glyph-name="uni0411" unicode="&#x0411;" d="M150 67L150 365L283 365C389 365 480 348 480 219C480 71 366 67 252 67ZM76 0L277 0C431 0 555 40 555 220C555 294 529 353 483 387C438 420 385 432 289 432L150 432L150 672L509 672L509 739L76 739Z"  horiz-adv-x="585" vert-adv-y="1000"  />

      
      <glyph glyph-name="uni0412" unicode="&#x0412;" d="M76 0L259 0C456 0 544 66 544 212C544 303 506 358 420 394C476 426 502 473 502 547C502 677 420 739 249 739L76 739ZM150 67L150 354L289 354C402 354 469 300 469 208C469 109 404 67 251 67ZM150 421L150 672L239 672C376 672 427 638 427 546C427 460 384 421 291 421Z"  horiz-adv-x="574" vert-adv-y="1000"  />

      
      <glyph glyph-name="uni0413" unicode="&#x0413;" d="M76 0L150 0L150 672L437 672L437 739L76 739Z"  horiz-adv-x="444" vert-adv-y="1000"  />

      
      <glyph glyph-name="uni0414" unicode="&#x0414;" d="M18-136L70-136L98 0L750 0L778-136L830-136L830 67L754 67L466 739L382 739L94 67L18 67ZM173 67L424 655L675 67Z"  horiz-adv-x="848" vert-adv-y="1000"  />

      
      <glyph glyph-name="uni0415" unicode="&#x0415;" d="M76 0L480 0L480 67L150 67L150 340L469 340L469 407L150 407L150 672L480 672L480 739L76 739Z"  horiz-adv-x="536" vert-adv-y="1000"  />

      
      <glyph glyph-name="uni0401" unicode="&#x0401;" d="M76 0L480 0L480 67L150 67L150 340L469 340L469 407L150 407L150 672L480 672L480 739L76 739ZM168 805L242 805L242 931L168 931ZM315 805L389 805L389 931L315 931Z"  horiz-adv-x="536" vert-adv-y="1000"  />

      
      <glyph glyph-name="uni0416" unicode="&#x0416;" d="M6 0L99 0L378 350L378 0L452 0L452 350L731 0L824 0L525 373L824 739L732 739L452 394L452 739L378 739L378 394L98 739L6 739L305 373Z"  horiz-adv-x="830" vert-adv-y="1000"  />

      
      <glyph glyph-name="uni0417" unicode="&#x0417;" d="M18 213C18 89 124-13 251-13C379-13 484 88 484 211C484 301 413 389 328 406C399 422 450 486 450 558C450 665 359 752 249 752C139 752 48 663 48 556L125 556C125 626 181 683 249 683C317 683 373 626 373 556C373 478 313 434 208 434L208 367C332 367 405 310 405 213C405 126 336 57 251 57C166 57 97 126 97 213Z"  horiz-adv-x="518" vert-adv-y="1000"  />

      
      <glyph glyph-name="uni0418" unicode="&#x0418;" d="M76 0L150 0L590 629L590 0L664 0L664 739L590 739L150 110L150 739L76 739Z"  horiz-adv-x="740" vert-adv-y="1000"  />

      
      <glyph glyph-name="uni0419" unicode="&#x0419;" d="M203 931C218 842 275 796 370 796C465 796 522 842 537 931L462 931C462 871 432 842 370 842C308 842 278 871 278 931ZM76 0L150 0L590 629L590 0L664 0L664 739L590 739L150 110L150 739L76 739Z"  horiz-adv-x="740" vert-adv-y="1000"  />

      
      <glyph glyph-name="uni041A" unicode="&#x041A;" d="M76 0L150 0L150 344L485 0L585 0L220 373L585 739L487 739L150 400L150 739L76 739Z"  horiz-adv-x="591" vert-adv-y="1000"  />

      
      <glyph glyph-name="uni041B" unicode="&#x041B;" d="M11 0L91 0L370 655L649 0L729 0L411 739L329 739Z"  horiz-adv-x="740" vert-adv-y="1000"  />

      
      <glyph glyph-name="uni041C" unicode="&#x041C;" d="M76 0L150 0L150 658L427 0L491 0L769 658L769 0L843 0L843 739L728 739L460 110L191 739L76 739Z"  horiz-adv-x="919" vert-adv-y="1000"  />

      
      <glyph glyph-name="uni041D" unicode="&#x041D;" d="M76 0L150 0L150 347L533 347L533 0L607 0L607 739L533 739L533 414L150 414L150 739L76 739Z"  horiz-adv-x="683" vert-adv-y="1000"  />

      
      <glyph glyph-name="uni041E" unicode="&#x041E;" d="M44 369C44 160 221-13 435-13C649-13 825 159 825 369C825 577 650 752 440 752C220 752 44 582 44 369ZM119 369C119 539 262 684 431 684C608 684 750 543 750 368C750 197 607 55 435 55C262 55 119 197 119 369Z"  horiz-adv-x="869" vert-adv-y="1000"  />

      
      <glyph glyph-name="uni041F" unicode="&#x041F;" d="M76 0L150 0L150 672L519 672L519 0L593 0L593 739L76 739Z"  horiz-adv-x="669" vert-adv-y="1000"  />

      
      <glyph glyph-name="uni0420" unicode="&#x0420;" d="M76 0L150 0L150 299L292 299C391 299 445 312 491 345C539 380 565 440 565 515C565 599 533 666 477 700C431 728 375 739 280 739L76 739ZM150 366L150 672L255 672C373 672 490 669 490 516C490 384 396 366 287 366Z"  horiz-adv-x="592" vert-adv-y="1000"  />

      
      <glyph glyph-name="uni0421" unicode="&#x0421;" d="M688 194C615 98 535 55 431 55C259 55 119 196 119 370C119 548 253 684 430 684C542 684 626 639 684 547L767 547C710 674 580 752 427 752C207 752 44 588 44 367C44 151 211-13 432-13C582-13 696 57 770 194Z"  horiz-adv-x="813" vert-adv-y="1000"  />

      
      <glyph glyph-name="uni0422" unicode="&#x0422;" d="M176 0L250 0L250 672L419 672L419 739L7 739L7 672L176 672Z"  horiz-adv-x="426" vert-adv-y="1000"  />

      
      <glyph glyph-name="uni0423" unicode="&#x0423;" d="M159 0L237 0L554 739L476 739L282 287L88 739L10 739L243 196Z"  horiz-adv-x="564" vert-adv-y="1000"  />

      
      <glyph glyph-name="uni0424" unicode="&#x0424;" d="M369 0L443 0L443 54C641 69 776 199 776 376C776 547 635 684 443 699L443 739L369 739L369 699C177 684 36 547 36 376C36 199 171 69 369 54ZM369 122C214 136 111 238 111 376C111 511 218 617 369 631ZM443 631C594 617 701 511 701 376C701 238 598 136 443 122Z"  horiz-adv-x="812" vert-adv-y="1000"  />

      
      <glyph glyph-name="uni0425" unicode="&#x0425;" d="M8 0L95 0L305 316L514 0L601 0L349 378L586 739L500 739L305 443L109 739L22 739L259 378Z"  horiz-adv-x="609" vert-adv-y="1000"  />

      
      <glyph glyph-name="uni0426" unicode="&#x0426;" d="M76 0L600 0L628-136L680-136L680 67L583 67L583 739L509 739L509 67L150 67L150 739L76 739Z"  horiz-adv-x="706" vert-adv-y="1000"  />

      
      <glyph glyph-name="uni0427" unicode="&#x0427;" d="M445 0L519 0L519 739L445 739L445 368C383 360 347 357 310 357C171 357 118 399 118 510L118 739L43 739L43 510C43 357 123 290 305 290C347 290 382 293 445 301Z"  horiz-adv-x="595" vert-adv-y="1000"  />

      
      <glyph glyph-name="uni0428" unicode="&#x0428;" d="M76 0L820 0L820 739L746 739L746 67L485 67L485 739L411 739L411 67L150 67L150 739L76 739Z"  horiz-adv-x="896" vert-adv-y="1000"  />

      
      <glyph glyph-name="uni0429" unicode="&#x0429;" d="M76 0L837 0L865-136L917-136L917 67L820 67L820 739L746 739L746 67L485 67L485 739L411 739L411 67L150 67L150 739L76 739Z"  horiz-adv-x="943" vert-adv-y="1000"  />

      
      <glyph glyph-name="uni042A" unicode="&#x042A;" d="M317 67L317 358L454 358C558 358 657 343 657 215C657 67 534 67 422 67ZM243 0L447 0C599 0 732 34 732 216C732 288 705 347 658 381C613 413 559 425 459 425L317 425L317 739L7 739L7 672L243 672Z"  horiz-adv-x="757" vert-adv-y="1000"  />

      
      <glyph glyph-name="uni042B" unicode="&#x042B;" d="M76 0L280 0C476 0 565 68 565 216C565 359 479 425 292 425L150 425L150 739L76 739ZM150 67L150 358L287 358C430 358 490 315 490 215C490 67 367 67 255 67ZM661 0L735 0L735 739L661 739Z"  horiz-adv-x="811" vert-adv-y="1000"  />

      
      <glyph glyph-name="uni042C" unicode="&#x042C;" d="M76 0L280 0C432 0 565 34 565 216C565 288 538 347 491 381C446 413 392 425 292 425L150 425L150 739L76 739ZM150 67L150 358L287 358C391 358 490 343 490 215C490 67 367 67 255 67Z"  horiz-adv-x="590" vert-adv-y="1000"  />

      
      <glyph glyph-name="uni042D" unicode="&#x042D;" d="M43 194C117 57 231-13 381-13C602-13 769 151 769 367C769 588 606 752 386 752C233 752 103 674 46 547L129 547C187 639 271 684 383 684C544 684 673 570 692 410L224 410L224 343L693 343C679 180 543 55 382 55C279 55 196 100 125 194Z"  horiz-adv-x="813" vert-adv-y="1000"  />

      
      <glyph glyph-name="uni042E" unicode="&#x042E;" d="M327 372C327 546 474 691 651 691C829 691 974 545 974 367C974 191 829 48 651 48C471 48 327 192 327 372ZM76 0L150 0L150 347L253 347C267 137 436-19 651-19C871-19 1049 155 1049 369C1049 584 871 758 651 758C447 758 275 609 254 414L150 414L150 739L76 739Z"  horiz-adv-x="1093" vert-adv-y="1000"  />

      
      <glyph glyph-name="uni042F" unicode="&#x042F;" d="M457 376L324 376C219 376 127 393 127 521C127 670 240 672 355 672L457 672ZM25 0L112 0L317 309L457 309L457 0L531 0L531 739L330 739C176 739 52 701 52 520C52 397 117 329 234 314Z"  horiz-adv-x="607" vert-adv-y="1000"  />

      
      <glyph glyph-name="uni0490" unicode="&#x0490;" d="M76 0L150 0L150 672L437 672L437 849L386 849L370 739L76 739Z"  horiz-adv-x="444" vert-adv-y="1000"  />

      
      <glyph glyph-name="uni0402" unicode="&#x0402;" d="M176 0L250 0L250 373L392 373C511 373 570 323 570 224C570 95 518 54 352 54L352-13C568-13 645 50 645 224C645 366 560 440 397 440L250 440L250 672L439 672L439 739L7 739L7 672L176 672Z"  horiz-adv-x="670" vert-adv-y="1000"  />

      
      <glyph glyph-name="uni0403" unicode="&#x0403;" d="M194 792L387 906L353 964L160 848ZM76 0L150 0L150 672L437 672L437 739L76 739Z"  horiz-adv-x="444" vert-adv-y="1000"  />

      
      <glyph glyph-name="uni0404" unicode="&#x0404;" d="M121 410C140 570 269 684 430 684C542 684 626 639 684 547L767 547C710 674 580 752 427 752C207 752 44 588 44 367C44 151 211-13 432-13C582-13 696 57 770 194L688 194C617 100 534 55 431 55C270 55 134 180 120 343L589 343L589 410Z"  horiz-adv-x="813" vert-adv-y="1000"  />

      
      <glyph glyph-name="uni0405" unicode="&#x0405;" d="M22 207C29 74 120-13 253-13C381-13 476 80 476 206C476 319 419 377 265 423C160 454 121 490 121 555C121 630 175 684 249 684C324 684 376 632 381 552L458 552C455 672 372 752 251 752C132 752 46 669 46 553C46 449 97 397 236 356C358 320 401 280 401 202C401 117 340 55 255 55C168 55 111 111 101 207Z"  horiz-adv-x="498" vert-adv-y="1000"  />

      
      <glyph glyph-name="uni0406" unicode="&#x0406;" d="M76 0L150 0L150 739L76 739Z"  horiz-adv-x="226" vert-adv-y="1000"  />

      
      <glyph glyph-name="uni0407" unicode="&#x0407;" d="M77 0L151 0L151 739L77 739ZM3 805L77 805L77 931L3 931ZM150 805L224 805L224 931L150 931Z"  horiz-adv-x="226" vert-adv-y="1000"  />

      
      <glyph glyph-name="uni0408" unicode="&#x0408;" d="M11 175C17 57 91-14 209-14C337-14 406 72 406 231L406 739L332 739L332 231C332 114 290 54 210 54C137 54 89 100 84 175Z"  horiz-adv-x="482" vert-adv-y="1000"  />

      
      <glyph glyph-name="uni0409" unicode="&#x0409;" d="M11 0L99 0L543 644L543 0L747 0C943 0 1032 68 1032 216C1032 359 946 425 759 425L617 425L617 739L522 739ZM617 67L617 358L754 358C897 358 957 315 957 215C957 67 834 67 722 67Z"  horiz-adv-x="1057" vert-adv-y="1000"  />

      
      <glyph glyph-name="uni040A" unicode="&#x040A;" d="M76 0L150 0L150 358L503 358L503 0L707 0C903 0 992 68 992 216C992 359 906 425 719 425L577 425L577 739L503 739L503 425L150 425L150 739L76 739ZM577 67L577 358L714 358C857 358 917 315 917 215C917 67 794 67 682 67Z"  horiz-adv-x="1017" vert-adv-y="1000"  />

      
      <glyph glyph-name="uni040B" unicode="&#x040B;" d="M176 0L250 0L250 371C299 374 333 375 380 375C498 375 559 324 559 226L559 0L633 0L633 226C633 366 546 442 385 442C337 442 299 440 250 438L250 672L439 672L439 739L7 739L7 672L176 672Z"  horiz-adv-x="705" vert-adv-y="1000"  />

      
      <glyph glyph-name="uni040C" unicode="&#x040C;" d="M248 792L441 906L407 964L214 848ZM76 0L150 0L150 344L485 0L585 0L220 373L585 739L487 739L150 400L150 739L76 739Z"  horiz-adv-x="591" vert-adv-y="1000"  />

      
      <glyph glyph-name="uni040E" unicode="&#x040E;" d="M115 931C130 842 187 796 282 796C377 796 434 842 449 931L374 931C374 871 344 842 282 842C220 842 190 871 190 931ZM159 0L237 0L554 739L476 739L282 287L88 739L10 739L243 196Z"  horiz-adv-x="564" vert-adv-y="1000"  />

      
      <glyph glyph-name="uni0430" unicode="&#x0430;" d="M42 272C42 108 167-13 336-13C429-13 488 18 546 96L546 0L620 0L620 547L546 547L546 450C491 527 426 560 330 560C166 560 42 436 42 272ZM117 275C117 395 212 492 329 492C453 492 546 399 546 275C546 151 454 55 335 55C214 55 117 152 117 275Z"  horiz-adv-x="683" vert-adv-y="1000"  />

      
      <glyph glyph-name="uni0431" unicode="&#x0431;" d="M113 418C117 590 199 684 361 699L588 720L588 788L355 768C145 750 49 620 49 352L49 322C49 104 150-13 337-13C502-13 626 110 626 274C626 434 506 560 355 560C243 560 153 506 116 417ZM335 55C213 55 123 148 123 276C123 398 215 492 336 492C459 492 551 399 551 276C551 150 458 55 335 55Z"  horiz-adv-x="668" vert-adv-y="1000"  />

      
      <glyph glyph-name="uni0432" unicode="&#x0432;" d="M63 0L297 0C415 0 499 68 499 163C499 225 464 269 397 294C439 312 471 359 471 403C471 493 400 547 282 547L63 547ZM137 321L137 480L270 480C356 480 400 454 400 403C400 351 353 321 270 321ZM137 67L137 254L278 254C375 254 424 224 424 163C424 101 372 67 278 67Z"  horiz-adv-x="535" vert-adv-y="1000"  />

      
      <glyph glyph-name="uni0433" unicode="&#x0433;" d="M63 0L137 0L137 480L343 480L343 547L63 547Z"  horiz-adv-x="355" vert-adv-y="1000"  />

      
      <glyph glyph-name="uni0434" unicode="&#x0434;" d="M17-126L68-126L95 0L575 0L602-126L653-126L653 67L582 67L377 547L293 547L88 67L17 67ZM166 67L335 463L504 67Z"  horiz-adv-x="670" vert-adv-y="1000"  />

      
      <glyph glyph-name="uni0435" unicode="&#x0435;" d="M520 180C489 105 412 55 329 55C216 55 122 141 116 249L610 249C612 259 614 270 614 280C614 432 482 560 325 560C167 560 42 435 42 276C42 114 169-13 331-13C450-13 557 65 597 180ZM118 316C138 421 221 492 325 492C431 492 512 425 537 316Z"  horiz-adv-x="650" vert-adv-y="1000"  />

      
      <glyph glyph-name="uni0451" unicode="&#x0451;" d="M219 623L293 623L293 749L219 749ZM366 623L440 623L440 749L366 749ZM520 180C489 105 412 55 329 55C216 55 122 141 116 249L610 249C612 259 614 270 614 280C614 432 482 560 325 560C167 560 42 435 42 276C42 114 169-13 331-13C450-13 557 65 597 180ZM118 316C138 421 221 492 325 492C431 492 512 425 537 316Z"  horiz-adv-x="650" vert-adv-y="1000"  />

      
      <glyph glyph-name="uni0436" unicode="&#x0436;" d="M5 0L98 0L314 262L314 0L388 0L388 262L604 0L697 0L463 281L697 547L604 547L388 299L388 547L314 547L314 299L98 547L5 547L239 281Z"  horiz-adv-x="702" vert-adv-y="1000"  />

      
      <glyph glyph-name="uni0437" unicode="&#x0437;" d="M36 158C40 61 128-13 240-13C354-13 444 63 444 158C444 227 406 274 336 294L336 297C387 315 415 355 415 409C415 494 338 560 239 560C142 560 67 495 63 409L138 409C142 457 184 491 238 491C294 491 340 454 340 409C340 351 289 319 196 319L196 258C304 258 369 221 369 158C369 101 311 55 239 55C169 55 115 98 111 158Z"  horiz-adv-x="480" vert-adv-y="1000"  />

      
      <glyph glyph-name="uni0438" unicode="&#x0438;" d="M63 0L137 0L470 442L470 0L544 0L544 547L470 547L137 105L137 547L63 547Z"  horiz-adv-x="607" vert-adv-y="1000"  />

      
      <glyph glyph-name="uni0439" unicode="&#x0439;" d="M151 746C165 661 218 616 303 616C388 616 441 661 455 746L381 746C381 691 354 662 303 662C252 662 225 691 225 746ZM63 0L137 0L470 442L470 0L544 0L544 547L470 547L137 105L137 547L63 547Z"  horiz-adv-x="607" vert-adv-y="1000"  />

      
      <glyph glyph-name="uni043A" unicode="&#x043A;" d="M63 0L137 0L137 258L386 0L483 0L210 282L483 547L387 547L137 303L137 547L63 547Z"  horiz-adv-x="488" vert-adv-y="1000"  />

      
      <glyph glyph-name="uni043B" unicode="&#x043B;" d="M5 0L83 0L282 463L480 0L558 0L323 547L240 547Z"  horiz-adv-x="563" vert-adv-y="1000"  />

      
      <glyph glyph-name="uni043C" unicode="&#x043C;" d="M63 0L137 0L137 466L337 0L401 0L601 466L601 0L675 0L675 547L560 547L369 103L178 547L63 547Z"  horiz-adv-x="738" vert-adv-y="1000"  />

      
      <glyph glyph-name="uni043D" unicode="&#x043D;" d="M63 0L137 0L137 245L465 245L465 0L539 0L539 547L465 547L465 312L137 312L137 547L63 547Z"  horiz-adv-x="602" vert-adv-y="1000"  />

      
      <glyph glyph-name="uni043E" unicode="&#x043E;" d="M42 273C42 109 167-13 334-13C495-13 613 108 613 272C613 437 493 560 332 560C164 560 42 439 42 273ZM332 55C208 55 117 147 117 272C117 398 206 492 326 492C450 492 538 400 538 271C538 145 452 55 332 55Z"  horiz-adv-x="655" vert-adv-y="1000"  />

      
      <glyph glyph-name="uni043F" unicode="&#x043F;" d="M63 0L137 0L137 480L460 480L460 0L534 0L534 547L63 547Z"  horiz-adv-x="597" vert-adv-y="1000"  />

      
      <glyph glyph-name="uni0440" unicode="&#x0440;" d="M63-192L137-192L137 94C185 24 259-13 350-13C514-13 640 112 640 273C640 436 515 560 352 560C258 560 183 523 137 453L137 547L63 547ZM349 55C226 55 132 150 132 273C132 396 226 492 346 492C473 492 565 400 565 271C565 148 472 55 349 55Z"  horiz-adv-x="682" vert-adv-y="1000"  />

      
      <glyph glyph-name="uni0441" unicode="&#x0441;" d="M524 161C467 85 415 55 337 55C214 55 117 151 117 273C117 396 212 492 334 492C415 492 482 453 524 381L607 381C563 491 459 560 335 560C171 560 42 434 42 275C42 112 172-13 340-13C459-13 545 43 608 161Z"  horiz-adv-x="647" vert-adv-y="1000"  />

      
      <glyph glyph-name="uni0442" unicode="&#x0442;" d="M156 0L230 0L230 480L372 480L372 547L12 547L12 480L156 480Z"  horiz-adv-x="384" vert-adv-y="1000"  />

      
      <glyph glyph-name="uni0443" unicode="&#x0443;" d="M132-192L211-192L527 547L448 547L263 111L90 547L9 547L221 18Z"  horiz-adv-x="536" vert-adv-y="1000"  />

      
      <glyph glyph-name="uni0444" unicode="&#x0444;" d="M355-192L429-192L429-12C642-2 744 90 744 273C744 456 641 549 429 559L429 739L355 739L355 559C143 549 40 456 40 273C40 90 142-2 355-12ZM355 56C189 65 115 132 115 273C115 415 190 482 355 491ZM429 491C594 482 669 415 669 273C669 132 595 65 429 56Z"  horiz-adv-x="784" vert-adv-y="1000"  />

      
      <glyph glyph-name="uni0445" unicode="&#x0445;" d="M8 0L92 0L240 219L387 0L472 0L281 279L472 547L387 547L240 336L92 547L8 547L198 279Z"  horiz-adv-x="480" vert-adv-y="1000"  />

      
      <glyph glyph-name="uni0446" unicode="&#x0446;" d="M63 0L535 0L562-126L613-126L613 67L524 67L524 547L450 547L450 67L137 67L137 547L63 547Z"  horiz-adv-x="622" vert-adv-y="1000"  />

      
      <glyph glyph-name="uni0447" unicode="&#x0447;" d="M386 0L460 0L460 547L386 547L386 284C335 277 309 275 273 275C151 275 119 297 119 381L119 547L45 547L45 381C45 274 109 208 214 208C273 208 330 211 386 218Z"  horiz-adv-x="523" vert-adv-y="1000"  />

      
      <glyph glyph-name="uni0448" unicode="&#x0448;" d="M63 0L739 0L739 547L665 547L665 67L438 67L438 547L364 547L364 67L137 67L137 547L63 547Z"  horiz-adv-x="802" vert-adv-y="1000"  />

      
      <glyph glyph-name="uni0449" unicode="&#x0449;" d="M63 0L750 0L777-126L828-126L828 67L739 67L739 547L665 547L665 67L438 67L438 547L364 547L364 67L137 67L137 547L63 547Z"  horiz-adv-x="837" vert-adv-y="1000"  />

      
      <glyph glyph-name="uni044A" unicode="&#x044A;" d="M185 0L420 0C531 0 608 67 608 164C608 261 531 328 420 328L259 328L259 547L12 547L12 480L185 480ZM259 67L259 261L401 261C489 261 533 229 533 164C533 99 489 67 401 67Z"  horiz-adv-x="631" vert-adv-y="1000"  />

      
      <glyph glyph-name="uni044B" unicode="&#x044B;" d="M137 67L137 261L269 261C357 261 401 229 401 164C401 99 357 67 269 67ZM63 0L288 0C399 0 476 67 476 164C476 261 399 328 288 328L137 328L137 547L63 547ZM542 0L616 0L616 547L542 547Z"  horiz-adv-x="679" vert-adv-y="1000"  />

      
      <glyph glyph-name="uni044C" unicode="&#x044C;" d="M137 67L137 261L279 261C367 261 411 229 411 164C411 99 367 67 279 67ZM63 0L298 0C409 0 486 67 486 164C486 261 409 328 298 328L137 328L137 547L63 547Z"  horiz-adv-x="509" vert-adv-y="1000"  />

      
      <glyph glyph-name="uni044D" unicode="&#x044D;" d="M39 155C95 46 188-13 304-13C472-13 602 112 602 275C602 434 473 560 309 560C187 560 87 496 39 387L124 387C167 456 230 492 310 492C418 492 507 416 524 310L199 310L199 243L525 243C511 135 419 55 307 55C233 55 166 91 124 155Z"  horiz-adv-x="644" vert-adv-y="1000"  />

      
      <glyph glyph-name="uni044E" unicode="&#x044E;" d="M528 51C398 51 306 144 306 275C306 402 399 496 524 496C648 496 739 400 739 271C739 143 651 51 528 51ZM63 0L137 0L137 245L232 245C247 90 369-17 530-17C694-17 815 106 815 272C815 441 692 564 524 564C371 564 249 458 232 312L137 312L137 547L63 547Z"  horiz-adv-x="857" vert-adv-y="1000"  />

      
      <glyph glyph-name="uni044F" unicode="&#x044F;" d="M368 288L241 288C153 288 109 320 109 384C109 448 153 480 241 480L368 480ZM9 0L93 0L247 221L368 221L368 0L442 0L442 547L222 547C111 547 34 480 34 384C34 306 85 246 167 227Z"  horiz-adv-x="505" vert-adv-y="1000"  />

      
      <glyph glyph-name="uni0491" unicode="&#x0491;" d="M63 0L137 0L137 480L343 480L343 642L294 642L278 547L63 547Z"  horiz-adv-x="355" vert-adv-y="1000"  />

      
      <glyph glyph-name="uni0452" unicode="&#x0452;" d="M135 0L209 0L209 220C209 339 269 412 366 412C465 412 525 337 525 214L525 0C525-70 482-114 414-114L414-181C521-181 599-104 599 0L599 214C599 384 517 480 372 480C301 480 248 452 209 396L209 574L396 574L396 641L209 641L209 739L135 739L135 641L12 641L12 574L135 574Z"  horiz-adv-x="662" vert-adv-y="1000"  />

      
      <glyph glyph-name="uni0453" unicode="&#x0453;" d="M141 610L334 724L300 782L107 666ZM63 0L137 0L137 480L343 480L343 547L63 547Z"  horiz-adv-x="355" vert-adv-y="1000"  />

      
      <glyph glyph-name="uni0454" unicode="&#x0454;" d="M120 310C137 416 226 492 334 492C414 492 477 456 520 387L605 387C557 496 457 560 335 560C171 560 42 434 42 275C42 112 172-13 340-13C456-13 549 46 605 155L520 155C478 91 411 55 337 55C225 55 133 135 119 243L445 243L445 310Z"  horiz-adv-x="644" vert-adv-y="1000"  />

      
      <glyph glyph-name="uni0455" unicode="&#x0455;" d="M18 161C19 55 88-13 194-13C293-13 361 57 361 157C361 226 315 281 234 309C152 338 113 374 113 421C113 463 146 492 192 492C240 492 268 464 272 412L347 412C344 500 281 560 193 560C101 560 38 498 38 406C38 334 74 296 180 255C264 223 286 201 286 150C286 95 248 55 194 55C132 55 95 93 91 161Z"  horiz-adv-x="388" vert-adv-y="1000"  />

      
      <glyph glyph-name="uni0456" unicode="&#x0456;" d="M63 0L137 0L137 547L63 547ZM63 613L137 613L137 739L63 739Z"  horiz-adv-x="200" vert-adv-y="1000"  />

      
      <glyph glyph-name="uni0457" unicode="&#x0457;" d="M64 0L138 0L138 547L64 547ZM-10 623L64 623L64 749L-10 749ZM137 623L211 623L211 749L137 749Z"  horiz-adv-x="200" vert-adv-y="1000"  />

      
      <glyph glyph-name="uni0458" unicode="&#x0458;" d="M-45-192C1-190 34-180 65-158C122-118 140-71 140 38L140 547L66 547L66 38C66-76 38-116-45-121ZM66 613L140 613L140 739L66 739Z"  horiz-adv-x="203" vert-adv-y="1000"  />

      
      <glyph glyph-name="uni0459" unicode="&#x0459;" d="M5 0L92 0L404 452L404 0L639 0C750 0 827 67 827 164C827 261 750 328 639 328L478 328L478 547L383 547ZM478 67L478 261L620 261C708 261 752 229 752 164C752 99 708 67 620 67Z"  horiz-adv-x="850" vert-adv-y="1000"  />

      
      <glyph glyph-name="uni045A" unicode="&#x045A;" d="M63 0L137 0L137 261L435 261L435 0L670 0C781 0 858 67 858 164C858 261 781 328 670 328L509 328L509 547L435 547L435 328L137 328L137 547L63 547ZM509 67L509 261L651 261C739 261 783 229 783 164C783 99 739 67 651 67Z"  horiz-adv-x="881" vert-adv-y="1000"  />

      
      <glyph glyph-name="uni045B" unicode="&#x045B;" d="M12 641L12 574L134 574L134 0L208 0L208 220C208 341 270 412 375 412C483 412 544 340 544 214L544 0L618 0L618 214C618 386 535 480 381 480C307 480 245 450 208 396L208 574L396 574L396 641L208 641L208 739L134 739L134 641Z"  horiz-adv-x="662" vert-adv-y="1000"  />

      
      <glyph glyph-name="uni045C" unicode="&#x045C;" d="M198 610L391 724L357 782L164 666ZM63 0L137 0L137 258L386 0L483 0L210 282L483 547L387 547L137 303L137 547L63 547Z"  horiz-adv-x="488" vert-adv-y="1000"  />

      
      <glyph glyph-name="uni045E" unicode="&#x045E;" d="M116 746C130 661 183 616 268 616C353 616 406 661 420 746L346 746C346 691 319 662 268 662C217 662 190 691 190 746ZM132-192L211-192L527 547L448 547L263 111L90 547L9 547L221 18Z"  horiz-adv-x="536" vert-adv-y="1000"  />

      
      <glyph glyph-name="uni040F" unicode="&#x040F;" d="M76 0L293 0L308-136L360-136L375 0L592 0L592 739L518 739L518 67L150 67L150 739L76 739Z"  horiz-adv-x="668" vert-adv-y="1000"  />

      
      <glyph glyph-name="uni0462" unicode="&#x0462;" d="M261 67L261 358L394 358C498 358 591 342 591 215C591 69 475 67 363 67ZM187 0L388 0C540 0 666 37 666 216C666 290 640 348 594 381C549 413 495 425 400 425L261 425L261 559L466 559L466 626L261 626L261 739L187 739L187 626L12 626L12 559L187 559Z"  horiz-adv-x="691" vert-adv-y="1000"  />

      
      <glyph glyph-name="uni045F" unicode="&#x045F;" d="M63 0L254 0L269-131L319-131L334 0L525 0L525 547L451 547L451 67L137 67L137 547L63 547Z"  horiz-adv-x="588" vert-adv-y="1000"  />

      
      <glyph glyph-name="uni0463" unicode="&#x0463;" d="M147 0L382 0C493 0 570 67 570 164C570 261 493 328 382 328L221 328L221 480L376 480L376 547L221 547L221 739L147 739L147 547L12 547L12 480L147 480ZM221 67L221 261L363 261C451 261 495 229 495 164C495 99 451 67 363 67Z"  horiz-adv-x="593" vert-adv-y="1000"  />

      
      <glyph glyph-name="uni2116" unicode="&#x2116;" d="M683 593C683 510 752 442 835 442C919 442 988 511 988 594C988 676 919 745 837 745C752 745 683 677 683 593ZM836 505C788 505 750 545 750 594C750 644 787 682 834 682C882 682 921 642 921 593C921 544 884 505 836 505ZM683 316L988 316L988 383L683 383ZM76 0L150 0L150 640L548 0L622 0L622 739L548 739L548 136L176 739L76 739Z"  horiz-adv-x="1053" vert-adv-y="1000"  />

      
      <glyph glyph-name="unie0" unicode="&#xe0;" d="M546 0L620 0L620 547L546 547L546 450C491 527 426 560 330 560C166 560 42 436 42 272C42 108 167-13 336-13C429-13 488 18 546 96ZM335 55C214 55 117 152 117 275C117 395 212 492 329 492C453 492 546 399 546 275C546 151 454 55 335 55ZM203 718L400 610L433 666L235 776Z"  horiz-adv-x="683" vert-adv-y="1000"  />

      
      <glyph glyph-name="uni26" unicode="&#x26;" d="M57 213C57 84 157-13 290-13C389-13 455 37 513 153L684-13L735 38L548 220L684 481L602 481L494 273L354 411C429 449 498 484 498 583C498 680 422 752 320 752C222 752 145 680 145 588C145 536 165 498 227 433C106 371 57 307 57 213ZM300 464C241 518 219 552 219 590C219 643 264 685 322 685C383 685 428 644 428 589C428 537 388 498 300 464ZM130 205C130 280 170 327 280 380L458 206C404 96 356 54 285 54C198 54 130 121 130 205Z"  horiz-adv-x="757" vert-adv-y="1000"  />

      
      <glyph glyph-name="unie5" unicode="&#xe5;" d="M259 701C259 651 300 610 351 610C402 610 443 651 443 702C443 752 402 794 352 794C300 794 259 753 259 701ZM300 701C300 730 323 753 350 753C379 753 402 730 402 701C402 674 379 651 351 651C323 651 300 673 300 701ZM42 272C42 108 167-13 336-13C429-13 488 18 546 96L546 0L620 0L620 547L546 547L546 450C491 527 426 560 330 560C166 560 42 436 42 272ZM117 275C117 395 212 492 329 492C453 492 546 399 546 275C546 151 454 55 335 55C214 55 117 152 117 275Z"  horiz-adv-x="683" vert-adv-y="1000"  />

      
      <glyph glyph-name="uni5e" unicode="&#x5e;" d="M18 180L99 180L304 660L507 180L588 180L346 739L261 739Z"  horiz-adv-x="606" vert-adv-y="1000"  />

      
      <glyph glyph-name="uni7e" unicode="&#x7e;" d="M93 210C131 274 160 300 194 300C212 300 220 298 267 279L322 257C365 238 392 231 415 231C466 231 521 275 555 343L511 390C478 333 449 308 416 308C396 308 380 313 336 331L271 358C240 371 215 377 194 377C139 377 100 344 51 257Z"  horiz-adv-x="606" vert-adv-y="1000"  />

      
      <glyph glyph-name="uni2a" unicode="&#x2a;" d="M112 496L160 468L213 559L266 468L313 495L258 585L360 583L360 635L257 632L314 724L267 752L215 662L162 752L113 724L169 632L64 635L64 583L169 585Z"  horiz-adv-x="425" vert-adv-y="1000"  />

      
      <glyph glyph-name="uni40" unicode="&#x40;" d="M663 138C600 72 519 37 429 37C245 37 99 184 99 368C99 551 247 701 428 701C596 701 723 586 723 434C723 321 632 191 552 191C532 191 519 202 519 219C519 233 522 246 539 296L632 574L571 574L554 524C533 572 498 593 439 593C315 593 195 445 195 292C195 205 252 144 333 144C380 144 415 159 452 196C468 154 496 136 542 136C662 136 778 282 778 434C778 616 625 757 428 757C214 757 42 584 42 367C42 152 212-18 427-18C537-18 643 27 707 101ZM347 202C299 202 267 239 267 294C267 415 354 539 439 539C486 539 516 509 516 462C516 346 423 202 347 202Z"  horiz-adv-x="820" vert-adv-y="1000"  />

      
      <glyph glyph-name="unie3" unicode="&#xe3;" d="M239 633C257 655 276 665 299 665C310 665 325 661 339 655C378 638 392 633 405 633C438 633 480 656 496 682L463 728C442 706 425 697 406 697C397 697 375 703 358 711C325 725 316 728 299 728C263 728 229 710 206 679ZM42 272C42 108 167-13 336-13C429-13 488 18 546 96L546 0L620 0L620 547L546 547L546 450C491 527 426 560 330 560C166 560 42 436 42 272ZM117 275C117 395 212 492 329 492C453 492 546 399 546 275C546 151 454 55 335 55C214 55 117 152 117 275Z"  horiz-adv-x="683" vert-adv-y="1000"  />

      
      <glyph glyph-name="uni62" unicode="&#x62;" d="M63 0L137 0L137 94C183 26 261-13 351-13C516-13 640 110 640 274C640 435 514 560 352 560C260 560 184 522 137 453L137 739L63 739ZM349 55C228 55 132 152 132 273C132 396 226 492 347 492C473 492 565 401 565 275C565 149 472 55 349 55Z"  horiz-adv-x="682" vert-adv-y="1000"  />

      
      <glyph glyph-name="uni5c" unicode="&#x5c;" d="M394 0L464 0L154 739L84 739Z"  horiz-adv-x="605" vert-adv-y="1000"  />

      
      <glyph glyph-name="uni7c" unicode="&#x7c;" d="M304 0L368 0L368 739L304 739Z"  horiz-adv-x="672" vert-adv-y="1000"  />

      
      <glyph glyph-name="uni7b" unicode="&#x7b;" d="M292-59C231-59 214-44 214 12L214 182C214 254 198 280 136 306C203 335 214 352 214 431L214 601C214 653 235 672 292 672L292 739C175 739 137 705 137 600L137 430C137 368 123 352 58 341L58 272C123 260 137 245 137 183L137 13C137-92 174-126 292-126Z"  horiz-adv-x="351" vert-adv-y="1000"  />

      
      <glyph glyph-name="uni7d" unicode="&#x7d;" d="M59 672C120 672 137 657 137 601L137 431C137 359 153 333 215 307C148 278 137 261 137 182L137 12C137-40 116-59 59-59L59-126C176-126 214-92 214 13L214 183C214 245 228 261 293 272L293 341C228 353 214 368 214 430L214 600C214 705 177 739 59 739Z"  horiz-adv-x="351" vert-adv-y="1000"  />

      
      <glyph glyph-name="uni5b" unicode="&#x5b;" d="M313-50C214-6 182 49 182 177L182 448C182 566 215 621 313 664L313 739C189 707 112 602 112 462L112 164C112 12 182-88 313-125Z"  horiz-adv-x="351" vert-adv-y="1000"  />

      
      <glyph glyph-name="uni5d" unicode="&#x5d;" d="M38-125C165-90 239 12 239 153L239 450C239 603 171 702 38 739L38 664C137 620 169 565 169 438L169 166C169 48 136-6 38-50Z"  horiz-adv-x="351" vert-adv-y="1000"  />

      
      <glyph glyph-name="uni02D8" unicode="&#x02D8;" d="M74 743C89 660 135 623 226 623C315 623 363 661 378 743L314 743C307 702 278 681 226 681C174 681 145 702 138 743Z"  horiz-adv-x="453" vert-adv-y="1000"  />

      
      <glyph glyph-name="uniE080" unicode="&#xE080;" d="M74 746C88 661 141 616 226 616C311 616 364 661 378 746L304 746C304 691 277 662 226 662C175 662 148 691 148 746Z"  horiz-adv-x="453" vert-adv-y="1000"  />

      
      <glyph glyph-name="uniE081" unicode="&#xE081;" d="M74 931C89 842 146 796 241 796C336 796 393 842 408 931L333 931C333 871 303 842 241 842C179 842 149 871 149 931Z"  horiz-adv-x="482" vert-adv-y="1000"  />

      
      <glyph glyph-name="unia6" unicode="&#xa6;" d="M304 444L368 444L368 739L304 739ZM304 0L368 0L368 295L304 295Z"  horiz-adv-x="672" vert-adv-y="1000"  />

      
      <glyph glyph-name="uni2022" unicode="&#x2022;" d="M303 118C406 118 488 201 488 303C488 405 406 488 306 488C200 488 118 407 118 303C118 201 201 118 303 118Z"  horiz-adv-x="606" vert-adv-y="1000"  />

      
      <glyph glyph-name="uni63" unicode="&#x63;" d="M524 161C467 85 415 55 337 55C214 55 117 151 117 273C117 396 212 492 334 492C415 492 482 453 524 381L607 381C563 491 459 560 335 560C171 560 42 434 42 275C42 112 172-13 340-13C459-13 545 43 608 161Z"  horiz-adv-x="647" vert-adv-y="1000"  />

      
      <glyph glyph-name="uni02C7" unicode="&#x02C7;" d="M74 749L217 623L283 623L428 749L337 749L249 675L163 749Z"  horiz-adv-x="502" vert-adv-y="1000"  />

      
      <glyph glyph-name="unie7" unicode="&#xe7;" d="M257-151C267-197 298-224 344-224C396-224 433-186 433-131C433-83 402-51 356-51C344-51 337-53 324-58L343-13C461-13 553 47 608 161L524 161C467 85 415 55 337 55C214 55 117 151 117 273C117 396 212 492 334 492C415 492 482 453 524 381L607 381C563 491 459 560 335 560C171 560 42 434 42 275C42 124 152 5 306-11L271-90L301-108C315-90 326-84 343-84C371-84 390-105 390-135C390-162 372-181 345-181C323-181 307-169 301-146Z"  horiz-adv-x="647" vert-adv-y="1000"  />

      
      <glyph glyph-name="unib8" unicode="&#xb8;" d="M74-140C85-187 116-213 162-213C214-213 250-174 250-119C250-72 219-39 174-39C164-39 157-41 141-47L160 0L124 0L89-79L118-96C133-78 144-72 161-72C188-72 207-93 207-124C207-151 189-170 163-170C140-170 124-157 118-135Z"  horiz-adv-x="324" vert-adv-y="1000"  />

      
      <glyph glyph-name="unia2" unicode="&#xa2;" d="M259 62L325 62L325 151C405 162 476 217 503 290L422 290C377 238 337 217 282 217C191 217 119 290 119 383C119 477 189 547 283 547C346 547 395 518 426 463L509 463C480 545 411 602 325 614L325 707L259 707L259 614C132 601 45 507 45 382C45 259 136 161 259 151Z"  horiz-adv-x="554" vert-adv-y="1000"  />

      
      <glyph glyph-name="uni02C6" unicode="&#x02C6;" d="M74 623L165 623L253 697L339 623L428 623L285 749L219 749Z"  horiz-adv-x="502" vert-adv-y="1000"  />

      
      <glyph glyph-name="uni3a" unicode="&#x3a;" d="M101 0L175 0L175 126L101 126ZM101 381L175 381L175 507L101 507Z"  horiz-adv-x="277" vert-adv-y="1000"  />

      
      <glyph glyph-name="uni2c" unicode="&#x2c;" d="M91 0L121 0L121-27C121-56 97-82 70-82L70-126C121-126 165-77 165-20L165 126L91 126Z"  horiz-adv-x="235" vert-adv-y="1000"  />

      
      <glyph glyph-name="unia9" unicode="&#xa9;" d="M163 372C163 249 262 148 382 148C464 148 536 190 576 261L501 261C469 223 429 204 383 204C297 204 224 281 224 372C224 464 296 538 384 538C432 538 471 518 505 477L579 477C537 552 467 594 383 594C261 594 163 496 163 372ZM-9 369C-9 158 162-13 373-13C584-13 755 158 755 369C755 579 584 752 378 752C161 752-9 583-9 369ZM47 369C47 550 193 700 369 700C554 700 699 554 699 369C699 187 553 39 373 39C193 39 47 187 47 369Z"  horiz-adv-x="747" vert-adv-y="1000"  />

      
      <glyph glyph-name="unia4" unicode="&#xa4;" d="M84 58L126 100C180 63 219 50 276 50C333 50 370 62 428 100L469 58L523 111L481 153C512 190 528 239 528 300C528 358 514 403 482 452L523 494L469 549L426 507C382 538 334 553 276 553C221 553 181 540 127 506L84 548L29 494L73 452C40 406 26 362 26 303C26 244 40 198 72 153L31 112ZM97 302C97 405 174 483 275 483C382 483 457 409 457 302C457 200 380 122 279 122C175 122 97 199 97 302Z"  horiz-adv-x="554" vert-adv-y="1000"  />

      
      <glyph glyph-name="uni64" unicode="&#x64;" d="M42 272C42 110 171-13 340-13C431-13 492 19 548 99L548 0L622 0L622 739L548 739L548 460C494 525 419 560 333 560C167 560 42 436 42 272ZM117 274C117 395 211 492 328 492C453 492 551 396 551 275C551 154 455 55 338 55C214 55 117 151 117 274Z"  horiz-adv-x="685" vert-adv-y="1000"  />

      
      <glyph glyph-name="uni2020" unicode="&#x2020;" d="M237-133L311-133L311 470L494 470L494 536L311 536L311 739L237 739L237 536L59 536L59 470L237 470Z"  horiz-adv-x="553" vert-adv-y="1000"  />

      
      <glyph glyph-name="uni2021" unicode="&#x2021;" d="M238-133L312-133L312 331L494 331L494 401L312 401L312 493L494 493L494 563L312 563L312 739L238 739L238 563L59 563L59 493L238 493L238 401L59 401L59 331L238 331Z"  horiz-adv-x="553" vert-adv-y="1000"  />

      
      <glyph glyph-name="unib0" unicode="&#xb0;" d="M200 380C284 380 350 447 350 533C350 619 286 686 204 686C117 686 50 619 50 534C50 448 116 380 200 380ZM200 437C148 437 106 480 106 533C106 586 149 629 200 629C252 629 293 587 293 533C293 479 252 437 200 437Z"  horiz-adv-x="400" vert-adv-y="1000"  />

      
      <glyph glyph-name="unia8" unicode="&#xa8;" d="M74 623L148 623L148 749L74 749ZM221 623L295 623L295 749L221 749Z"  horiz-adv-x="369" vert-adv-y="1000"  />

      
      <glyph glyph-name="unif7" unicode="&#xf7;" d="M259 409L346 409L346 496L259 496ZM259 112L346 112L346 199L259 199ZM51 267L555 267L555 341L51 341Z"  horiz-adv-x="606" vert-adv-y="1000"  />

      
      <glyph glyph-name="uni24" unicode="&#x24;" d="M245-56L311-56L311 29C410 39 479 120 479 226C479 329 427 387 296 428C201 458 174 484 174 546C174 619 218 665 287 665C356 665 399 621 403 547L473 547C469 646 409 713 311 728L311 810L245 810L245 728C156 710 100 643 100 552C100 454 150 399 270 363C368 334 405 295 405 224C405 146 352 90 277 90C198 90 149 141 144 228L74 228C74 116 131 50 245 29Z"  horiz-adv-x="554" vert-adv-y="1000"  />

      
      <glyph glyph-name="uni02D9" unicode="&#x02D9;" d="M74 623L148 623L148 749L74 749Z"  horiz-adv-x="222" vert-adv-y="1000"  />

      
      <glyph glyph-name="uni0131" unicode="&#x0131;" d="M63 0L137 0L137 547L63 547Z"  horiz-adv-x="200" vert-adv-y="1000"  />

      
      <glyph glyph-name="uni65" unicode="&#x65;" d="M520 180C489 105 412 55 329 55C216 55 122 141 116 249L610 249C612 259 614 270 614 280C614 432 482 560 325 560C167 560 42 435 42 276C42 114 169-13 331-13C450-13 557 65 597 180ZM118 316C138 421 221 492 325 492C431 492 512 425 537 316Z"  horiz-adv-x="650" vert-adv-y="1000"  />

      
      <glyph glyph-name="unie9" unicode="&#xe9;" d="M280 610L473 724L439 782L246 666ZM520 180C489 105 412 55 329 55C216 55 122 141 116 249L610 249C612 259 614 270 614 280C614 432 482 560 325 560C167 560 42 435 42 276C42 114 169-13 331-13C450-13 557 65 597 180ZM118 316C138 421 221 492 325 492C431 492 512 425 537 316Z"  horiz-adv-x="650" vert-adv-y="1000"  />

      
      <glyph glyph-name="uniea" unicode="&#xea;" d="M153 623L244 623L332 697L418 623L507 623L364 749L298 749ZM520 180C489 105 412 55 329 55C216 55 122 141 116 249L610 249C612 259 614 270 614 280C614 432 482 560 325 560C167 560 42 435 42 276C42 114 169-13 331-13C450-13 557 65 597 180ZM118 316C138 421 221 492 325 492C431 492 512 425 537 316Z"  horiz-adv-x="650" vert-adv-y="1000"  />

      
      <glyph glyph-name="unieb" unicode="&#xeb;" d="M219 623L293 623L293 749L219 749ZM366 623L440 623L440 749L366 749ZM520 180C489 105 412 55 329 55C216 55 122 141 116 249L610 249C612 259 614 270 614 280C614 432 482 560 325 560C167 560 42 435 42 276C42 114 169-13 331-13C450-13 557 65 597 180ZM118 316C138 421 221 492 325 492C431 492 512 425 537 316Z"  horiz-adv-x="650" vert-adv-y="1000"  />

      
      <glyph glyph-name="unie8" unicode="&#xe8;" d="M182 718L379 610L412 666L214 776ZM520 180C489 105 412 55 329 55C216 55 122 141 116 249L610 249C612 259 614 270 614 280C614 432 482 560 325 560C167 560 42 435 42 276C42 114 169-13 331-13C450-13 557 65 597 180ZM118 316C138 421 221 492 325 492C431 492 512 425 537 316Z"  horiz-adv-x="650" vert-adv-y="1000"  />

      
      <glyph glyph-name="uni38" unicode="&#x38;" d="M42 215C42 85 144-13 280-13C415-13 512 83 512 218C512 308 467 377 385 413C445 441 473 488 473 561C473 673 392 752 278 752C166 752 81 670 81 561C81 493 108 447 167 413C86 374 42 304 42 215ZM280 444C209 444 155 496 155 566C155 635 205 685 275 685C349 685 399 637 399 565C399 496 348 444 280 444ZM116 213C116 308 182 375 275 375C372 375 438 310 438 216C438 121 372 54 279 54C184 54 116 121 116 213Z"  horiz-adv-x="554" vert-adv-y="1000"  />

      
      <glyph glyph-name="uniE008" unicode="&#xE008;" d="M32 215C32 85 134-13 270-13C405-13 502 83 502 218C502 308 457 377 375 413C435 441 463 488 463 561C463 673 382 752 268 752C156 752 71 670 71 561C71 493 98 447 157 413C76 374 32 304 32 215ZM270 444C199 444 145 496 145 566C145 635 195 685 265 685C339 685 389 637 389 565C389 496 338 444 270 444ZM106 213C106 308 172 375 265 375C362 375 428 310 428 216C428 121 362 54 269 54C174 54 106 121 106 213Z"  horiz-adv-x="534" vert-adv-y="1000"  />

      
      <glyph glyph-name="uni2026" unicode="&#x2026;" d="M130 0L204 0L204 126L130 126ZM463 0L537 0L537 126L463 126ZM796 0L870 0L870 126L796 126Z"  horiz-adv-x="1000" vert-adv-y="1000"  />

      
      <glyph glyph-name="uni2014" unicode="&#x2014;" d="M0 233L1000 233L1000 296L0 296Z"  horiz-adv-x="1000" vert-adv-y="1000"  />

      
      <glyph glyph-name="uni2013" unicode="&#x2013;" d="M0 233L500 233L500 296L0 296Z"  horiz-adv-x="500" vert-adv-y="1000"  />

      
      <glyph glyph-name="uni3d" unicode="&#x3d;" d="M51 362L555 362L555 436L51 436ZM51 164L555 164L555 238L51 238Z"  horiz-adv-x="606" vert-adv-y="1000"  />

      
      <glyph glyph-name="unif0" unicode="&#xf0;" d="M42 274C42 109 166-13 334-13C499-13 613 107 613 279C613 406 548 512 379 660L468 699L429 743L334 701C307 726 294 737 266 756L213 727C236 709 256 691 273 672L194 637L230 591L317 630C349 602 350 601 412 538C367 553 349 556 316 556C160 556 42 435 42 274ZM117 272C117 398 206 492 326 492C450 492 538 400 538 271C538 144 453 55 333 55C208 55 117 147 117 272Z"  horiz-adv-x="655" vert-adv-y="1000"  />

      
      <glyph glyph-name="uni21" unicode="&#x21;" d="M111 197L185 197L185 739L111 739ZM111 0L185 0L185 126L111 126Z"  horiz-adv-x="295" vert-adv-y="1000"  />

      
      <glyph glyph-name="unia1" unicode="&#xa1;" d="M111-192L185-192L185 352L111 352ZM111 421L185 421L185 547L111 547Z"  horiz-adv-x="295" vert-adv-y="1000"  />

      
      <glyph glyph-name="uni66" unicode="&#x66;" d="M101 0L175 0L175 480L311 480L311 547L175 547C175 638 209 672 301 672L311 672L311 739C301 740 290 740 281 740C165 740 101 672 101 547L16 547L16 480L101 480Z"  horiz-adv-x="314" vert-adv-y="1000"  />

      
      <glyph glyph-name="uniFB00" unicode="&#xFB00;" d="M101 0L175 0L175 480L353 480L353 0L427 0L427 480L563 480L563 547L427 547C427 640 462 672 563 672L563 739C421 739 353 676 353 547L175 547C175 640 210 672 311 672L311 739C169 739 101 676 101 547L16 547L16 480L101 480Z"  horiz-adv-x="566" vert-adv-y="1000"  />

      
      <glyph glyph-name="uniFB03" unicode="&#xFB03;" d="M101 0L175 0L175 480L353 480L353 0L427 0L427 480L563 480L563 547L427 547C427 640 462 672 563 672L563 739C421 739 353 676 353 547L175 547C175 640 210 672 311 672L311 739C169 739 101 676 101 547L16 547L16 480L101 480ZM605 0L679 0L679 547L605 547ZM605 613L679 613L679 739L605 739Z"  horiz-adv-x="742" vert-adv-y="1000"  />

      
      <glyph glyph-name="uniFB04" unicode="&#xFB04;" d="M101 0L175 0L175 480L353 480L353 0L427 0L427 480L563 480L563 547L427 547C427 640 462 672 563 672L563 739C421 739 353 676 353 547L175 547C175 640 210 672 311 672L311 739C169 739 101 676 101 547L16 547L16 480L101 480ZM605 0L679 0L679 739L605 739Z"  horiz-adv-x="742" vert-adv-y="1000"  />

      
      <glyph glyph-name="uni2012" unicode="&#x2012;" d="M31 233L524 233L524 296L31 296Z"  horiz-adv-x="554" vert-adv-y="1000"  />

      
      <glyph glyph-name="uni35" unicode="&#x35;" d="M26 232C48 79 143-13 280-13C419-13 528 100 528 246C528 391 421 503 283 503C238 503 200 493 156 468L192 672L466 672L466 739L133 739L67 375L124 353C169 409 219 436 277 436C378 436 454 354 454 246C454 138 377 54 277 54C183 54 111 126 98 232Z"  horiz-adv-x="554" vert-adv-y="1000"  />

      
      <glyph glyph-name="uniE005" unicode="&#xE005;" d="M26 232C48 79 143-13 280-13C419-13 528 100 528 246C528 391 421 503 283 503C238 503 200 493 156 468L192 672L466 672L466 739L133 739L67 375L124 353C169 409 219 436 277 436C378 436 454 354 454 246C454 138 377 54 277 54C183 54 111 126 98 232Z"  horiz-adv-x="554" vert-adv-y="1000"  />

      
      <glyph glyph-name="uni0192" unicode="&#x0192;" d="M18-146C37-151 52-153 76-153C209-153 267-91 300 86L380 517L492 517L504 584L392 584L396 607C412 702 453 751 514 751C520 751 529 750 535 749L546 815C532 817 525 818 517 818C421 818 349 738 326 607L322 584L211 584L198 517L311 517L231 92C205-48 172-86 78-86C64-86 50-85 30-82Z"  horiz-adv-x="554" vert-adv-y="1000"  />

      
      <glyph glyph-name="uni34" unicode="&#x34;" d="M12 135L386 135L386 0L459 0L459 135L527 135L527 202L459 202L459 739L372 739L12 202ZM97 202L386 637L386 202Z"  horiz-adv-x="554" vert-adv-y="1000"  />

      
      <glyph glyph-name="uniE004" unicode="&#xE004;" d="M28 135L402 135L402 0L475 0L475 135L543 135L543 202L475 202L475 739L388 739L28 202ZM113 202L402 637L402 202Z"  horiz-adv-x="571" vert-adv-y="1000"  />

      
      <glyph glyph-name="uni2044" unicode="&#x2044;" d="M-115 0L-61 0L281 739L227 739Z"  horiz-adv-x="166" vert-adv-y="1000"  />

      
      <glyph glyph-name="uni67" unicode="&#x67;" d="M62-17C102-145 199-215 337-215C520-215 610-112 610 98L610 547L536 547L536 450C481 526 414 560 321 560C161 560 42 437 42 271C42 111 166-13 327-13C426-13 493 27 536 111L536 74C536-71 467-147 335-147C242-147 187-111 134-17ZM327 55C207 55 117 150 117 277C117 399 205 492 320 492C444 492 536 402 536 279C536 152 446 55 327 55Z"  horiz-adv-x="673" vert-adv-y="1000"  />

      
      <glyph glyph-name="unidf" unicode="&#xdf;" d="M59 0L133 0L133 109C170 28 233-13 319-13C437-13 524 77 524 199C524 294 477 361 389 389C448 424 474 472 474 544C474 663 384 752 263 752C128 752 59 661 59 481ZM133 203L133 481C133 617 176 684 264 684C342 684 399 626 399 548C399 462 337 408 237 408L224 408L224 341C251 343 257 343 269 343C382 343 449 289 449 197C449 117 392 55 317 55C241 55 186 116 184 203Z"  horiz-adv-x="554" vert-adv-y="1000"  />

      
      <glyph glyph-name="uni60" unicode="&#x60;" d="M74 718L271 610L304 666L106 776Z"  horiz-adv-x="378" vert-adv-y="1000"  />

      
      <glyph glyph-name="uni0300" unicode="&#x0300;" d="M-476 718L-279 610L-246 666L-444 776Z"   vert-adv-y="1000"  />

      
      <glyph glyph-name="uni3e" unicode="&#x3e;" d="M48 37L557 269L557 334L48 565L48 487L450 302L48 115Z"  horiz-adv-x="606" vert-adv-y="1000"  />

      
      <glyph glyph-name="uniab" unicode="&#xab;" d="M153 99L212 132L118 300L212 467L153 499L40 302L40 297ZM326 99L385 132L291 300L385 467L326 499L211 302L211 297Z"  horiz-adv-x="425" vert-adv-y="1000"  />

      
      <glyph glyph-name="unibb" unicode="&#xbb;" d="M273 499L214 466L308 298L214 131L273 99L386 296L386 301ZM100 499L41 466L135 298L41 131L100 99L215 296L215 301Z"  horiz-adv-x="425" vert-adv-y="1000"  />

      
      <glyph glyph-name="uni2039" unicode="&#x2039;" d="M152 99L211 132L118 300L211 467L152 499L40 301L40 297Z"  horiz-adv-x="251" vert-adv-y="1000"  />

      
      <glyph glyph-name="uni203A" unicode="&#x203A;" d="M99 499L40 466L133 298L40 131L99 99L211 297L211 301Z"  horiz-adv-x="251" vert-adv-y="1000"  />

      
      <glyph glyph-name="uni68" unicode="&#x68;" d="M63 0L137 0L137 300C137 421 199 492 304 492C412 492 473 420 473 294L473 0L547 0L547 294C547 466 464 560 310 560C236 560 174 530 137 476L137 739L63 739Z"  horiz-adv-x="610" vert-adv-y="1000"  />

      
      <glyph glyph-name="uni02DD" unicode="&#x02DD;" d="M109 610L283 731L245 780L74 657ZM305 610L479 731L441 780L270 657Z"  horiz-adv-x="552" vert-adv-y="1000"  />

      
      <glyph glyph-name="uni2d" unicode="&#x2d;" d="M31 233L302 233L302 296L31 296Z"  horiz-adv-x="332" vert-adv-y="1000"  />

      
      <glyph glyph-name="uni69" unicode="&#x69;" d="M63 0L137 0L137 547L63 547ZM63 613L137 613L137 739L63 739Z"  horiz-adv-x="200" vert-adv-y="1000"  />

      
      <glyph glyph-name="uniE090" unicode="&#xE090;" d="M63 0L137 0L137 547L63 547Z"  horiz-adv-x="200" vert-adv-y="1000"  />

      
      <glyph glyph-name="unied" unicode="&#xed;" d="M63 0L137 0L137 547L63 547ZM21 610L214 724L180 782L-13 666Z"  horiz-adv-x="200" vert-adv-y="1000"  />

      
      <glyph glyph-name="uniee" unicode="&#xee;" d="M63 0L137 0L137 547L63 547ZM-77 623L14 623L102 697L188 623L277 623L134 749L68 749Z"  horiz-adv-x="200" vert-adv-y="1000"  />

      
      <glyph glyph-name="unief" unicode="&#xef;" d="M64 0L138 0L138 547L64 547ZM-10 623L64 623L64 749L-10 749ZM137 623L211 623L211 749L137 749Z"  horiz-adv-x="200" vert-adv-y="1000"  />

      
      <glyph glyph-name="uniec" unicode="&#xec;" d="M63 0L137 0L137 547L63 547ZM-15 718L182 610L215 666L17 776Z"  horiz-adv-x="200" vert-adv-y="1000"  />

      
      <glyph glyph-name="uni6a" unicode="&#x6a;" d="M-45-192C1-190 34-180 65-158C122-118 140-71 140 38L140 547L66 547L66 38C66-76 38-116-45-121ZM66 613L140 613L140 739L66 739Z"  horiz-adv-x="203" vert-adv-y="1000"  />

      
      <glyph glyph-name="uniE091" unicode="&#xE091;" d="M-45-192C1-190 34-180 65-158C122-118 140-71 140 38L140 547L66 547L66 38C66-76 38-116-45-121Z"  horiz-adv-x="203" vert-adv-y="1000"  />

      
      <glyph glyph-name="uni6b" unicode="&#x6b;" d="M63 0L137 0L137 113L223 219L405 0L497 0L270 272L483 547L392 547L137 215L137 739L63 739Z"  horiz-adv-x="502" vert-adv-y="1000"  />

      
      <glyph glyph-name="uni6c" unicode="&#x6c;" d="M63 0L137 0L137 739L63 739Z"  horiz-adv-x="200" vert-adv-y="1000"  />

      
      <glyph glyph-name="uni0140" unicode="&#x0140;" d="M63 0L137 0L137 739L63 739ZM221 309L295 309L295 435L221 435Z"  horiz-adv-x="354" vert-adv-y="1000"  />

      
      <glyph glyph-name="uni3c" unicode="&#x3c;" d="M49 268L558 37L558 115L157 300L558 487L558 565L49 333Z"  horiz-adv-x="606" vert-adv-y="1000"  />

      
      <glyph glyph-name="uniac" unicode="&#xac;" d="M51 363L483 363L483 148L555 148L555 436L51 436Z"  horiz-adv-x="606" vert-adv-y="1000"  />

      
      <glyph glyph-name="uni0142" unicode="&#x0142;" d="M114 0L188 0L188 379L270 433L270 506L188 451L188 739L114 739L114 418L36 365L36 293L114 346Z"  horiz-adv-x="300" vert-adv-y="1000"  />

      
      <glyph glyph-name="uni6d" unicode="&#x6d;" d="M63 0L137 0L137 319C137 428 192 492 284 492C378 492 432 429 432 319L432 0L506 0L506 317C506 429 560 492 656 492C750 492 801 431 801 317L801 0L875 0L875 325C875 474 796 560 659 560C574 560 516 527 470 455C427 529 374 560 291 560C222 560 180 539 137 484L137 547L63 547Z"  horiz-adv-x="938" vert-adv-y="1000"  />

      
      <glyph glyph-name="uniaf" unicode="&#xaf;" d="M74 643L411 643L411 707L74 707Z"  horiz-adv-x="485" vert-adv-y="1000"  />

      
      <glyph glyph-name="uni2212" unicode="&#x2212;" d="M51 267L555 267L555 341L51 341Z"  horiz-adv-x="606" vert-adv-y="1000"  />

      
      <glyph glyph-name="unib5" unicode="&#xb5;" d="M63-192L137-192L137 85C175 22 235-13 307-13C385-13 437 18 471 85L471 0L545 0L545 547L471 547L471 266C471 197 462 156 440 123C411 80 361 54 306 54C265 54 222 71 190 101C148 140 137 174 137 266L137 547L63 547Z"  horiz-adv-x="608" vert-adv-y="1000"  />

      
      <glyph glyph-name="unid7" unicode="&#xd7;" d="M51 99L103 48L303 248L503 48L555 99L355 299L555 500L503 551L303 351L103 551L51 500L251 299Z"  horiz-adv-x="606" vert-adv-y="1000"  />

      
      <glyph glyph-name="uni6e" unicode="&#x6e;" d="M63 0L137 0L137 301C137 426 195 492 304 492C415 492 473 422 473 287L473 0L547 0L547 287C547 463 464 560 313 560C240 560 183 532 137 476L137 547L63 547Z"  horiz-adv-x="610" vert-adv-y="1000"  />

      
      <glyph glyph-name="uni39" unicode="&#x39;" d="M173 0L258 0L441 272C512 377 529 421 529 495C529 642 420 752 274 752C130 752 25 642 25 490C25 348 129 236 261 236C293 236 315 241 347 257ZM276 303C173 303 99 382 99 493C99 604 172 685 272 685C378 685 455 604 455 493C455 384 378 303 276 303Z"  horiz-adv-x="554" vert-adv-y="1000"  />

      
      <glyph glyph-name="uniE009" unicode="&#xE009;" d="M174 0L259 0L442 272C513 377 530 421 530 495C530 642 421 752 275 752C131 752 26 642 26 490C26 348 130 236 262 236C294 236 316 241 348 257ZM277 303C174 303 100 382 100 493C100 604 173 685 273 685C379 685 456 604 456 493C456 384 379 303 277 303Z"  horiz-adv-x="556" vert-adv-y="1000"  />

      
      <glyph glyph-name="unif1" unicode="&#xf1;" d="M186 633C206 656 222 665 246 665C257 665 272 661 286 655C325 638 339 633 352 633C385 633 427 656 443 682L410 728C389 706 372 697 353 697C344 697 322 703 305 711C272 725 263 728 246 728C210 728 176 710 153 679ZM63 0L137 0L137 301C137 426 195 492 304 492C415 492 473 422 473 287L473 0L547 0L547 287C547 463 464 560 313 560C240 560 183 532 137 476L137 547L63 547Z"  horiz-adv-x="610" vert-adv-y="1000"  />

      
      <glyph glyph-name="uni23" unicode="&#x23;" d="M59 0L124 0L169 237L333 237L290 0L356 0L399 237L534 237L534 298L411 298L439 453L549 453L549 514L450 514L491 739L424 739L384 514L221 514L262 739L198 739L156 514L21 514L21 453L145 453L116 298L5 298L5 237L104 237ZM181 298L210 453L373 453L344 298Z"  horiz-adv-x="554" vert-adv-y="1000"  />

      
      <glyph glyph-name="uni6f" unicode="&#x6f;" d="M42 273C42 109 167-13 334-13C495-13 613 108 613 272C613 437 493 560 332 560C164 560 42 439 42 273ZM332 55C208 55 117 147 117 272C117 398 206 492 326 492C450 492 538 400 538 271C538 145 452 55 332 55Z"  horiz-adv-x="655" vert-adv-y="1000"  />

      
      <glyph glyph-name="unif3" unicode="&#xf3;" d="M42 273C42 109 167-13 334-13C495-13 613 108 613 272C613 437 493 560 332 560C164 560 42 439 42 273ZM332 55C208 55 117 147 117 272C117 398 206 492 326 492C450 492 538 400 538 271C538 145 452 55 332 55ZM281 610L474 724L440 782L247 666Z"  horiz-adv-x="655" vert-adv-y="1000"  />

      
      <glyph glyph-name="unif4" unicode="&#xf4;" d="M42 273C42 109 167-13 334-13C495-13 613 108 613 272C613 437 493 560 332 560C164 560 42 439 42 273ZM332 55C208 55 117 147 117 272C117 398 206 492 326 492C450 492 538 400 538 271C538 145 452 55 332 55ZM150 623L241 623L329 697L415 623L504 623L361 749L295 749Z"  horiz-adv-x="655" vert-adv-y="1000"  />

      
      <glyph glyph-name="unif6" unicode="&#xf6;" d="M42 273C42 109 167-13 334-13C495-13 613 108 613 272C613 437 493 560 332 560C164 560 42 439 42 273ZM332 55C208 55 117 147 117 272C117 398 206 492 326 492C450 492 538 400 538 271C538 145 452 55 332 55ZM217 623L291 623L291 749L217 749ZM364 623L438 623L438 749L364 749Z"  horiz-adv-x="655" vert-adv-y="1000"  />

      
      <glyph glyph-name="uni0153" unicode="&#x0153;" d="M1012 179C972 96 910 55 824 55C709 55 615 139 608 248L1096 248C1097 265 1098 278 1098 286C1098 442 976 560 816 560C708 560 628 512 571 414C511 513 432 560 324 560C165 560 42 436 42 274C42 112 167-13 331-13C437-13 511 33 571 138C617 43 713-13 828-13C948-13 1054 66 1086 179ZM331 55C210 55 117 150 117 273C117 398 206 492 323 492C446 492 536 400 536 275C536 150 448 55 331 55ZM608 315C635 425 713 492 815 492C924 492 1009 421 1027 315Z"  horiz-adv-x="1137" vert-adv-y="1000"  />

      
      <glyph glyph-name="uni02DB" unicode="&#x02DB;" d="M228-136C213-143 199-146 183-146C149-146 124-126 124-98C124-70 153-31 197 0L146 0C96-30 74-61 74-101C74-153 117-191 178-191C193-191 206-189 228-182Z"  horiz-adv-x="302" vert-adv-y="1000"  />

      
      <glyph glyph-name="unif2" unicode="&#xf2;" d="M42 273C42 109 167-13 334-13C495-13 613 108 613 272C613 437 493 560 332 560C164 560 42 439 42 273ZM332 55C208 55 117 147 117 272C117 398 206 492 326 492C450 492 538 400 538 271C538 145 452 55 332 55ZM179 718L376 610L409 666L211 776Z"  horiz-adv-x="655" vert-adv-y="1000"  />

      
      <glyph glyph-name="uni31" unicode="&#x31;" d="M281 0L354 0L354 739L155 739L155 672L281 672Z"  horiz-adv-x="554" vert-adv-y="1000"  />

      
      <glyph glyph-name="uniE001" unicode="&#xE001;" d="M157 0L230 0L230 739L31 739L31 672L157 672Z"  horiz-adv-x="334" vert-adv-y="1000"  />

      
      <glyph glyph-name="unibd" unicode="&#xbd;" d="M506 0L812 0L812 55L595 55L728 176C791 234 814 271 814 318C814 396 748 459 665 459C568 459 510 397 510 295L570 295C570 365 603 404 662 404C712 404 753 366 753 320C753 287 735 262 669 201L506 51ZM171 288L231 288L231 739L96 739L96 684L171 684ZM206 0L260 0L602 739L547 739Z"  horiz-adv-x="831" vert-adv-y="1000"  />

      
      <glyph glyph-name="unibc" unicode="&#xbc;" d="M176 288L236 288L236 739L101 739L101 684L176 684ZM211 0L265 0L607 739L552 739ZM470 79L701 79L701 0L761 0L761 79L803 79L803 134L761 134L761 451L696 451L470 129ZM545 134L701 359L701 134Z"  horiz-adv-x="831" vert-adv-y="1000"  />

      
      <glyph glyph-name="uniaa" unicode="&#xaa;" d="M285 448L333 448L333 739L285 739L285 694C266 724 224 745 183 745C99 745 31 677 31 594C31 511 100 441 182 441C225 441 255 456 285 493ZM184 490C131 490 84 539 84 594C84 647 131 696 183 696C237 696 282 649 282 592C282 538 236 490 184 490ZM31 319L339 319L339 370L31 370Z"  horiz-adv-x="369" vert-adv-y="1000"  />

      
      <glyph glyph-name="uniba" unicode="&#xba;" d="M184 442C268 442 337 511 337 594C337 676 268 745 186 745C101 745 32 677 32 593C32 510 101 442 184 442ZM185 491C129 491 85 536 85 594C85 650 129 696 183 696C240 696 284 651 284 593C284 536 240 491 185 491ZM32 319L337 319L337 370L32 370Z"  horiz-adv-x="369" vert-adv-y="1000"  />

      
      <glyph glyph-name="unif8" unicode="&#xf8;" d="M73 1L126-39L178 28C235-2 274-13 329-13C493-13 611 110 611 281C611 362 584 426 528 478L584 552L531 594L474 519C429 547 382 560 328 560C169 560 42 433 42 272C42 193 64 138 124 68ZM166 121C131 172 117 212 117 266C117 394 209 492 329 492C367 492 402 484 434 468ZM487 426C521 383 536 339 536 280C536 147 449 55 323 55C284 55 258 61 218 79Z"  horiz-adv-x="653" vert-adv-y="1000"  />

      
      <glyph glyph-name="unif5" unicode="&#xf5;" d="M42 273C42 262 43 252 44 241C44 236 45 230 46 225C46 220 47 215 48 210C60 156 88 100 131 64C143 52 157 42 171 32C173 31 175 30 178 28C180 27 182 26 184 25C186 24 188 22 191 21C210 11 232 3 254-3C257-4 259-4 262-5C267-6 272-7 277-8C280-9 283-9 285-9C290-10 296-11 301-11C304-12 307-12 309-12C312-12 315-12 317-13C323-13 328-13 334-13C342-13 350-13 358-12C360-12 363-12 366-11C371-11 376-10 381-9C394-8 406-5 418-1C420-1 422 0 425 1C427 2 429 2 432 3C439 5 460 13 465 18C469 20 474 22 478 24C498 37 517 51 534 68C535 70 537 71 539 73C540 75 542 77 543 78C545 80 547 82 548 84C551 87 554 91 557 95C560 99 562 103 565 107C566 109 568 111 569 113C570 115 572 117 573 119C575 123 578 127 580 132C581 134 582 136 583 138C584 140 585 142 586 145C587 147 588 149 589 151C591 156 593 160 595 165C596 170 598 175 599 179C602 186 604 194 605 201C606 204 606 206 607 209C608 214 609 219 610 224C612 240 613 256 613 272C613 280 613 288 612 296C612 304 611 312 609 320C609 323 609 325 608 328C607 333 606 338 605 343C605 346 604 348 603 351C603 353 602 356 601 358C600 363 599 368 597 373C593 384 588 396 583 407C582 409 581 411 579 414C578 416 577 418 576 420C570 432 561 446 552 456C549 460 546 464 543 467C539 471 536 474 533 478C524 487 516 495 506 502C502 505 499 508 495 510C491 513 487 516 483 518C479 521 474 523 470 526C468 527 466 528 464 529C459 531 455 533 451 535C446 537 441 539 437 541C432 543 428 544 423 546C409 550 394 554 379 556C376 557 374 557 371 557C369 558 366 558 364 558C358 559 353 559 348 560C345 560 343 560 340 560C326 560 313 559 299 558C294 558 288 557 283 556C278 556 273 555 267 554C265 553 262 553 260 552C232 546 206 536 182 523C179 520 173 517 170 515C167 514 165 512 163 511C84 457 42 368 42 273ZM332 55C326 55 320 55 314 56C299 57 275 59 262 66C258 67 255 68 251 69C248 71 244 72 241 74C239 74 238 75 236 76C231 78 226 81 221 83C220 84 218 85 216 86C209 91 201 96 194 102C193 103 191 104 190 105C187 108 185 110 182 113C181 114 179 115 178 117C174 120 171 124 167 129C166 130 165 131 164 133C146 155 121 201 121 230C120 232 120 234 120 236C119 239 119 243 118 247C118 249 118 251 118 253C117 258 117 262 117 266C117 268 117 270 117 272C117 280 117 289 118 297C118 299 119 301 119 303C120 311 121 319 123 326C123 328 124 330 124 332C135 379 166 426 205 454C206 455 208 456 209 457C211 458 212 459 214 460C215 461 217 462 219 463C232 471 248 478 264 483C269 485 274 486 280 487C285 488 291 489 297 490C299 490 301 491 302 491C310 492 318 492 326 492C328 492 330 492 332 492C334 492 336 492 338 492C342 492 346 491 350 491C363 490 377 487 390 483C394 482 397 481 401 480C404 478 408 477 411 476C420 473 428 468 436 463C438 462 439 462 441 461C442 460 444 459 445 458C461 448 477 432 489 418C490 416 492 415 493 413C494 412 495 411 496 409C497 408 498 406 499 405C502 400 505 395 508 391C510 387 511 384 513 381C514 379 515 377 516 376C519 369 522 362 524 355C526 351 527 347 528 344C528 342 529 340 529 338C530 336 530 334 531 332C531 330 532 328 532 326C533 324 533 323 533 321C534 319 534 317 534 315C535 309 536 303 537 296C537 292 538 288 538 284C538 282 538 280 538 277C538 275 538 273 538 271C538 269 538 267 538 265C538 261 538 256 537 252C537 246 536 240 535 234C535 232 535 230 535 228C534 223 532 217 531 211C531 209 530 208 530 206C529 204 529 202 528 200C527 197 526 193 525 189C524 188 523 186 523 184C521 181 520 177 518 174C516 169 514 164 511 159C510 156 508 153 506 150C505 148 504 147 503 145C502 144 501 142 500 141C497 136 494 132 491 128C487 124 484 120 480 116C479 115 478 113 476 112C475 111 474 110 473 108C470 106 467 104 465 101C462 99 459 97 456 95C452 92 448 89 443 86C442 85 440 84 439 83C437 82 436 81 434 80C431 79 428 77 425 75C421 74 418 72 415 71C413 70 412 70 410 69C406 68 403 67 400 65C398 65 396 64 394 64C391 63 387 62 384 61C373 58 361 57 350 56C348 56 346 55 344 55C340 55 336 55 332 55ZM222 633C239 655 257 665 282 665C293 665 308 661 322 655C361 638 375 633 388 633C421 633 463 656 479 682L446 728C425 706 408 697 389 697C380 697 358 703 341 711C308 725 299 728 282 728C246 728 212 710 189 679Z"  horiz-adv-x="655" vert-adv-y="1000"  />

      
      <glyph glyph-name="uni70" unicode="&#x70;" d="M63-192L137-192L137 94C185 24 259-13 350-13C514-13 640 112 640 273C640 436 515 560 352 560C258 560 183 523 137 453L137 547L63 547ZM349 55C226 55 132 150 132 273C132 396 226 492 346 492C473 492 565 400 565 271C565 148 472 55 349 55Z"  horiz-adv-x="682" vert-adv-y="1000"  />

      
      <glyph glyph-name="unib6" unicode="&#xb6;" d="M227-133L302-133L302 672L416 672L416-133L491-133L491 739L260 739C197 739 157 730 123 708C69 675 37 617 37 549C37 441 109 367 227 355Z"  horiz-adv-x="564" vert-adv-y="1000"  />

      
      <glyph glyph-name="uni28" unicode="&#x28;" d="M335-60C209 18 131 159 131 309C131 457 211 600 335 676L335 739C174 684 57 502 57 309C57 118 176-68 335-125Z"  horiz-adv-x="369" vert-adv-y="1000"  />

      
      <glyph glyph-name="uni29" unicode="&#x29;" d="M34-125C194-70 312 112 312 305C312 498 194 682 34 739L34 674C160 596 238 456 238 306C238 158 157 12 34-61Z"  horiz-adv-x="369" vert-adv-y="1000"  />

      
      <glyph glyph-name="uni25" unicode="&#x25;" d="M182 0L254 0L588 739L514 739ZM576-13C673-13 752 66 752 163C752 258 673 338 579 338C479 338 401 261 401 162C401 66 480-13 576-13ZM576 53C517 53 468 102 468 163C468 223 517 272 575 272C636 272 684 224 684 162C684 102 636 53 576 53ZM188 397C285 397 364 476 364 573C364 669 285 749 191 749C91 749 13 671 13 573C13 476 92 397 188 397ZM188 463C128 463 79 512 79 573C79 633 128 683 186 683C248 683 296 635 296 572C296 512 247 463 188 463Z"  horiz-adv-x="775" vert-adv-y="1000"  />

      
      <glyph glyph-name="uni2e" unicode="&#x2e;" d="M101 0L175 0L175 126L101 126Z"  horiz-adv-x="277" vert-adv-y="1000"  />

      
      <glyph glyph-name="unib7" unicode="&#xb7;" d="M101 229L175 229L175 355L101 355Z"  horiz-adv-x="277" vert-adv-y="1000"  />

      
      <glyph glyph-name="uni2030" unicode="&#x2030;" d="M182 0L254 0L588 739L514 739ZM576-13C673-13 752 66 752 163C752 258 673 338 579 338C479 338 401 261 401 162C401 66 480-13 576-13ZM576 53C517 53 468 102 468 163C468 223 517 272 575 272C636 272 684 224 684 162C684 102 636 53 576 53ZM975-13C1072-13 1151 66 1151 163C1151 258 1072 338 978 338C878 338 800 261 800 162C800 66 879-13 975-13ZM975 53C916 53 867 102 867 163C867 223 916 272 974 272C1035 272 1083 224 1083 162C1083 102 1035 53 975 53ZM188 397C285 397 364 476 364 573C364 669 285 749 191 749C91 749 13 671 13 573C13 476 92 397 188 397ZM188 463C128 463 79 512 79 573C79 633 128 683 186 683C248 683 296 635 296 572C296 512 247 463 188 463Z"  horiz-adv-x="1174" vert-adv-y="1000"  />

      
      <glyph glyph-name="uni2b" unicode="&#x2b;" d="M265 49L342 49L342 267L555 267L555 341L342 341L342 557L265 557L265 341L51 341L51 267L265 267Z"  horiz-adv-x="606" vert-adv-y="1000"  />

      
      <glyph glyph-name="unib1" unicode="&#xb1;" d="M51 295L265 295L265 124L342 124L342 295L555 295L555 369L342 369L342 585L265 585L265 369L51 369ZM51 0L555 0L555 74L51 74Z"  horiz-adv-x="606" vert-adv-y="1000"  />

      
      <glyph glyph-name="uni71" unicode="&#x71;" d="M545-192L619-192L619 547L545 547L545 453C499 523 424 560 330 560C167 560 42 436 42 273C42 112 168-13 332-13C423-13 497 24 545 94ZM333 55C210 55 117 148 117 272C117 397 209 492 331 492C456 492 550 398 550 273C550 150 456 55 333 55Z"  horiz-adv-x="682" vert-adv-y="1000"  />

      
      <glyph glyph-name="uni3f" unicode="&#x3f;" d="M333 193C334 254 359 296 435 365C501 425 525 470 525 535C525 661 430 752 299 752C157 752 70 660 65 508L135 508C145 626 199 685 299 685C387 685 451 623 451 537C451 487 433 457 367 397C291 328 264 275 263 193ZM261 0L335 0L335 126L261 126Z"  horiz-adv-x="591" vert-adv-y="1000"  />

      
      <glyph glyph-name="unibf" unicode="&#xbf;" d="M456 39C449-76 391-138 293-138C204-138 140-76 140 10C140 59 156 85 224 150C299 221 329 276 329 339L329 354L259 354L259 347C259 294 233 252 156 182C90 122 66 77 66 12C66-114 161-205 292-205C433-205 524-111 526 39ZM256 421L330 421L330 547L256 547Z"  horiz-adv-x="591" vert-adv-y="1000"  />

      
      <glyph glyph-name="uni22" unicode="&#x22;" d="M187 513L237 513L237 739L187 739ZM74 513L124 513L124 739L74 739Z"  horiz-adv-x="309" vert-adv-y="1000"  />

      
      <glyph glyph-name="uni201E" unicode="&#x201E;" d="M91 0L121 0L121-27C121-56 97-82 70-82L70-126C121-126 165-77 165-20L165 126L91 126ZM221 0L251 0L251-27C251-56 227-82 200-82L200-126C251-126 295-77 295-20L295 126L221 126Z"  horiz-adv-x="365" vert-adv-y="1000"  />

      
      <glyph glyph-name="uni201C" unicode="&#x201C;" d="M274 613L244 613L244 640C244 669 268 695 295 695L295 739C244 739 200 690 200 633L200 487L274 487ZM144 613L114 613L114 640C114 669 138 695 165 695L165 739C114 739 70 690 70 633L70 487L144 487Z"  horiz-adv-x="365" vert-adv-y="1000"  />

      
      <glyph glyph-name="uni201D" unicode="&#x201D;" d="M91 613L121 613L121 586C121 557 97 531 70 531L70 487C121 487 165 536 165 593L165 739L91 739ZM221 613L251 613L251 586C251 557 227 531 200 531L200 487C251 487 295 536 295 593L295 739L221 739Z"  horiz-adv-x="365" vert-adv-y="1000"  />

      
      <glyph glyph-name="uni2018" unicode="&#x2018;" d="M144 613L114 613L114 640C114 669 138 695 165 695L165 739C114 739 70 690 70 633L70 487L144 487Z"  horiz-adv-x="235" vert-adv-y="1000"  />

      
      <glyph glyph-name="uni2019" unicode="&#x2019;" d="M91 613L121 613L121 586C121 557 97 531 70 531L70 487C121 487 165 536 165 593L165 739L91 739Z"  horiz-adv-x="235" vert-adv-y="1000"  />

      
      <glyph glyph-name="uni201A" unicode="&#x201A;" d="M91 0L121 0L121-27C121-56 97-82 70-82L70-126C121-126 165-77 165-20L165 126L91 126Z"  horiz-adv-x="235" vert-adv-y="1000"  />

      
      <glyph glyph-name="uni27" unicode="&#x27;" d="M74 513L124 513L124 739L74 739Z"  horiz-adv-x="198" vert-adv-y="1000"  />

      
      <glyph glyph-name="uni72" unicode="&#x72;" d="M63 0L137 0L137 319C137 421 189 477 292 487L292 560C212 556 166 529 137 469L137 547L63 547Z"  horiz-adv-x="301" vert-adv-y="1000"  />

      
      <glyph glyph-name="uniae" unicode="&#xae;" d="M248 157L309 157L309 359L454 157L530 157L409 317C492 328 534 372 534 448C534 536 479 585 380 585L248 585ZM309 365L309 527L376 527C434 527 471 496 471 448C471 394 430 365 353 365ZM-9 369C-9 158 162-13 373-13C584-13 755 158 755 369C755 579 584 752 378 752C161 752-9 583-9 369ZM47 369C47 550 193 700 369 700C554 700 699 554 699 369C699 187 553 39 373 39C193 39 47 187 47 369Z"  horiz-adv-x="747" vert-adv-y="1000"  />

      
      <glyph glyph-name="uni02DA" unicode="&#x02DA;" d="M74 701C74 651 115 610 166 610C217 610 258 651 258 702C258 752 217 794 167 794C115 794 74 753 74 701ZM115 701C115 730 138 753 165 753C194 753 217 730 217 701C217 674 194 651 166 651C138 651 115 673 115 701Z"  horiz-adv-x="332" vert-adv-y="1000"  />

      
      <glyph glyph-name="uni73" unicode="&#x73;" d="M18 161C19 55 88-13 194-13C293-13 361 57 361 157C361 226 315 281 234 309C152 338 113 374 113 421C113 463 146 492 192 492C240 492 268 464 272 412L347 412C344 500 281 560 193 560C101 560 38 498 38 406C38 334 74 296 180 255C264 223 286 201 286 150C286 95 248 55 194 55C132 55 95 93 91 161Z"  horiz-adv-x="388" vert-adv-y="1000"  />

      
      <glyph glyph-name="uni0161" unicode="&#x0161;" d="M17 749L160 623L226 623L371 749L280 749L192 675L106 749ZM18 161C19 55 88-13 194-13C293-13 361 57 361 157C361 226 315 281 234 309C152 338 113 374 113 421C113 463 146 492 192 492C240 492 268 464 272 412L347 412C344 500 281 560 193 560C101 560 38 498 38 406C38 334 74 296 180 255C264 223 286 201 286 150C286 95 248 55 194 55C132 55 95 93 91 161Z"  horiz-adv-x="388" vert-adv-y="1000"  />

      
      <glyph glyph-name="unia7" unicode="&#xa7;" d="M106 64C110-56 196-141 313-141C421-141 501-65 501 37C501 79 487 112 453 146C502 183 529 234 529 289C529 350 493 397 420 431L262 505C224 523 203 553 203 591C203 646 246 685 307 685C366 685 401 659 412 606L483 606C476 692 404 752 307 752C208 752 135 683 135 589C135 549 146 522 173 491C115 450 87 401 87 339C87 280 114 247 196 207L339 137C406 104 433 75 433 35C433-27 381-74 313-74C235-74 180-19 174 64ZM407 182L209 278C172 296 155 319 155 350C155 390 177 430 212 454L400 365C441 346 461 317 461 280C461 244 440 206 407 182Z"  horiz-adv-x="615" vert-adv-y="1000"  />

      
      <glyph glyph-name="uni3b" unicode="&#x3b;" d="M125 0L155 0L155-27C155-56 131-82 104-82L104-126C155-126 199-77 199-20L199 126L125 126ZM125 381L199 381L199 507L125 507Z"  horiz-adv-x="277" vert-adv-y="1000"  />

      
      <glyph glyph-name="uni37" unicode="&#x37;" d="M110 0L188 0L490 672L490 739L64 739L64 672L414 672Z"  horiz-adv-x="554" vert-adv-y="1000"  />

      
      <glyph glyph-name="uniE007" unicode="&#xE007;" d="M64 0L142 0L444 672L444 739L18 739L18 672L368 672Z"  horiz-adv-x="459" vert-adv-y="1000"  />

      
      <glyph glyph-name="uni36" unicode="&#x36;" d="M296 739L113 467C42 362 25 318 25 244C25 97 134-13 280-13C424-13 529 97 529 249C529 391 425 503 293 503C261 503 239 498 207 482L381 739ZM279 54C176 54 99 136 99 246C99 354 176 436 276 436C382 436 455 358 455 245C455 134 382 54 279 54Z"  horiz-adv-x="554" vert-adv-y="1000"  />

      
      <glyph glyph-name="uniE006" unicode="&#xE006;" d="M297 739L114 467C43 362 26 318 26 244C26 97 135-13 281-13C425-13 530 97 530 249C530 391 426 503 294 503C262 503 240 498 208 482L382 739ZM280 54C177 54 100 136 100 246C100 354 177 436 277 436C383 436 456 358 456 245C456 134 383 54 280 54Z"  horiz-adv-x="556" vert-adv-y="1000"  />

      
      <glyph glyph-name="uni2f" unicode="&#x2f;" d="M40-128L107-128L397 739L327 739Z"  horiz-adv-x="437" vert-adv-y="1000"  />

      
      <glyph glyph-name="unia3" unicode="&#xa3;" d="M59 0L344 0C500 0 592 79 592 213C592 232 590 244 584 268L512 268C516 247 518 234 518 219C518 121 455 67 342 67L285 67C307 115 314 145 314 184C314 241 290 295 242 347L457 347L457 414L173 414C150 455 145 474 145 513C145 615 211 685 307 685C399 685 465 632 485 541L554 541C540 667 440 752 306 752C169 752 71 652 71 512C71 478 76 455 93 414L18 414L18 347L144 347C221 279 240 246 240 183C240 136 226 98 198 67L59 67Z"  horiz-adv-x="625" vert-adv-y="1000"  />

      
      <glyph glyph-name="uni74" unicode="&#x74;" d="M130 0L204 0L204 480L327 480L327 547L204 547L204 739L130 739L130 547L12 547L12 480L130 480Z"  horiz-adv-x="339" vert-adv-y="1000"  />

      
      <glyph glyph-name="unife" unicode="&#xfe;" d="M63-192L137-192L137 94C185 24 259-13 350-13C514-13 640 112 640 273C640 436 515 560 352 560C258 560 183 523 137 453L137 739L63 739ZM349 55C226 55 132 150 132 273C132 396 226 492 346 492C473 492 565 400 565 271C565 148 472 55 349 55Z"  horiz-adv-x="682" vert-adv-y="1000"  />

      
      <glyph glyph-name="uni33" unicode="&#x33;" d="M33 231C39 82 132-13 273-13C402-13 504 91 504 224C504 314 461 381 379 423C431 459 455 504 455 565C455 675 379 752 269 752C158 752 86 676 82 555L155 555C156 638 197 685 269 685C335 685 381 637 381 569C381 504 338 454 282 454L219 454L219 388L237 388C361 388 430 328 430 220C430 126 361 54 270 54C174 54 114 119 106 231Z"  horiz-adv-x="554" vert-adv-y="1000"  />

      
      <glyph glyph-name="uniE003" unicode="&#xE003;" d="M33 231C39 82 132-13 273-13C402-13 504 91 504 224C504 314 461 381 379 423C431 459 455 504 455 565C455 675 379 752 269 752C158 752 86 676 82 555L155 555C156 638 197 685 269 685C335 685 381 637 381 569C381 504 338 454 282 454L219 454L219 388L237 388C361 388 430 328 430 220C430 126 361 54 270 54C174 54 114 119 106 231Z"  horiz-adv-x="535" vert-adv-y="1000"  />

      
      <glyph glyph-name="unibe" unicode="&#xbe;" d="M239 0L293 0L635 739L580 739ZM470 79L701 79L701 0L761 0L761 79L803 79L803 134L761 134L761 451L696 451L470 129ZM13 439C15 343 76 280 166 280C249 280 319 347 319 427C319 477 296 517 249 546C280 574 290 594 290 628C290 695 236 747 167 747C92 747 44 695 43 615L104 615C104 664 127 692 166 692C202 692 229 666 229 631C229 593 199 571 148 571L128 571L128 517L144 517C215 517 258 482 258 425C258 377 215 335 165 335C112 335 77 375 74 439ZM545 134L701 359L701 134Z"  horiz-adv-x="831" vert-adv-y="1000"  />

      
      <glyph glyph-name="uni02DC" unicode="&#x02DC;" d="M108 633C124 655 143 665 168 665C179 665 194 661 208 655C247 638 261 633 274 633C307 633 349 656 365 682L332 728C311 706 294 697 275 697C266 697 244 703 227 711C194 725 185 728 168 728C132 728 98 710 75 679Z"  horiz-adv-x="439" vert-adv-y="1000"  />

      
      <glyph glyph-name="uni0303" unicode="&#x0303;" d="M-433 633C-415 654-394 665-373 665C-364 665-351 662-333 655C-293 640-268 633-252 633C-227 633-192 656-176 682L-209 728C-230 706-247 697-266 697C-275 697-297 703-314 711C-347 725-356 728-373 728C-409 728-443 710-466 679Z"   vert-adv-y="1000"  />

      
      <glyph glyph-name="uni2122" unicode="&#x2122;" d="M461 340L525 340L525 685L676 340L718 340L874 684L874 340L938 340L938 739L832 739L697 455L570 739L461 739ZM205 340L269 340L269 681L413 681L413 739L63 739L63 681L205 681Z"  horiz-adv-x="1000" vert-adv-y="1000"  />

      
      <glyph glyph-name="uni32" unicode="&#x32;" d="M33 0L502 0L502 67L133 67L370 294C474 394 506 448 506 527C506 658 408 752 273 752C129 752 39 655 39 500L112 500C112 617 171 685 272 685C365 685 432 621 432 531C432 463 412 433 292 317L33 67Z"  horiz-adv-x="554" vert-adv-y="1000"  />

      
      <glyph glyph-name="uniE002" unicode="&#xE002;" d="M33 0L502 0L502 67L133 67L370 294C474 394 506 448 506 527C506 658 408 752 273 752C129 752 39 655 39 500L112 500C112 617 171 685 272 685C365 685 432 621 432 531C432 463 412 433 292 317L33 67Z"  horiz-adv-x="541" vert-adv-y="1000"  />

      
      <glyph glyph-name="uni75" unicode="&#x75;" d="M471 0L545 0L545 547L471 547L471 266C471 129 411 55 300 55C191 55 137 120 137 252L137 547L63 547L63 252C63 78 143-13 295-13C380-13 434 17 471 85Z"  horiz-adv-x="608" vert-adv-y="1000"  />

      
      <glyph glyph-name="unifa" unicode="&#xfa;" d="M258 610L451 724L417 782L224 666ZM471 0L545 0L545 547L471 547L471 266C471 129 411 55 300 55C191 55 137 120 137 252L137 547L63 547L63 252C63 78 143-13 295-13C380-13 434 17 471 85Z"  horiz-adv-x="608" vert-adv-y="1000"  />

      
      <glyph glyph-name="unifb" unicode="&#xfb;" d="M127 623L218 623L306 697L392 623L481 623L338 749L272 749ZM471 0L545 0L545 547L471 547L471 266C471 129 411 55 300 55C191 55 137 120 137 252L137 547L63 547L63 252C63 78 143-13 295-13C380-13 434 17 471 85Z"  horiz-adv-x="608" vert-adv-y="1000"  />

      
      <glyph glyph-name="unifc" unicode="&#xfc;" d="M194 623L268 623L268 749L194 749ZM341 623L415 623L415 749L341 749ZM471 0L545 0L545 547L471 547L471 266C471 129 411 55 300 55C191 55 137 120 137 252L137 547L63 547L63 252C63 78 143-13 295-13C380-13 434 17 471 85Z"  horiz-adv-x="608" vert-adv-y="1000"  />

      
      <glyph glyph-name="unif9" unicode="&#xf9;" d="M156 718L353 610L386 666L188 776ZM471 0L545 0L545 547L471 547L471 266C471 129 411 55 300 55C191 55 137 120 137 252L137 547L63 547L63 252C63 78 143-13 295-13C380-13 434 17 471 85Z"  horiz-adv-x="608" vert-adv-y="1000"  />

      
      <glyph glyph-name="uni5f" unicode="&#x5f;" d="M0-125L500-125L500-67L0-67Z"  horiz-adv-x="500" vert-adv-y="1000"  />

      
      <glyph glyph-name="uniad" unicode="&#xad;" d="M31 233L302 233L302 296L31 296Z"  horiz-adv-x="332" vert-adv-y="1000"  />

      
      <glyph glyph-name="unib2" unicode="&#xb2;" d="M12 288L318 288L318 343L101 343L234 464C297 522 320 559 320 606C320 684 254 747 171 747C74 747 16 685 16 583L76 583C76 653 109 692 168 692C218 692 259 654 259 608C259 574 244 553 175 489L12 339Z"  horiz-adv-x="332" vert-adv-y="1000"  />

      
      <glyph glyph-name="unib3" unicode="&#xb3;" d="M13 439C18 340 76 280 166 280C249 280 319 347 319 427C319 477 296 517 249 546C280 574 290 594 290 628C290 695 236 747 167 747C92 747 44 695 43 615L104 615C104 664 127 692 166 692C202 692 229 666 229 631C229 593 199 571 148 571L128 571L128 517L135 517C215 517 258 485 258 425C258 377 215 335 165 335C112 335 77 375 74 439Z"  horiz-adv-x="332" vert-adv-y="1000"  />

      
      <glyph glyph-name="unib9" unicode="&#xb9;" d="M173 288L233 288L233 739L98 739L98 684L173 684Z"  horiz-adv-x="332" vert-adv-y="1000"  />

      
      <glyph glyph-name="uni0237" unicode="&#x0237;" d="M-45-192C1-190 34-180 65-158C122-118 140-71 140 38L140 547L66 547L66 38C66-76 38-116-45-121Z"  horiz-adv-x="203" vert-adv-y="1000"  />

      
      <glyph glyph-name="uni0302" unicode="&#x0302;" d="M-505 623L-414 623L-326 697L-240 623L-151 623L-294 749L-360 749Z"   vert-adv-y="1000"  />

      
      <glyph glyph-name="uni0304" unicode="&#x0304;" d="M-496 643L-159 643L-159 707L-496 707Z"   vert-adv-y="1000"  />

      
      <glyph glyph-name="uni0306" unicode="&#x0306;" d="M-479 743C-464 660-418 623-327 623C-238 623-190 661-175 743L-239 743C-246 702-275 681-327 681C-379 681-408 702-415 743Z"   vert-adv-y="1000"  />

      
      <glyph glyph-name="uniE082" unicode="&#xE082;" d="M-479 746C-465 661-412 616-327 616C-242 616-189 661-175 746L-249 746C-249 691-276 662-327 662C-378 662-405 691-405 746Z"   vert-adv-y="1000"  />

      
      <glyph glyph-name="uni0307" unicode="&#x0307;" d="M-364 623L-290 623L-290 749L-364 749Z"   vert-adv-y="1000"  />

      
      <glyph glyph-name="uni0308" unicode="&#x0308;" d="M-438 623L-364 623L-364 749L-438 749ZM-291 623L-217 623L-217 749L-291 749Z"   vert-adv-y="1000"  />

      
      <glyph glyph-name="uni030A" unicode="&#x030A;" d="M-419 701C-419 651-378 610-327 610C-276 610-235 651-235 702C-235 752-276 794-326 794C-378 794-419 753-419 701ZM-378 701C-378 730-355 753-328 753C-299 753-276 730-276 701C-276 674-299 651-327 651C-355 651-378 673-378 701Z"   vert-adv-y="1000"  />

      
      <glyph glyph-name="uni030B" unicode="&#x030B;" d="M-482 610L-308 731L-346 780L-517 657ZM-286 610L-112 731L-150 780L-321 657Z"   vert-adv-y="1000"  />

      
      <glyph glyph-name="uni030C" unicode="&#x030C;" d="M-505 749L-362 623L-296 623L-151 749L-242 749L-330 675L-416 749Z"   vert-adv-y="1000"  />

      
      <glyph glyph-name="uni030F" unicode="&#x030F;" d="M-330 898L-133 790L-100 846L-298 956ZM-540 898L-343 790L-310 846L-508 956Z"   vert-adv-y="1000"  />

      
      <glyph glyph-name="uni0400" unicode="&#x0400;" d="M76 0L480 0L480 67L150 67L150 340L469 340L469 407L150 407L150 672L480 672L480 739L76 739ZM130 900L327 792L360 848L162 958Z"  horiz-adv-x="536" vert-adv-y="1000"  />

      
      <glyph glyph-name="uni040D" unicode="&#x040D;" d="M215 900L412 792L445 848L247 958ZM76 0L150 0L590 629L590 0L664 0L664 739L590 739L150 110L150 739L76 739Z"  horiz-adv-x="740" vert-adv-y="1000"  />

      
      <glyph glyph-name="uniE0A0" unicode="&#xE0A0;" d="M231 523C111 488 42 394 42 266C42 106 167-13 334-13C495-13 613 105 613 265C613 388 553 475 440 518L175 619C144 631 135 641 135 664C135 693 153 710 181 710L588 710L588 777L181 777C111 777 60 731 60 667C60 611 87 577 149 555L231 526ZM117 265C117 386 206 478 324 478C447 478 538 387 538 264C538 142 452 55 332 55C208 55 117 144 117 265Z"  horiz-adv-x="655" vert-adv-y="1000"  />

      
      <glyph glyph-name="uni0450" unicode="&#x0450;" d="M182 718L379 610L412 666L214 776ZM520 180C489 105 412 55 329 55C216 55 122 141 116 249L610 249C612 259 614 270 614 280C614 432 482 560 325 560C167 560 42 435 42 276C42 114 169-13 331-13C450-13 557 65 597 180ZM118 316C138 421 221 492 325 492C431 492 512 425 537 316Z"  horiz-adv-x="650" vert-adv-y="1000"  />

      
      </font>
</defs>
</svg>
