<?xml version="1.0" encoding="utf-8"?><svg viewBox="0 0 443 323" xmlns="http://www.w3.org/2000/svg" xmlns:xlink="http://www.w3.org/1999/xlink"><style>:root>svg{display:none}:root>svg:target{display:block}</style><svg fill="none" viewBox="0 0 54 31" id="burger" xmlns="http://www.w3.org/2000/svg"><path fill="#D9D9D9" d="M0 0h54v5H0zM0 13h54v5H0zM0 26h54v5H0z"/></svg><svg fill="none" viewBox="0 0 42 43" id="close" xmlns="http://www.w3.org/2000/svg"><path fill="#D9D9D9" d="M3.676 0 41.86 38.184l-3.536 3.535L.14 3.536z"/><path fill="#D9D9D9" d="M0 38.544 38.184.36l3.536 3.536L3.536 42.079z"/></svg><svg fill="none" viewBox="0 0 28 23" id="filters" xmlns="http://www.w3.org/2000/svg"><path d="M0 4.5h15.313m6.805 0h5.104m-15.312 14h15.312M0 18.5h5.104" stroke="#fff" stroke-width="3.111"/><path d="M8.507 22c1.88 0 3.403-1.567 3.403-3.5S10.386 15 8.507 15c-1.88 0-3.403 1.567-3.403 3.5S6.628 22 8.507 22ZM18.715 8c1.88 0 3.403-1.567 3.403-3.5S20.595 1 18.715 1c-1.879 0-3.402 1.567-3.402 3.5S16.835 8 18.715 8Z" stroke="#fff" stroke-width="2"/></svg><svg fill="none" viewBox="0 0 147 87" id="logo" xmlns="http://www.w3.org/2000/svg"><path d="M134.765 43.272c-1.177-.267-2.14-.401-3.05-.669-2.89-.883-5.138-2.542-6.209-5.485-1.124-3.158.054-6.717 2.944-8.911 2.489-1.9 5.379-2.65 8.429-2.757 3.024-.133 6.048-.053 9.072-.053.107 0 .187.053.401.107-.133.187-.214.374-.321.401-1.124.241-1.418 1.15-1.632 2.087-.107.402-.134.83-.134 1.232v28.58c0 .775.214 1.605.482 2.327.16.428.696.723 1.07 1.07.134.134.268.215.402.322-.161.08-.348.214-.509.214h-6.663c-.214 0-.401-.134-.616-.295 1.74-.562 2.114-1.953 2.141-3.425.054-4.736 0-9.446 0-14.183 0-.187-.027-.348-.053-.588-.99.053-1.847.428-2.623.99-1.552 1.097-2.649 2.569-3.586 4.174-1.445 2.462-2.756 4.978-4.228 7.413a21.595 21.595 0 0 1-2.836 3.612c-1.526 1.58-3.479 2.328-5.727 2.302h-2.355c-.16 0-.321-.16-.481-.268.133-.08.267-.24.401-.267 2.462-.322 4.201-1.767 5.62-3.666.856-1.124 1.525-2.355 2.221-3.586 1.124-1.98 2.194-3.988 3.318-5.941 1.07-1.873 2.087-3.827 4.442-4.79l.08.053Zm5.834-16.002c-.696 0-1.338-.027-1.98 0-2.649.134-5.245.482-7.52 2.034-2.06 1.418-2.863 3.425-2.381 5.86.669 3.292 2.89 5.165 6.021 5.834 1.632.348 3.371.214 5.057.348.696.053.883-.188.883-.883-.026-4.121 0-8.242 0-12.363 0-.241 0-.509-.053-.83h-.027ZM12.444 51.086c.723-1.766 1.365-3.291 1.954-4.843.08-.188-.107-.482-.214-.696-1.044-1.66-2.114-3.292-3.158-4.95-.428-.643-.455-1.339-.027-1.981.402-.616 1.017-.883 1.686-.696.428.134.937.428 1.178.803a132.422 132.422 0 0 1 3.934 6.128c.267.455.294 1.177.16 1.713-.482 1.873-1.07 3.72-1.632 5.566-.134.428-.107.722.32.883 1.152.428 2.276.856 3.453 1.23.562.188.963-.053 1.23-.642a42.717 42.717 0 0 1 1.687-3.532c.214-.375.588-.75.963-.936 1.66-.723 3.372-1.392 5.058-2.088.83-.348 1.578-.08 1.846.616.268.695-.053 1.338-.937 1.712-1.391.59-2.81 1.124-4.2 1.713-.295.134-.643.428-.75.696-.455 1.525-.883 3.05-1.178 4.603-.214 1.15.054 2.274.67 3.318.642 1.07 1.257 2.14 1.926 3.291a942.836 942.836 0 0 1 4.309-3.264c.267-.188.615-.509.883-.455.455.08 1.016.294 1.284.642.375.508.188 1.124-.321 1.525-1.124.883-2.275 1.74-3.425 2.623-.696.535-1.419 1.07-2.114 1.605-.91.67-1.552.562-2.141-.374-.83-1.285-1.66-2.543-2.409-3.854-.374-.669-.883-.937-1.605-1.044-2.622-.32-5.084-1.097-7.493-2.14-2.06-.883-3.532-2.302-4.201-4.55-.535-1.766-1.311-3.451-2.034-5.164-.134-.294-.428-.589-.722-.75-1.74-.936-3.533-1.82-5.299-2.729-.722-.375-1.15-.91-1.124-1.74.054-1.177 1.285-1.98 2.382-1.444a204.62 204.62 0 0 1 6.824 3.505c.32.188.588.589.776.937.802 1.472 1.605 2.997 2.515 4.71l-.053.053ZM96.177 30.936c-.134.375-.24.642-.348.883-3.13 8.59-6.262 17.153-9.393 25.743-.16.428-.294.83-.508 1.231-1.177 2.435-2.863 3.319-5.54 2.944-.133 0-.267-.16-.4-.268.106-.107.187-.24.294-.294 2.301-.696 3.505-2.355 4.281-4.522a11110.8 11110.8 0 0 1 9.928-27.215 8.104 8.104 0 0 0 .428-1.58c.134-.829-.187-1.471-.936-1.9-.188-.106-.321-.267-.482-.427a.798.798 0 0 1 .107-.214c1.392 0 2.81 0 4.201.026.188 0 .402.402.509.67 2.274 6.154 4.496 12.309 6.77 18.437 1.713 4.71 3.452 9.393 5.165 14.102.455 1.258 1.204 2.168 2.542 2.543.134.026.268.187.375.294-.161.08-.322.268-.482.268h-6.904c-.161 0-.321-.107-.455-.188.107-.133.214-.32.348-.401.963-.508 1.177-.963.803-1.954-3.345-9.232-6.69-18.437-10.035-27.67-.054-.16-.16-.32-.295-.588l.027.08ZM65.75 43.487v42.146c0 .937-.24 1.338-.91 1.365-.615.027-1.016-.24-1.097-.856-.053-.268 0-.562 0-.856V1.688c0-.295-.026-.59 0-.857.108-.562.482-.856 1.07-.83.536 0 .884.322.938.857.026.294 0 .562 0 .856v41.773Z" fill="#fff"/><path d="M27.378 59.542c-1.58 0-2.89-1.284-2.917-2.89 0-1.605 1.23-2.917 2.837-2.917 1.632 0 2.97 1.285 2.97 2.917 0 1.579-1.338 2.89-2.917 2.89h.027ZM19.188 30.775V40.088c-.027.133-.16.214-.268.32-.107-.106-.268-.187-.294-.294-.054-.187-.027-.4-.027-.615V21.864c.107-.267.214-.562.321-.83.107.268.268.536.268.803v8.938ZM6.237 33.639v5.86c0 .268-.187.509-.294.75-.107-.241-.268-.482-.268-.723V27.485c.08-.188.188-.376.268-.563.107.187.321.401.321.589v6.101l-.027.027ZM27.056 38.723v-5.7c0-.24.187-.481.294-.695.107.214.294.455.294.669v11.506c0 .241-.187.482-.267.723-.107-.24-.295-.455-.295-.696v-5.78l-.026-.027ZM21.009 25.557c.508.803.508 11.266.053 12.015-.107-.348-.268-.588-.268-.803V26.44c0-.24.107-.455.215-.883Z" fill="#fff"/></svg><svg fill="none" viewBox="0 0 443 323" id="logo-wide" xmlns="http://www.w3.org/2000/svg"><g clip-path="url(#da)" fill="#fff"><path d="M410.449 120.15c-3.269-.743-5.944-1.114-8.47-1.857-8.025-2.452-14.267-7.059-17.239-15.233-3.121-8.768.149-18.65 8.174-24.743 6.91-5.276 14.935-7.356 23.405-7.653 8.397-.372 16.793-.15 25.19-.15.297 0 .52.15 1.114.298-.371.52-.594 1.04-.891 1.115-3.121.668-3.939 3.195-4.533 5.795-.297 1.115-.371 2.304-.371 3.418v79.358c0 2.154.594 4.458 1.337 6.464.446 1.189 1.932 2.006 2.972 2.972.372.372.743.595 1.115.892-.446.223-.966.594-1.412.594h-18.502c-.594 0-1.114-.371-1.709-.817 4.83-1.56 5.87-5.424 5.945-9.511.148-13.152 0-26.23 0-39.381 0-.521-.075-.966-.149-1.635-2.749.149-5.127 1.189-7.282 2.749-4.31 3.047-7.356 7.133-9.957 11.592-4.012 6.836-7.653 13.82-11.74 20.582a60.003 60.003 0 0 1-7.876 10.031c-4.235 4.384-9.66 6.465-15.901 6.39h-6.539c-.446 0-.892-.446-1.338-.743.372-.223.744-.669 1.115-.743 6.836-.891 11.666-4.904 15.604-10.18 2.378-3.12 4.235-6.538 6.167-9.956 3.121-5.499 6.093-11.072 9.214-16.496 2.972-5.201 5.796-10.625 12.335-13.3l.222.148Zm16.199-44.434c-1.932 0-3.715-.074-5.499 0-7.356.372-14.563 1.338-20.879 5.647-5.722 3.938-7.951 9.511-6.613 16.273 1.857 9.139 8.025 14.341 16.718 16.198 4.533.966 9.362.595 14.044.966 1.932.149 2.452-.52 2.452-2.452-.075-11.443 0-22.885 0-34.328 0-.67 0-1.412-.149-2.304h-.074ZM70.802 141.847c2.006-4.904 3.79-9.139 5.424-13.449.223-.52-.297-1.337-.594-1.932-2.898-4.607-5.87-9.139-8.768-13.746-1.19-1.784-1.263-3.715-.075-5.499 1.115-1.709 2.824-2.452 4.682-1.932 1.188.372 2.6 1.189 3.27 2.229 3.789 5.573 7.43 11.22 10.922 17.016.743 1.263.817 3.27.446 4.756-1.338 5.201-2.972 10.328-4.533 15.455-.371 1.189-.297 2.006.892 2.452 3.195 1.189 6.316 2.378 9.585 3.418 1.56.52 2.675-.149 3.418-1.783a118.568 118.568 0 0 1 4.681-9.808c.595-1.041 1.635-2.081 2.675-2.601 4.607-2.006 9.362-3.864 14.044-5.796 2.303-.966 4.384-.223 5.127 1.709.743 1.932-.149 3.715-2.601 4.756-3.864 1.634-7.802 3.12-11.666 4.755-.817.372-1.783 1.189-2.08 1.932-1.263 4.235-2.452 8.471-3.27 12.78-.594 3.195.149 6.316 1.858 9.214 1.783 2.972 3.492 5.944 5.35 9.14 4.087-3.121 8.025-6.093 11.963-9.066.743-.52 1.709-1.411 2.452-1.263 1.263.223 2.823.818 3.567 1.784 1.04 1.411.52 3.12-.892 4.235-3.121 2.452-6.316 4.83-9.511 7.282-1.932 1.486-3.938 2.972-5.87 4.458-2.527 1.858-4.31 1.56-5.945-1.04-2.303-3.567-4.606-7.059-6.687-10.7-1.04-1.858-2.452-2.601-4.458-2.898-7.282-.892-14.118-3.046-20.805-5.944-5.722-2.452-9.809-6.391-11.666-12.632-1.486-4.904-3.641-9.585-5.647-14.341-.372-.817-1.19-1.635-2.007-2.08-4.83-2.601-9.808-5.053-14.712-7.579-2.006-1.041-3.195-2.527-3.12-4.83.148-3.27 3.566-5.499 6.613-4.013 6.39 3.121 12.706 6.391 18.947 9.734.892.52 1.635 1.635 2.155 2.601 2.229 4.087 4.458 8.322 6.985 13.077l-.15.149ZM303.301 85.896a33.558 33.558 0 0 1-.966 2.452c-8.693 23.852-17.387 47.629-26.08 71.481-.446 1.189-.818 2.304-1.412 3.418-3.27 6.762-7.951 9.214-15.381 8.174-.372 0-.743-.446-1.115-.743.297-.298.52-.669.818-.818 6.39-1.932 9.733-6.539 11.888-12.557 9.14-25.189 18.353-50.379 27.567-75.568.52-1.412.966-2.898 1.189-4.384.372-2.303-.52-4.087-2.601-5.275-.52-.298-.891-.743-1.337-1.19.074-.222.149-.37.297-.594 3.864 0 7.802 0 11.666.075.52 0 1.114 1.114 1.412 1.857 6.316 17.09 12.483 34.18 18.799 51.196 4.755 13.078 9.585 26.081 14.34 39.158 1.264 3.493 3.344 6.019 7.059 7.059.372.075.743.52 1.041.818-.446.223-.892.743-1.338.743h-19.17c-.446 0-.892-.298-1.264-.52.298-.372.595-.892.966-1.115 2.675-1.412 3.27-2.675 2.23-5.424-9.289-25.635-18.577-51.196-27.865-76.831-.148-.446-.445-.892-.817-1.635l.074.223ZM218.816 120.745v117.029c0 2.601-.669 3.716-2.527 3.79-1.709.074-2.823-.669-3.046-2.378-.149-.743 0-1.56 0-2.378V4.681c0-.817-.074-1.634 0-2.377.297-1.56 1.337-2.378 2.972-2.304 1.486 0 2.452.892 2.601 2.378.074.817 0 1.56 0 2.378v115.989ZM342.012 306.357c0 9.363-7.431 16.57-17.016 16.57-9.065 0-16.05-7.059-16.05-16.198 0-9.437 7.505-17.016 16.719-16.942 9.511.149 16.421 7.059 16.347 16.57Zm-17.016-14.935c-1.263.297-2.601.446-3.789.892-8.471 3.121-11.666 14.415-6.316 22.44 3.269 4.904 7.95 7.207 12.854 6.241 7.728-1.486 12.558-9.585 10.626-17.684-1.709-6.91-7.133-11.74-13.301-11.889h-.074ZM106.766 304.574c.521.223.892.371 1.264.52 3.789 1.56 5.572 4.384 5.424 8.768-.074 3.715-2.155 6.91-5.87 7.653-4.31.892-8.842.892-13.003 1.263.445-1.857 1.04-3.269 1.04-4.755.074-7.802.074-15.679 0-23.48 0-1.412-.595-2.75-1.04-4.384 3.12.148 6.613.148 10.105.52 3.195.371 5.647 2.006 6.464 5.275.818 3.344-.743 5.87-3.418 7.802-.297.223-.52.446-.966.743v.075Zm-7.653 16.124c3.864.148 7.728.446 10.254-3.195 1.561-2.23 1.115-6.242-.817-8.768-1.858-2.527-5.722-3.641-9.437-2.601v14.564Zm0-28.607v12.037c3.195.148 6.316.371 8.248-2.601 1.337-2.08 1.263-4.458 0-6.613-1.858-3.046-4.904-3.195-8.174-2.898l-.074.075ZM377.827 304.648c4.607 1.486 6.911 4.384 6.762 9.14-.148 4.755-3.269 7.802-8.916 8.619-.892.149-1.709.074-2.601.149h-7.356c.371-1.561.966-3.047.966-4.459.074-7.653.074-15.381 0-23.034 0-1.486-.595-3.047-.966-4.756 3.046.149 6.464.149 9.882.521 3.27.371 5.87 2.006 6.613 5.349.818 3.493-.891 6.019-3.715 7.951-.148.149-.297.297-.817.669l.148-.149Zm-7.653 16.124c4.087.075 8.025.446 10.403-3.492 1.411-2.303.817-6.316-1.115-8.768-1.932-2.452-5.944-3.418-9.288-2.303v14.563Zm.074-16.644c3.121.074 6.316.446 8.248-2.601 1.412-2.154 1.263-4.606-.074-6.761-1.932-2.972-4.904-3.047-8.174-2.675v12.037ZM242.744 290.382c-.298 1.486-.892 2.897-.892 4.384-.074 7.876-.074 15.826 0 23.703 0 1.263.594 2.526.892 3.864h-5.202c.298-1.412.892-2.973.966-4.533.149-3.79 0-7.505 0-11.369-2.08-.223-3.195.966-4.012 2.229-1.635 2.378-3.047 4.979-4.533 7.357a39.244 39.244 0 0 1-2.898 4.012c-1.932 2.229-4.532 2.601-8.024 2.229 5.572-1.56 7.058-6.167 9.362-10.031 1.263-2.155 2.749-4.161 4.087-6.316-.669-.223-1.784-.52-2.898-.966-2.675-1.114-4.459-3.046-4.681-6.018-.223-3.047 1.188-5.425 3.863-6.762 1.858-.892 3.939-1.56 5.945-1.783 2.749-.298 5.573-.075 8.025-.075v.075Zm-4.31 1.188c-2.601.595-5.053.818-7.208 1.709-3.566 1.487-4.309 5.35-1.931 8.397 1.857 2.378 5.647 3.344 9.139 2.303V291.57ZM267.931 290.382h5.573c-2.526 3.938-.817 8.247-1.114 12.409 3.938-4.013 8.619-7.282 11.888-12.409h3.344c-4.013 4.681-8.322 9.585-12.632 14.563-.297-.223-.594-.371-.891-.594.743.149 1.486.223 2.229.371 2.675.743 4.532 2.452 5.721 4.905 1.115 2.229 2.155 4.384 3.269 6.613 1.264 2.526 2.75 4.904 5.871 5.944-4.162.669-6.391-.297-8.248-3.715-1.486-2.675-2.824-5.424-4.161-8.099-1.338-2.601-3.344-4.087-6.242-4.31-1.189 3.715-.52 14.564 1.189 16.273h-5.796c.297-1.412.892-2.898.892-4.384.074-7.877.074-15.827 0-23.703 0-1.264-.595-2.527-.966-3.864h.074Z"/><path d="M112.266 165.327c-4.384 0-8.025-3.566-8.099-8.025 0-4.458 3.418-8.099 7.876-8.099 4.533 0 8.248 3.567 8.248 8.099 0 4.384-3.715 8.025-8.099 8.025h.074ZM56.759 303.682c2.675.297 5.053.372 7.356.892 4.978 1.114 7.356 4.235 7.282 8.842-.075 4.235-2.972 7.505-7.58 8.545-.742.149-1.56.372-2.377.372h-8.917c.298-1.561.892-3.121.892-4.682.074-7.653.074-15.381 0-23.034 0-1.412-.594-2.749-.892-4.235h5.425c-2.378 4.235-.595 8.842-1.19 13.226v.074Zm.074 17.387c2.452-.445 4.681-.668 6.762-1.263 2.377-.743 3.864-2.452 4.235-4.978.966-5.945-4.755-10.626-11.071-8.842v15.083h.074ZM141.69 303.682c2.601.297 5.053.371 7.356.892 4.904 1.114 7.505 4.383 7.356 8.842-.074 4.235-3.121 7.876-7.802 8.619-3.789.594-7.653.52-11.145.669.297-2.006.817-3.79.891-5.573.075-7.505.075-15.084 0-22.589 0-1.337-.594-2.675-.891-4.012h5.424c-2.378 4.235-.595 8.842-1.263 13.226l.074-.074Zm.149 17.016c1.188 0 2.154.074 3.046 0 3.418-.446 6.613-1.264 7.802-5.127 1.783-6.093-4.012-11.369-10.848-9.66v14.787ZM13.07 290.382c1.98-.248 3.343.668 4.086 2.749 3.121 8.471 6.167 17.016 9.363 25.486.52 1.338 1.486 2.527 2.154 3.716h-5.572c.074-.818.52-1.784.222-2.527-2.749-7.876-5.647-15.678-8.47-23.48 0-.223-.223-.371-.52-.817a1545.239 1545.239 0 0 0-3.196 8.619c-1.783 4.904-3.492 9.808-5.35 14.712-1.114 3.047-2.377 3.79-5.498 3.493 3.195-1.189 3.864-4.087 4.83-6.762 2.526-6.91 5.127-13.821 7.579-20.805.446-1.263.223-2.675.371-4.236v-.148ZM432.589 322.407h-5.35c0-1.115.223-2.229 0-3.121-1.04-3.195-2.377-6.39-3.492-9.585-.372-1.115-.966-1.635-2.229-1.56-2.229.148-4.979-.669-6.613.371-1.486.966-1.784 3.79-2.527 5.796-.594 1.486-1.263 2.972-1.634 4.458-.223 1.115 0 2.304 0 3.567h-3.864c.817-1.561 1.783-2.972 2.378-4.607 3.269-8.471 6.39-16.942 9.585-25.412.223-.669.52-1.338.966-2.304.446.966.743 1.635.966 2.229l9.585 25.858c.595 1.486 1.486 2.824 2.304 4.236l-.075.074ZM418.843 296.4c-1.338 3.716-2.452 6.837-3.641 10.032h7.356c-1.189-3.27-2.378-6.391-3.715-10.032ZM165.689 322.407h-5.127c.297-1.709.817-3.418.817-5.127.075-7.579.075-15.232 0-22.811 0-1.338-.52-2.675-.817-4.013h5.053c-.223 1.561-.743 3.195-.743 4.83-.075 7.653-.075 15.381 0 23.034 0 1.338.52 2.675.891 4.087h-.074ZM89.525 85.45v25.858c-.074.371-.446.594-.743.892-.297-.298-.743-.521-.817-.818-.149-.52-.074-1.114-.074-1.709V60.707c.297-.743.594-1.56.891-2.304.297.743.743 1.486.743 2.23V85.45ZM53.565 93.4v16.273c0 .743-.52 1.412-.818 2.081-.297-.669-.743-1.338-.743-2.006V76.311c.223-.52.52-1.04.743-1.56.298.52.892 1.114.892 1.634v16.941l-.074.075ZM111.372 107.519V91.692c0-.669.52-1.338.817-1.932.298.594.818 1.263.818 1.858v31.95c0 .669-.52 1.338-.743 2.007-.297-.669-.818-1.263-.818-1.932v-16.05l-.074-.074ZM94.58 70.96c1.412 2.23 1.412 31.283.149 33.363-.297-.966-.743-1.634-.743-2.229V73.413c0-.67.297-1.264.594-2.452Z"/></g><defs><clipPath id="da"><path fill="#fff" transform="translate(.361)" d="M0 0h442.334v322.927H0z"/></clipPath></defs></svg><svg fill="none" viewBox="0 0 60 60" id="play" xmlns="http://www.w3.org/2000/svg"><circle cx="30" cy="30" r="30" fill="#fff"/><path d="M42.682 28.739a.879.879 0 0 1 0 1.522L23.568 41.296a.879.879 0 0 1-1.318-.76V18.464c0-.677.732-1.1 1.318-.761l19.114 11.035Z" fill="#000"/></svg><svg fill="none" viewBox="0 0 93 93" id="play-black" xmlns="http://www.w3.org/2000/svg"><circle cx="46.5" cy="46.5" r="45.5" stroke="#000" stroke-width="2"/><path d="M66 45.268c1.333.77 1.333 2.694 0 3.464L39 64.32c-1.333.77-3-.192-3-1.731V31.412c0-1.54 1.667-2.502 3-1.732l27 15.588Z" fill="#000"/></svg></svg>