<svg width="147" height="87" fill="none" xmlns="http://www.w3.org/2000/svg"><path d="M134.765 43.272c-1.177-.267-2.14-.401-3.05-.669-2.89-.883-5.138-2.542-6.209-5.485-1.124-3.158.054-6.717 2.944-8.911 2.489-1.9 5.379-2.65 8.429-2.757 3.024-.133 6.048-.053 9.072-.053.107 0 .187.053.401.107-.133.187-.214.374-.321.401-1.124.241-1.418 1.15-1.632 2.087-.107.402-.134.83-.134 1.232v28.58c0 .775.214 1.605.482 2.327.16.428.696.723 1.07 1.07.134.134.268.215.402.322-.161.08-.348.214-.509.214h-6.663c-.214 0-.401-.134-.616-.295 1.74-.562 2.114-1.953 2.141-3.425.054-4.736 0-9.446 0-14.183 0-.187-.027-.348-.053-.588-.99.053-1.847.428-2.623.99-1.552 1.097-2.649 2.569-3.586 4.174-1.445 2.462-2.756 4.978-4.228 7.413a21.595 21.595 0 0 1-2.836 3.612c-1.526 1.58-3.479 2.328-5.727 2.302h-2.355c-.16 0-.321-.16-.481-.268.133-.08.267-.24.401-.267 2.462-.322 4.201-1.767 5.62-3.666.856-1.124 1.525-2.355 2.221-3.586 1.124-1.98 2.194-3.988 3.318-5.941 1.07-1.873 2.087-3.827 4.442-4.79l.08.053Zm5.834-16.002c-.696 0-1.338-.027-1.98 0-2.649.134-5.245.482-7.52 2.034-2.06 1.418-2.863 3.425-2.381 5.86.669 3.292 2.89 5.165 6.021 5.834 1.632.348 3.371.214 5.057.348.696.053.883-.188.883-.883-.026-4.121 0-8.242 0-12.363 0-.241 0-.509-.053-.83h-.027ZM12.444 51.086c.723-1.766 1.365-3.291 1.954-4.843.08-.188-.107-.482-.214-.696-1.044-1.66-2.114-3.292-3.158-4.95-.428-.643-.455-1.339-.027-1.981.402-.616 1.017-.883 1.686-.696.428.134.937.428 1.178.803a132.422 132.422 0 0 1 3.934 6.128c.267.455.294 1.177.16 1.713-.482 1.873-1.07 3.72-1.632 5.566-.134.428-.107.722.32.883 1.152.428 2.276.856 3.453 1.23.562.188.963-.053 1.23-.642a42.717 42.717 0 0 1 1.687-3.532c.214-.375.588-.75.963-.936 1.66-.723 3.372-1.392 5.058-2.088.83-.348 1.578-.08 1.846.616.268.695-.053 1.338-.937 1.712-1.391.59-2.81 1.124-4.2 1.713-.295.134-.643.428-.75.696-.455 1.525-.883 3.05-1.178 4.603-.214 1.15.054 2.274.67 3.318.642 1.07 1.257 2.14 1.926 3.291a942.836 942.836 0 0 1 4.309-3.264c.267-.188.615-.509.883-.455.455.08 1.016.294 1.284.642.375.508.188 1.124-.321 1.525-1.124.883-2.275 1.74-3.425 2.623-.696.535-1.419 1.07-2.114 1.605-.91.67-1.552.562-2.141-.374-.83-1.285-1.66-2.543-2.409-3.854-.374-.669-.883-.937-1.605-1.044-2.622-.32-5.084-1.097-7.493-2.14-2.06-.883-3.532-2.302-4.201-4.55-.535-1.766-1.311-3.451-2.034-5.164-.134-.294-.428-.589-.722-.75-1.74-.936-3.533-1.82-5.299-2.729-.722-.375-1.15-.91-1.124-1.74.054-1.177 1.285-1.98 2.382-1.444a204.62 204.62 0 0 1 6.824 3.505c.32.188.588.589.776.937.802 1.472 1.605 2.997 2.515 4.71l-.053.053Zm83.733-20.15c-.134.375-.24.642-.348.883-3.13 8.59-6.262 17.153-9.393 25.743-.16.428-.294.83-.508 1.231-1.177 2.435-2.863 3.319-5.54 2.944-.133 0-.267-.16-.4-.268.106-.107.187-.24.294-.294 2.301-.696 3.505-2.355 4.281-4.522a11110.8 11110.8 0 0 1 9.928-27.215 8.104 8.104 0 0 0 .428-1.58c.134-.829-.187-1.471-.936-1.9-.188-.106-.321-.267-.482-.427a.798.798 0 0 1 .107-.214c1.392 0 2.81 0 4.201.026.188 0 .402.402.509.67 2.274 6.154 4.496 12.309 6.77 18.437 1.713 4.71 3.452 9.393 5.165 14.102.455 1.258 1.204 2.168 2.542 2.543.134.026.268.187.375.294-.161.08-.322.268-.482.268h-6.904c-.161 0-.321-.107-.455-.188.107-.133.214-.32.348-.401.963-.508 1.177-.963.803-1.954-3.345-9.232-6.69-18.437-10.035-27.67-.054-.16-.16-.32-.295-.588l.027.08ZM65.75 43.487v42.146c0 .937-.24 1.338-.91 1.365-.615.027-1.016-.24-1.097-.856-.053-.268 0-.562 0-.856V1.688c0-.295-.026-.59 0-.857.108-.562.482-.856 1.07-.83.536 0 .884.322.938.857.026.294 0 .562 0 .856v41.773Z" fill="#fff"/><path d="M27.378 59.542c-1.58 0-2.89-1.284-2.917-2.89 0-1.605 1.23-2.917 2.837-2.917 1.632 0 2.97 1.285 2.97 2.917 0 1.579-1.338 2.89-2.917 2.89h.027Zm-8.19-28.767v9.313c-.027.133-.16.214-.268.32-.107-.106-.268-.187-.294-.294-.054-.187-.027-.4-.027-.615V21.864c.107-.267.214-.562.321-.83.107.268.268.536.268.803v8.938ZM6.237 33.639v5.86c0 .268-.187.509-.294.75-.107-.241-.268-.482-.268-.723V27.485c.08-.188.188-.376.268-.563.107.187.321.401.321.589v6.101l-.027.027Zm20.819 5.084v-5.7c0-.24.187-.481.294-.695.107.214.294.455.294.669v11.506c0 .241-.187.482-.267.723-.107-.24-.295-.455-.295-.696v-5.78l-.026-.027Zm-6.047-13.166c.508.803.508 11.266.053 12.015-.107-.348-.268-.588-.268-.803V26.44c0-.24.107-.455.215-.883Z" fill="#fff"/></svg>