<svg width="443" height="323" fill="none" xmlns="http://www.w3.org/2000/svg"><g clip-path="url(#a)" fill="#fff"><path d="M410.449 120.15c-3.269-.743-5.944-1.114-8.47-1.857-8.025-2.452-14.267-7.059-17.239-15.233-3.121-8.768.149-18.65 8.174-24.743 6.91-5.276 14.935-7.356 23.405-7.653 8.397-.372 16.793-.15 25.19-.15.297 0 .52.15 1.114.298-.371.52-.594 1.04-.891 1.115-3.121.668-3.939 3.195-4.533 5.795-.297 1.115-.371 2.304-.371 3.418v79.358c0 2.154.594 4.458 1.337 6.464.446 1.189 1.932 2.006 2.972 2.972.372.372.743.595 1.115.892-.446.223-.966.594-1.412.594h-18.502c-.594 0-1.114-.371-1.709-.817 4.83-1.56 5.87-5.424 5.945-9.511.148-13.152 0-26.23 0-39.381 0-.521-.075-.966-.149-1.635-2.749.149-5.127 1.189-7.282 2.749-4.31 3.047-7.356 7.133-9.957 11.592-4.012 6.836-7.653 13.82-11.74 20.582a60.003 60.003 0 0 1-7.876 10.031c-4.235 4.384-9.66 6.465-15.901 6.39h-6.539c-.446 0-.892-.446-1.338-.743.372-.223.744-.669 1.115-.743 6.836-.891 11.666-4.904 15.604-10.18 2.378-3.12 4.235-6.538 6.167-9.956 3.121-5.499 6.093-11.072 9.214-16.496 2.972-5.201 5.796-10.625 12.335-13.3l.222.148Zm16.199-44.434c-1.932 0-3.715-.074-5.499 0-7.356.372-14.563 1.338-20.879 5.647-5.722 3.938-7.951 9.511-6.613 16.273 1.857 9.139 8.025 14.341 16.718 16.198 4.533.966 9.362.595 14.044.966 1.932.149 2.452-.52 2.452-2.452-.075-11.443 0-22.885 0-34.328 0-.67 0-1.412-.149-2.304h-.074ZM70.802 141.847c2.006-4.904 3.79-9.139 5.424-13.449.223-.52-.297-1.337-.594-1.932-2.898-4.607-5.87-9.139-8.768-13.746-1.19-1.784-1.263-3.715-.075-5.499 1.115-1.709 2.824-2.452 4.682-1.932 1.188.372 2.6 1.189 3.27 2.229a367.99 367.99 0 0 1 10.922 17.016c.743 1.263.817 3.27.446 4.756-1.338 5.201-2.972 10.328-4.533 15.455-.371 1.189-.297 2.006.892 2.452 3.195 1.189 6.316 2.378 9.585 3.418 1.56.52 2.675-.149 3.418-1.783a118.568 118.568 0 0 1 4.681-9.808c.595-1.041 1.635-2.081 2.675-2.601 4.607-2.006 9.362-3.864 14.044-5.796 2.303-.966 4.384-.223 5.127 1.709.743 1.932-.149 3.715-2.601 4.756-3.864 1.634-7.802 3.12-11.666 4.755-.817.372-1.783 1.189-2.08 1.932-1.263 4.235-2.452 8.471-3.27 12.78-.594 3.195.149 6.316 1.858 9.214 1.783 2.972 3.492 5.944 5.35 9.14 4.087-3.121 8.025-6.093 11.963-9.066.743-.52 1.709-1.411 2.452-1.263 1.263.223 2.823.818 3.567 1.784 1.04 1.411.52 3.12-.892 4.235-3.121 2.452-6.316 4.83-9.511 7.282-1.932 1.486-3.938 2.972-5.87 4.458-2.527 1.858-4.31 1.56-5.945-1.04-2.303-3.567-4.606-7.059-6.687-10.7-1.04-1.858-2.452-2.601-4.458-2.898-7.282-.892-14.118-3.046-20.805-5.944-5.722-2.452-9.809-6.391-11.666-12.632-1.486-4.904-3.641-9.585-5.647-14.341-.372-.817-1.19-1.635-2.007-2.08-4.83-2.601-9.808-5.053-14.712-7.579-2.006-1.041-3.195-2.527-3.12-4.83.148-3.27 3.566-5.499 6.613-4.013 6.39 3.121 12.706 6.391 18.947 9.734.892.52 1.635 1.635 2.155 2.601 2.229 4.087 4.458 8.322 6.985 13.077l-.15.149Zm232.499-55.951a33.558 33.558 0 0 1-.966 2.452c-8.693 23.852-17.387 47.629-26.08 71.481-.446 1.189-.818 2.304-1.412 3.418-3.27 6.762-7.951 9.214-15.381 8.174-.372 0-.743-.446-1.115-.743.297-.298.52-.669.818-.818 6.39-1.932 9.733-6.539 11.888-12.557 9.14-25.189 18.353-50.379 27.567-75.568.52-1.412.966-2.898 1.189-4.384.372-2.303-.52-4.087-2.601-5.275-.52-.298-.891-.743-1.337-1.19a2.26 2.26 0 0 1 .297-.594c3.864 0 7.802 0 11.666.075.52 0 1.114 1.114 1.412 1.857 6.316 17.09 12.483 34.18 18.799 51.196 4.755 13.078 9.585 26.081 14.34 39.158 1.264 3.493 3.344 6.019 7.059 7.059.372.075.743.52 1.041.818-.446.223-.892.743-1.338.743h-19.17c-.446 0-.892-.298-1.264-.52.298-.372.595-.892.966-1.115 2.675-1.412 3.27-2.675 2.23-5.424-9.289-25.635-18.577-51.196-27.865-76.831-.148-.446-.445-.892-.817-1.635l.074.223Zm-84.485 34.849v117.029c0 2.601-.669 3.716-2.527 3.79-1.709.074-2.823-.669-3.046-2.378-.149-.743 0-1.56 0-2.378V4.681c0-.817-.074-1.634 0-2.377.297-1.56 1.337-2.378 2.972-2.304 1.486 0 2.452.892 2.601 2.378.074.817 0 1.56 0 2.378v115.989Zm123.196 185.612c0 9.363-7.431 16.57-17.016 16.57-9.065 0-16.05-7.059-16.05-16.198 0-9.437 7.505-17.016 16.719-16.942 9.511.149 16.421 7.059 16.347 16.57Zm-17.016-14.935c-1.263.297-2.601.446-3.789.892-8.471 3.121-11.666 14.415-6.316 22.44 3.269 4.904 7.95 7.207 12.854 6.241 7.728-1.486 12.558-9.585 10.626-17.684-1.709-6.91-7.133-11.74-13.301-11.889h-.074Zm-218.23 13.152c.521.223.892.371 1.264.52 3.789 1.56 5.572 4.384 5.424 8.768-.074 3.715-2.155 6.91-5.87 7.653-4.31.892-8.842.892-13.003 1.263.445-1.857 1.04-3.269 1.04-4.755.074-7.802.074-15.679 0-23.48 0-1.412-.595-2.75-1.04-4.384 3.12.148 6.613.148 10.105.52 3.195.371 5.647 2.006 6.464 5.275.818 3.344-.743 5.87-3.418 7.802-.297.223-.52.446-.966.743v.075Zm-7.653 16.124c3.864.148 7.728.446 10.254-3.195 1.561-2.23 1.115-6.242-.817-8.768-1.858-2.527-5.722-3.641-9.437-2.601v14.564Zm0-28.607v12.037c3.195.148 6.316.371 8.248-2.601 1.337-2.08 1.263-4.458 0-6.613-1.858-3.046-4.904-3.195-8.174-2.898l-.074.075Zm278.714 12.557c4.607 1.486 6.911 4.384 6.762 9.14-.148 4.755-3.269 7.802-8.916 8.619-.892.149-1.709.074-2.601.149h-7.356c.371-1.561.966-3.047.966-4.459.074-7.653.074-15.381 0-23.034 0-1.486-.595-3.047-.966-4.756 3.046.149 6.464.149 9.882.521 3.27.371 5.87 2.006 6.613 5.349.818 3.493-.891 6.019-3.715 7.951-.148.149-.297.297-.817.669l.148-.149Zm-7.653 16.124c4.087.075 8.025.446 10.403-3.492 1.411-2.303.817-6.316-1.115-8.768-1.932-2.452-5.944-3.418-9.288-2.303v14.563Zm.074-16.644c3.121.074 6.316.446 8.248-2.601 1.412-2.154 1.263-4.606-.074-6.761-1.932-2.972-4.904-3.047-8.174-2.675v12.037Zm-127.504-13.746c-.298 1.486-.892 2.897-.892 4.384-.074 7.876-.074 15.826 0 23.703 0 1.263.594 2.526.892 3.864h-5.202c.298-1.412.892-2.973.966-4.533.149-3.79 0-7.505 0-11.369-2.08-.223-3.195.966-4.012 2.229-1.635 2.378-3.047 4.979-4.533 7.357a39.244 39.244 0 0 1-2.898 4.012c-1.932 2.229-4.532 2.601-8.024 2.229 5.572-1.56 7.058-6.167 9.362-10.031 1.263-2.155 2.749-4.161 4.087-6.316-.669-.223-1.784-.52-2.898-.966-2.675-1.114-4.459-3.046-4.681-6.018-.223-3.047 1.188-5.425 3.863-6.762 1.858-.892 3.939-1.56 5.945-1.783 2.749-.298 5.573-.075 8.025-.075v.075Zm-4.31 1.188c-2.601.595-5.053.818-7.208 1.709-3.566 1.487-4.309 5.35-1.931 8.397 1.857 2.378 5.647 3.344 9.139 2.303V291.57Zm29.497-1.188h5.573c-2.526 3.938-.817 8.247-1.114 12.409 3.938-4.013 8.619-7.282 11.888-12.409h3.344c-4.013 4.681-8.322 9.585-12.632 14.563-.297-.223-.594-.371-.891-.594.743.149 1.486.223 2.229.371 2.675.743 4.532 2.452 5.721 4.905 1.115 2.229 2.155 4.384 3.269 6.613 1.264 2.526 2.75 4.904 5.871 5.944-4.162.669-6.391-.297-8.248-3.715-1.486-2.675-2.824-5.424-4.161-8.099-1.338-2.601-3.344-4.087-6.242-4.31-1.189 3.715-.52 14.564 1.189 16.273h-5.796c.297-1.412.892-2.898.892-4.384.074-7.877.074-15.827 0-23.703 0-1.264-.595-2.527-.966-3.864h.074Z"/><path d="M112.266 165.327c-4.384 0-8.025-3.566-8.099-8.025 0-4.458 3.418-8.099 7.876-8.099 4.533 0 8.248 3.567 8.248 8.099 0 4.384-3.715 8.025-8.099 8.025h.074ZM56.759 303.682c2.675.297 5.053.372 7.356.892 4.978 1.114 7.356 4.235 7.282 8.842-.075 4.235-2.972 7.505-7.58 8.545-.742.149-1.56.372-2.377.372h-8.917c.298-1.561.892-3.121.892-4.682.074-7.653.074-15.381 0-23.034 0-1.412-.594-2.749-.892-4.235h5.425c-2.378 4.235-.595 8.842-1.19 13.226v.074Zm.074 17.387c2.452-.445 4.681-.668 6.762-1.263 2.377-.743 3.864-2.452 4.235-4.978.966-5.945-4.755-10.626-11.071-8.842v15.083h.074Zm84.857-17.387c2.601.297 5.053.371 7.356.892 4.904 1.114 7.505 4.383 7.356 8.842-.074 4.235-3.121 7.876-7.802 8.619-3.789.594-7.653.52-11.145.669.297-2.006.817-3.79.891-5.573.075-7.505.075-15.084 0-22.589 0-1.337-.594-2.675-.891-4.012h5.424c-2.378 4.235-.595 8.842-1.263 13.226l.074-.074Zm.149 17.016c1.188 0 2.154.074 3.046 0 3.418-.446 6.613-1.264 7.802-5.127 1.783-6.093-4.012-11.369-10.848-9.66v14.787ZM13.07 290.382c1.98-.248 3.343.668 4.086 2.749 3.121 8.471 6.167 17.016 9.363 25.486.52 1.338 1.486 2.527 2.154 3.716h-5.572c.074-.818.52-1.784.222-2.527-2.749-7.876-5.647-15.678-8.47-23.48 0-.223-.223-.371-.52-.817a1545.239 1545.239 0 0 0-3.196 8.619c-1.783 4.904-3.492 9.808-5.35 14.712-1.114 3.047-2.377 3.79-5.498 3.493 3.195-1.189 3.864-4.087 4.83-6.762 2.526-6.91 5.127-13.821 7.579-20.805.446-1.263.223-2.675.371-4.236v-.148Zm419.519 32.025h-5.35c0-1.115.223-2.229 0-3.121-1.04-3.195-2.377-6.39-3.492-9.585-.372-1.115-.966-1.635-2.229-1.56-2.229.148-4.979-.669-6.613.371-1.486.966-1.784 3.79-2.527 5.796-.594 1.486-1.263 2.972-1.634 4.458-.223 1.115 0 2.304 0 3.567h-3.864c.817-1.561 1.783-2.972 2.378-4.607 3.269-8.471 6.39-16.942 9.585-25.412.223-.669.52-1.338.966-2.304.446.966.743 1.635.966 2.229l9.585 25.858c.595 1.486 1.486 2.824 2.304 4.236l-.075.074ZM418.843 296.4c-1.338 3.716-2.452 6.837-3.641 10.032h7.356c-1.189-3.27-2.378-6.391-3.715-10.032Zm-253.154 26.007h-5.127c.297-1.709.817-3.418.817-5.127.075-7.579.075-15.232 0-22.811 0-1.338-.52-2.675-.817-4.013h5.053c-.223 1.561-.743 3.195-.743 4.83-.075 7.653-.075 15.381 0 23.034 0 1.338.52 2.675.891 4.087h-.074ZM89.525 85.45v25.858c-.074.371-.446.594-.743.892-.297-.298-.743-.521-.817-.818-.149-.52-.074-1.114-.074-1.709V60.707c.297-.743.594-1.56.891-2.304.297.743.743 1.486.743 2.23V85.45Zm-35.96 7.95v16.273c0 .743-.52 1.412-.818 2.081-.297-.669-.743-1.338-.743-2.006V76.311c.223-.52.52-1.04.743-1.56.298.52.892 1.114.892 1.634v16.941l-.074.075Zm57.807 14.119V91.692c0-.669.52-1.338.817-1.932.298.594.818 1.263.818 1.858v31.95c0 .669-.52 1.338-.743 2.007-.297-.669-.818-1.263-.818-1.932v-16.05l-.074-.074ZM94.58 70.96c1.412 2.23 1.412 31.283.149 33.363-.297-.966-.743-1.634-.743-2.229V73.413c0-.67.297-1.264.594-2.452Z"/></g><defs><clipPath id="a"><path fill="#fff" transform="translate(.361)" d="M0 0h442.334v322.927H0z"/></clipPath></defs></svg>